<svg width="9" height="10" viewBox="0 0 9 10" fill="none" xmlns="http://www.w3.org/2000/svg">
<path d="M1.09859 8.72611C1.51812 8.72611 1.85822 8.38601 1.85822 7.96648C1.85822 7.54695 1.51812 7.20685 1.09859 7.20685C0.67906 7.20685 0.338963 7.54695 0.338963 7.96648C0.338963 8.38601 0.67906 8.72611 1.09859 8.72611Z" fill="#A146B0" stroke="#A146B0" stroke-width="0.169084"/>
<path fill-rule="evenodd" clip-rule="evenodd" d="M1.58427 6.84232C1.21514 6.71229 0.852806 6.72457 0.48118 6.91433C-0.61861 2.60105 0.837024 6.16299 1.58427 6.84232Z" fill="#A146B0" stroke="#A146B0" stroke-width="0.169084"/>
<path fill-rule="evenodd" clip-rule="evenodd" d="M2.30245 7.67116C2.39583 8.1113 2.30774 8.43219 2.09062 8.66838C7.07144 7.62162 3.33133 8.04528 2.30245 7.67116Z" fill="#A146B0" stroke="#A146B0" stroke-width="0.169084"/>
<path d="M7.39912 7.9148C7.3796 7.49572 7.02406 7.17181 6.60498 7.19132C6.1859 7.21084 5.86199 7.56639 5.8815 7.98546C5.90102 8.40454 6.25656 8.72845 6.67564 8.70894C7.09472 8.68942 7.41863 8.33388 7.39912 7.9148Z" fill="#0CA148" stroke="#0CA248" stroke-width="0.0460292"/>
<path fill-rule="evenodd" clip-rule="evenodd" d="M5.53891 7.59436C5.42605 7.96918 5.45522 8.33052 5.66205 8.69285C1.44535 9.83738 4.75471 8.50539 5.53891 7.59436Z" fill="#0CA148" stroke="#0CA248" stroke-width="0.169084"/>
<path fill-rule="evenodd" clip-rule="evenodd" d="M6.52664 6.78959C6.97617 6.77061 7.27798 6.91073 7.47473 7.16411C7.21586 1.90305 7.01921 5.9205 6.52664 6.78959Z" fill="#0CA148" stroke="#0CA248" stroke-width="0.169084"/>
<path d="M0.550538 2.70016C0.630737 3.11196 1.02958 3.38077 1.44137 3.30057C1.85317 3.22037 2.12198 2.82153 2.04178 2.40974C1.96158 1.99794 1.56274 1.72913 1.15095 1.80933C0.739152 1.88953 0.470339 2.28837 0.550538 2.70016Z" fill="#F91B1B" stroke="#F91B1B" stroke-width="0.0460293"/>
<path fill-rule="evenodd" clip-rule="evenodd" d="M2.49241 2.81687C2.54954 2.42967 2.46814 2.07632 2.21087 1.74794C6.08751 0.123421 3.17873 1.86909 2.49241 2.81687Z" fill="#F91B1B" stroke="#F91B1B" stroke-width="0.169084"/>
<path fill-rule="evenodd" clip-rule="evenodd" d="M1.62812 3.72351C1.18619 3.8076 0.867195 3.71272 0.635592 3.49071C1.50148 8.32322 1.23213 4.7451 1.62812 3.72351Z" fill="#F91B1B" stroke="#F91B1B" stroke-width="0.169084"/>
<path d="M6.67076 1.23722C6.2541 1.28617 5.95601 1.66363 6.00496 2.0803C6.05391 2.49696 6.43137 2.79505 6.84804 2.7461C7.2647 2.69715 7.56279 2.31969 7.51384 1.90302C7.46489 1.48636 7.08743 1.18827 6.67076 1.23722Z" fill="#3C72FF" stroke="#3C72FF" stroke-width="0.0460292"/>
<path fill-rule="evenodd" clip-rule="evenodd" d="M6.48859 3.10101C6.86181 3.21876 7.22355 3.19439 7.58858 2.99235C8.76198 6.9404 7.31563 3.92875 6.48859 3.10101Z" fill="#3C72FF" stroke="#3C72FF" stroke-width="0.169084"/>
<path fill-rule="evenodd" clip-rule="evenodd" d="M5.65995 2.38503C5.51583 1.95878 5.56577 1.6298 5.75383 1.36993C1.7127 2.42308 4.59421 2.13355 5.65995 2.38503Z" fill="#3C72FF" stroke="#3C72FF" stroke-width="0.169084"/>
</svg>
