<svg width="128" height="128" viewBox="0 0 128 128" fill="none" xmlns="http://www.w3.org/2000/svg">
<path d="M112 58.6667V48H101.333V37.3333C101.325 34.507 100.198 31.7987 98.1998 29.8002C96.2013 27.8016 93.493 26.6751 90.6667 26.6667H80V16H69.3333V26.6667H58.6667V16H48V26.6667H37.3333C34.507 26.6751 31.7987 27.8016 29.8002 29.8002C27.8016 31.7987 26.6751 34.507 26.6667 37.3333V48H16V58.6667H26.6667V69.3333H16V80H26.6667V90.6667C26.6751 93.493 27.8016 96.2013 29.8002 98.1998C31.7987 100.198 34.507 101.325 37.3333 101.333H48V112H58.6667V101.333H69.3333V112H80V101.333H90.6667C93.493 101.325 96.2013 100.198 98.1998 98.1998C100.198 96.2013 101.325 93.493 101.333 90.6667V80H112V69.3333H101.333V58.6667H112ZM90.6667 90.6667H37.3333V37.3333H90.6667V90.6667Z" fill="#545454"/>
<path d="M60.592 42.6665H53.4187L42.6987 85.3332H48.176L50.6507 75.3332H63.0027L65.4133 85.3332H71.0773L60.592 42.6665ZM51.3707 71.0612L56.8 47.7332H57.0453L62.288 71.0612H51.3707ZM75.968 42.6665H81.3013V85.3332H75.968V42.6665Z" fill="#545454"/>
</svg>
