<svg width="249" height="50" viewBox="0 0 249 50" fill="none" xmlns="http://www.w3.org/2000/svg">
<g clip-path="url(#clip0_90_50)">
<path d="M241.827 37.3254L241.827 37.3292C241.978 39.0396 243.345 41.2161 245.715 41.2161H247.102C247.64 41.2161 248.08 40.7752 248.08 40.2374V9.74242H248.074C248.061 9.49328 247.952 9.25866 247.772 9.08661C247.591 8.91456 247.351 8.81809 247.102 8.81697H242.805C242.556 8.8182 242.316 8.91469 242.135 9.0867C241.954 9.25872 241.846 9.49327 241.833 9.74242H241.827V12.2203C239.195 8.97541 235.044 7.62841 230.882 7.62841C221.421 7.62841 213.752 15.3034 213.752 24.7721C213.752 34.2408 221.421 41.9163 230.882 41.9163V41.9173C235.044 41.9173 239.58 40.3013 241.827 37.3258V37.3254ZM230.899 35.9154C224.882 35.9154 220.004 30.9266 220.004 24.7711C220.004 18.6176 224.882 13.6279 230.899 13.6279C236.916 13.6279 241.793 18.6176 241.793 24.7716C241.793 30.8651 237.013 35.816 231.079 35.9144L230.899 35.9154ZM208.32 38.3782L208.318 22.598C208.318 13.7025 202.711 7.70158 193.769 7.70158C189.5 7.70158 186.002 10.1717 184.766 12.2935L184.745 12.1723L184.722 12.0502C184.718 12.03 184.714 12.0098 184.71 11.9897L184.683 11.8681L184.654 11.7469L184.623 11.6258L184.588 11.5056C184.564 11.4255 184.538 11.3461 184.51 11.2672L184.467 11.1495C183.992 9.91976 182.986 8.89062 180.889 8.89062H179.498C178.96 8.89062 178.52 9.33154 178.52 9.86937V40.3677H178.526C178.539 40.6169 178.647 40.8514 178.828 41.0234C179.009 41.1955 179.249 41.2919 179.498 41.2932H183.795C183.861 41.2932 183.925 41.2849 183.987 41.2728L184.015 41.2656L184.07 41.2481L184.135 41.2297C184.145 41.2264 184.155 41.2227 184.166 41.2186L184.203 41.2011L184.326 41.1318C184.355 41.1133 184.382 41.0929 184.408 41.0708L184.447 41.0369C184.453 41.0306 184.461 41.0267 184.467 41.0209C184.647 40.8497 184.754 40.6159 184.767 40.3677H184.772V22.3528C184.772 17.5754 188.643 13.7025 193.417 13.7025C198.191 13.7025 202.061 17.5758 202.061 22.3533L202.065 37.4111L202.066 37.4058L202.068 37.447V40.3677H202.074C202.087 40.6169 202.196 40.8514 202.376 41.0234C202.557 41.1955 202.797 41.2919 203.046 41.2932H207.343C207.409 41.2932 207.474 41.2849 207.536 41.2728C207.561 41.268 207.584 41.2583 207.609 41.251L207.68 41.2307L207.714 41.2186C207.75 41.204 207.782 41.1837 207.815 41.1653C207.835 41.1536 207.856 41.1449 207.876 41.1318C207.915 41.1062 207.952 41.0747 207.988 41.0432L208.016 41.0199C208.042 40.9937 208.068 40.9666 208.091 40.9375L208.133 40.8842C208.229 40.7514 208.29 40.5963 208.309 40.4336L208.316 40.3677H208.321V38.3787L208.32 38.3782ZM163.572 37.3254V37.3292C163.722 39.0396 165.09 41.2161 167.46 41.2161H168.847C169.385 41.2161 169.824 40.7752 169.824 40.2374V9.74242H169.819C169.805 9.49328 169.697 9.25866 169.517 9.08661C169.336 8.91456 169.096 8.81809 168.847 8.81697H164.55C164.3 8.81808 164.061 8.91451 163.88 9.08654C163.699 9.25857 163.59 9.49319 163.577 9.74242H163.572V12.2203C160.939 8.97541 156.789 7.62841 152.626 7.62841C143.166 7.62841 135.497 15.3034 135.497 24.7721C135.497 34.2408 143.166 41.9163 152.626 41.9163V41.9173C156.789 41.9173 161.325 40.3013 163.572 37.3258V37.3254ZM152.643 35.9154C146.627 35.9154 141.749 30.9266 141.749 24.7711C141.749 18.6176 146.627 13.6279 152.643 13.6279C158.66 13.6279 163.537 18.6176 163.537 24.7716C163.537 30.8651 158.757 35.816 152.823 35.9144L152.643 35.9154ZM110.087 32.9617C112.955 34.9502 116.087 35.9159 119.095 35.9159C119.686 35.9159 120.281 35.8529 120.854 35.7298L121.025 35.691C121.11 35.6707 121.194 35.6494 121.278 35.6261L121.445 35.5786C121.501 35.5621 121.555 35.5452 121.61 35.5277L121.773 35.473C122.151 35.3417 122.509 35.1818 122.841 34.9943L122.982 34.9124C124.137 34.2166 124.925 33.1749 124.925 31.8405C124.925 30.0433 123.179 29.0355 120.932 28.2879L120.671 28.2031C120.627 28.1885 120.583 28.175 120.538 28.1609L120.271 28.079L120.001 27.9991L119.727 27.9206L119.312 27.8053L118.893 27.6933L118.33 27.547L116.922 27.1885L116.369 27.0441L115.96 26.9341L115.691 26.8595L115.426 26.7839L115.295 26.7456L115.036 26.6681C114.994 26.6553 114.951 26.6424 114.909 26.6293L114.657 26.5489C114.574 26.5218 114.492 26.4946 114.411 26.467C110.353 25.0875 106.858 22.2346 106.858 17.6156C106.858 10.5467 113.152 7.62744 119.025 7.62744C122.747 7.62744 126.587 8.85573 129.077 10.6151C129.547 10.9722 129.602 11.3579 129.556 11.6335L129.545 11.6907L129.531 11.744L129.515 11.7939L129.499 11.8395L129.482 11.8802L129.458 11.932L129.436 11.9718L129.412 12.0115L127.035 15.408C127.021 15.4294 127.005 15.4507 126.989 15.471L126.939 15.5331C126.671 15.8451 126.254 16.0612 125.686 15.74L125.604 15.6905L125.189 15.4289L125.041 15.3383L124.877 15.2414L124.761 15.1735L124.637 15.1042C124.616 15.0922 124.594 15.0803 124.573 15.0684L124.439 14.9962L124.3 14.9235L124.154 14.8489L124.002 14.7743L123.843 14.6992L123.679 14.6241C123.622 14.5988 123.565 14.5739 123.508 14.5495L123.331 14.4753L123.149 14.4026C121.834 13.8896 120.436 13.6267 119.025 13.6274C115.442 13.6274 113.283 15.2845 113.283 17.337C113.283 18.5032 113.912 19.2906 114.925 19.8856L115.062 19.9641C115.271 20.0799 115.494 20.188 115.731 20.2907L115.891 20.358L115.973 20.391L116.137 20.4559L116.222 20.4879L116.392 20.5509L116.566 20.6124L116.743 20.6725L116.832 20.702L117.014 20.7602L117.291 20.8464L117.575 20.9303L117.863 21.0126L118.059 21.0669L118.256 21.1207L118.657 21.2273L119.375 21.4124L120.064 21.5994L120.582 21.7428L120.929 21.8407L121.102 21.8901L121.447 21.9904L121.62 22.0413L121.964 22.145L122.307 22.2516C127.046 23.7381 131.349 26.0086 131.349 31.8405C131.349 38.0686 125.528 41.9173 119.095 41.9173C114.22 41.9173 110.069 40.5267 106.588 37.9698C106.15 37.5308 106.161 37.1112 106.239 36.8476L106.256 36.7953L106.274 36.7478L106.292 36.7052L106.311 36.6678L106.335 36.6223L106.369 36.569L108.734 33.1894C109.139 32.6574 109.634 32.7296 109.938 32.8754L109.993 32.9035L110.042 32.9326L110.087 32.9617ZM93.5689 37.3254V37.3292C93.7191 39.0396 95.0874 41.2161 97.4572 41.2161H98.8445C99.3823 41.2161 99.8227 40.7752 99.8227 40.2374V9.74242H99.8164C99.8031 9.49328 99.695 9.25866 99.5143 9.08661C99.3336 8.91456 99.094 8.81809 98.8445 8.81697H94.5476C94.298 8.81808 94.0583 8.91451 93.8774 9.08654C93.6966 9.25857 93.5883 9.49319 93.5747 9.74242H93.5698V12.2203C90.9374 8.97541 86.7864 7.62841 82.6243 7.62841C73.1643 7.62841 65.4946 15.3034 65.4946 24.7721C65.4946 34.2408 73.1643 41.9163 82.6248 41.9163V41.9173C86.7869 41.9173 91.3221 40.3013 93.5694 37.3258L93.5689 37.3254ZM82.6407 35.9154C76.6238 35.9154 71.7461 30.9266 71.7461 24.7711C71.7461 18.6176 76.6238 13.6279 82.6407 13.6279C88.6577 13.6279 93.535 18.6176 93.535 24.7716C93.535 30.8651 88.7546 35.816 82.821 35.9144L82.6407 35.9154Z" fill="#0D0E10"/>
<path d="M41.4783 25.9379C35.1116 25.9379 29.9504 31.0992 29.9504 37.4659C29.9504 43.8327 35.1116 48.9939 41.4783 48.9939C47.8451 48.9939 53.0058 43.8327 53.0058 37.4659C53.0058 31.0992 47.8451 25.9379 41.4783 25.9379ZM11.528 25.9389C5.16123 25.9389 0 31.0992 0 37.4659C0 43.8327 5.16123 48.9939 11.528 48.9939C17.8947 48.9939 23.0564 43.8327 23.0564 37.4659C23.0564 31.0992 17.8947 25.9389 11.528 25.9389ZM38.0309 11.527C38.0309 17.8942 32.8697 23.056 26.5029 23.056C20.1362 23.056 14.9754 17.8942 14.9754 11.527C14.9754 5.16172 20.1362 0 26.5029 0C32.8697 0 38.0309 5.16123 38.0309 11.527Z" fill="#F06A6A"/>
</g>
<defs>
<clipPath id="clip0_90_50">
<rect width="248.08" height="49.4222" fill="white"/>
</clipPath>
</defs>
</svg>
