<svg width="137" height="137" viewBox="0 0 137 137" fill="none" xmlns="http://www.w3.org/2000/svg">
<g clip-path="url(#clip0_90_51)">
<path d="M104.345 0H31.9424C14.3011 0 0 14.3011 0 31.9424V104.345C0 121.987 14.3011 136.288 31.9424 136.288H104.345C121.987 136.288 136.288 121.987 136.288 104.345V31.9424C136.288 14.3011 121.987 0 104.345 0Z" fill="#F4F2ED"/>
<path d="M45.1161 59.6052C45.1161 60.901 45.2561 61.9514 45.501 62.7223C45.8123 63.5893 46.187 64.4322 46.6221 65.2441C46.7973 65.5241 46.867 65.8042 46.867 66.0496C46.867 66.3999 46.6567 66.7502 46.2016 67.1L43.9949 68.5715C43.6797 68.7812 43.3645 68.8866 43.0845 68.8866C42.7342 68.8866 42.3839 68.7115 42.0336 68.3963C41.5618 67.8891 41.1397 67.3379 40.7729 66.7502C40.3815 66.0772 40.0192 65.3876 39.6869 64.6835C36.9553 67.906 33.5225 69.5169 29.3897 69.5169C26.4478 69.5169 24.1011 68.6763 22.3847 66.9951C20.6689 65.3139 19.7932 63.0726 19.7932 60.2707C19.7932 57.2931 20.8441 54.8767 22.9805 53.0554C25.1169 51.2342 27.9539 50.3233 31.5613 50.3233C32.7522 50.3233 33.9783 50.4287 35.2741 50.6038C36.5699 50.779 37.9008 51.059 39.302 51.3742V48.8172C39.302 46.1553 38.7414 44.2989 37.6559 43.2134C36.5347 42.1274 34.6437 41.6024 31.9467 41.6024C30.7207 41.6024 29.46 41.7425 28.1642 42.0576C26.8679 42.3728 25.6072 42.7582 24.3812 43.2485C23.983 43.4267 23.5736 43.5788 23.1556 43.7037C22.9107 43.774 22.7351 43.8091 22.595 43.8091C22.1053 43.8091 21.8593 43.4588 21.8593 42.7231V41.0067C21.8593 40.4467 21.9296 40.0261 22.1047 39.7812C22.2799 39.5363 22.595 39.2909 23.0854 39.0455C24.3114 38.4151 25.7824 37.8902 27.4987 37.4696C29.2146 37.0139 31.0358 36.8042 32.9625 36.8042C37.1304 36.8042 40.1772 37.7497 42.139 39.6406C44.0652 41.5322 45.0458 44.4043 45.0458 48.2571V59.6052H45.1161ZM30.8963 64.9289C32.0516 64.9289 33.2425 64.7187 34.5037 64.2981C35.7644 63.878 36.885 63.1072 37.831 62.0568C38.3911 61.3913 38.8117 60.6556 39.0214 59.815C39.2317 58.9743 39.3717 57.9586 39.3717 56.7682V55.2967C38.3097 55.0384 37.2341 54.8397 36.1498 54.7015C35.0577 54.5628 33.958 54.4926 32.8571 54.4912C30.5104 54.4912 28.7945 54.9469 27.6387 55.8924C26.483 56.8379 25.9224 58.1689 25.9224 59.9204C25.9224 61.5665 26.3429 62.792 27.2182 63.6326C28.0593 64.5084 29.2854 64.9289 30.8963 64.9289ZM59.0206 68.7115C58.3903 68.7115 57.9697 68.6061 57.6897 68.3612C57.4096 68.1509 57.1642 67.6606 56.9545 66.9951L48.724 39.9212C48.5131 39.2206 48.4083 38.7654 48.4083 38.52C48.4083 37.9599 48.6883 37.6442 49.2489 37.6442H52.6811C53.3466 37.6442 53.8023 37.7497 54.0472 37.9945C54.3272 38.2048 54.5375 38.6952 54.7478 39.3606L60.6316 62.5471L66.0959 39.3606C66.271 38.66 66.4808 38.2054 66.7613 37.9945C67.0414 37.7848 67.5317 37.6448 68.162 37.6448H70.9639C71.6293 37.6448 72.0851 37.7497 72.3651 37.9945C72.6451 38.2048 72.8905 38.6952 73.0306 39.3606L78.5646 62.8271L84.6235 39.3606C84.8338 38.66 85.0792 38.2054 85.3241 37.9945C85.6042 37.7848 86.0599 37.6448 86.6902 37.6448H89.9473C90.5079 37.6448 90.823 37.9248 90.823 38.52C90.823 38.6957 90.7879 38.8703 90.7528 39.0806C90.7182 39.2909 90.6479 39.5704 90.5079 39.9563L82.0671 67.0302C81.8568 67.7308 81.6114 68.186 81.3313 68.3963C81.0513 68.6061 80.5956 68.7466 80.0004 68.7466H76.9882C76.3228 68.7466 75.8676 68.6412 75.5875 68.3963C75.307 68.1509 75.0621 67.6957 74.9221 66.9951L69.4929 44.4043L64.0995 66.96C63.9243 67.6606 63.714 68.1157 63.434 68.3612C63.1534 68.6061 62.6631 68.7115 62.0328 68.7115H59.0206ZM104.028 69.657C102.206 69.657 100.385 69.4467 98.6335 69.0266C96.8825 68.6061 95.5164 68.1509 94.6056 67.6254C94.0455 67.3103 93.6601 66.96 93.52 66.6448C93.3837 66.3357 93.3121 66.002 93.3098 65.6642V63.878C93.3098 63.1423 93.5898 62.792 94.1152 62.792C94.3255 62.792 94.5358 62.8271 94.7456 62.8974C94.9559 62.9672 95.271 63.1072 95.6213 63.2477C96.8585 63.7916 98.1501 64.2024 99.4741 64.4732C100.846 64.752 102.242 64.8928 103.642 64.8938C105.849 64.8938 107.565 64.5084 108.756 63.738C109.946 62.9672 110.577 61.8465 110.577 60.4107C110.577 59.4301 110.262 58.624 109.631 57.9586C109.001 57.2931 107.81 56.6979 106.094 56.1373L101.015 54.5615C98.4583 53.756 96.5668 52.5651 95.411 50.9893C94.2553 49.448 93.6601 47.7311 93.6601 45.9104C93.6601 44.4395 93.9752 43.1437 94.6056 42.0225C95.2359 40.9018 96.0765 39.9212 97.1274 39.1509C98.1783 38.3449 99.3692 37.7497 100.77 37.3291C102.171 36.9085 103.642 36.7339 105.183 36.7339C105.954 36.7339 106.759 36.769 107.53 36.8739C108.335 36.9788 109.071 37.1188 109.806 37.2593C110.507 37.4345 111.172 37.6096 111.803 37.8199C112.433 38.0297 112.923 38.24 113.274 38.4503C113.764 38.7303 114.114 39.0103 114.325 39.3255C114.534 39.606 114.64 39.991 114.64 40.4818V42.1279C114.64 42.8631 114.36 43.2485 113.834 43.2485C113.554 43.2485 113.099 43.1085 112.503 42.828C110.507 41.9176 108.265 41.4624 105.778 41.4624C103.782 41.4624 102.206 41.7776 101.12 42.4431C100.035 43.1085 99.4741 44.1243 99.4741 45.5601C99.4741 46.5408 99.8244 47.3814 100.525 48.0468C101.225 48.7123 102.521 49.3778 104.378 49.973L109.351 51.5488C111.873 52.3548 113.694 53.4755 114.78 54.9118C115.865 56.3476 116.391 57.9937 116.391 59.815C116.391 61.3211 116.076 62.6871 115.48 63.878C114.85 65.069 114.01 66.1193 112.923 66.96C111.838 67.8357 110.542 68.466 109.036 68.9218C107.46 69.4121 105.814 69.657 104.028 69.657Z" fill="#252F3E"/>
<path fill-rule="evenodd" clip-rule="evenodd" d="M110.647 86.6792C99.1238 95.1903 82.3822 99.7085 67.9868 99.7085C47.8131 99.7085 29.6346 92.2478 15.9052 79.8494C14.8192 78.8687 15.8003 77.5378 17.0961 78.3082C31.9467 86.9241 50.2646 92.143 69.2129 92.143C81.9968 92.143 96.0419 89.4811 108.966 84.0173C110.892 83.1416 112.538 85.278 110.647 86.6792Z" fill="#FF9900"/>
<path fill-rule="evenodd" clip-rule="evenodd" d="M115.445 81.2151C113.974 79.3236 105.709 80.3042 101.961 80.7594C100.84 80.8999 100.665 79.9188 101.681 79.1836C108.265 74.5604 119.088 75.8914 120.349 77.4321C121.61 79.0084 119.999 89.831 113.834 95.0148C112.888 95.8203 111.978 95.3997 112.398 94.3493C113.799 90.8819 116.916 83.071 115.445 81.2151Z" fill="#FF9900"/>
</g>
<defs>
<clipPath id="clip0_90_51">
<rect width="136.288" height="136.288" fill="white"/>
</clipPath>
</defs>
</svg>
