<svg width="40" height="40" viewBox="0 0 43 8" fill="none" xmlns="http://www.w3.org/2000/svg">
<path d="M12.68 2.562H11.014V2.002H15.011V2.562H13.345V7H12.68V2.562ZM17.2012 4.844C17.1919 4.704 17.1592 4.571 17.1032 4.445C17.0519 4.319 16.9796 4.21167 16.8862 4.123C16.7976 4.02967 16.6902 3.95733 16.5642 3.906C16.4429 3.85 16.3076 3.822 16.1582 3.822C16.0042 3.822 15.8642 3.85 15.7382 3.906C15.6169 3.95733 15.5119 4.02967 15.4232 4.123C15.3346 4.21633 15.2646 4.326 15.2132 4.452C15.1619 4.57333 15.1316 4.704 15.1222 4.844H17.2012ZM17.7752 5.852C17.6959 6.258 17.5209 6.56367 17.2502 6.769C16.9796 6.97433 16.6389 7.077 16.2282 7.077C15.9389 7.077 15.6869 7.03033 15.4722 6.937C15.2622 6.84367 15.0849 6.713 14.9402 6.545C14.7956 6.377 14.6859 6.17633 14.6112 5.943C14.5412 5.70967 14.5016 5.45533 14.4922 5.18C14.4922 4.90467 14.5342 4.65267 14.6182 4.424C14.7022 4.19533 14.8189 3.997 14.9682 3.829C15.1222 3.661 15.3019 3.53033 15.5072 3.437C15.7172 3.34367 15.9459 3.297 16.1932 3.297C16.5152 3.297 16.7812 3.36467 16.9912 3.5C17.2059 3.63067 17.3762 3.79867 17.5022 4.004C17.6329 4.20933 17.7216 4.43333 17.7682 4.676C17.8196 4.91867 17.8406 5.14967 17.8312 5.369H15.1222C15.1176 5.52767 15.1362 5.67933 15.1782 5.824C15.2202 5.964 15.2879 6.09 15.3812 6.202C15.4746 6.30933 15.5936 6.39567 15.7382 6.461C15.8829 6.52633 16.0532 6.559 16.2492 6.559C16.5012 6.559 16.7066 6.50067 16.8652 6.384C17.0286 6.26733 17.1359 6.09 17.1872 5.852H17.7752ZM21.654 6.986C21.5513 7.04667 21.409 7.077 21.227 7.077C21.073 7.077 20.9493 7.035 20.856 6.951C20.7673 6.86233 20.723 6.72 20.723 6.524C20.5597 6.72 20.3683 6.86233 20.149 6.951C19.9343 7.035 19.701 7.077 19.449 7.077C19.2857 7.077 19.1293 7.05833 18.98 7.021C18.8353 6.98367 18.7093 6.92533 18.602 6.846C18.4947 6.76667 18.4083 6.664 18.343 6.538C18.2823 6.40733 18.252 6.251 18.252 6.069C18.252 5.86367 18.287 5.69567 18.357 5.565C18.427 5.43433 18.518 5.32933 18.63 5.25C18.7467 5.166 18.8773 5.103 19.022 5.061C19.1713 5.019 19.323 4.984 19.477 4.956C19.6403 4.92333 19.7943 4.9 19.939 4.886C20.0883 4.86733 20.219 4.844 20.331 4.816C20.443 4.78333 20.5317 4.739 20.597 4.683C20.6623 4.62233 20.695 4.536 20.695 4.424C20.695 4.29333 20.6693 4.18833 20.618 4.109C20.5713 4.02967 20.5083 3.969 20.429 3.927C20.3543 3.885 20.268 3.857 20.17 3.843C20.0767 3.829 19.9833 3.822 19.89 3.822C19.638 3.822 19.428 3.871 19.26 3.969C19.092 4.06233 19.001 4.242 18.987 4.508H18.392C18.4013 4.284 18.448 4.095 18.532 3.941C18.616 3.787 18.728 3.66333 18.868 3.57C19.008 3.472 19.1667 3.402 19.344 3.36C19.526 3.318 19.7197 3.297 19.925 3.297C20.0883 3.297 20.2493 3.30867 20.408 3.332C20.5713 3.35533 20.7183 3.40433 20.849 3.479C20.9797 3.549 21.0847 3.64933 21.164 3.78C21.2433 3.91067 21.283 4.081 21.283 4.291V6.153C21.283 6.293 21.29 6.39567 21.304 6.461C21.3227 6.52633 21.3787 6.559 21.472 6.559C21.5233 6.559 21.584 6.54733 21.654 6.524V6.986ZM20.688 5.131C20.6133 5.187 20.5153 5.229 20.394 5.257C20.2727 5.28033 20.1443 5.30133 20.009 5.32C19.8783 5.334 19.7453 5.35267 19.61 5.376C19.4747 5.39467 19.3533 5.42733 19.246 5.474C19.1387 5.52067 19.05 5.58833 18.98 5.677C18.9147 5.761 18.882 5.87767 18.882 6.027C18.882 6.125 18.9007 6.209 18.938 6.279C18.98 6.34433 19.0313 6.398 19.092 6.44C19.1573 6.482 19.232 6.51233 19.316 6.531C19.4 6.54967 19.4887 6.559 19.582 6.559C19.778 6.559 19.946 6.53333 20.086 6.482C20.226 6.426 20.3403 6.35833 20.429 6.279C20.5177 6.195 20.583 6.10633 20.625 6.013C20.667 5.915 20.688 5.824 20.688 5.74V5.131ZM22.2078 3.381H22.7678V3.913H22.7818C23.0524 3.50233 23.4421 3.297 23.9508 3.297C24.1748 3.297 24.3778 3.34367 24.5598 3.437C24.7418 3.53033 24.8701 3.689 24.9448 3.913C25.0661 3.717 25.2248 3.56533 25.4208 3.458C25.6214 3.35067 25.8408 3.297 26.0788 3.297C26.2608 3.297 26.4241 3.318 26.5688 3.36C26.7181 3.39733 26.8441 3.458 26.9468 3.542C27.0541 3.626 27.1358 3.73567 27.1918 3.871C27.2524 4.00167 27.2828 4.16033 27.2828 4.347V7H26.6878V4.627C26.6878 4.515 26.6784 4.41 26.6598 4.312C26.6411 4.214 26.6061 4.13 26.5548 4.06C26.5034 3.98533 26.4311 3.927 26.3378 3.885C26.2491 3.843 26.1324 3.822 25.9878 3.822C25.6938 3.822 25.4628 3.906 25.2948 4.074C25.1268 4.242 25.0428 4.466 25.0428 4.746V7H24.4478V4.627C24.4478 4.51033 24.4361 4.403 24.4128 4.305C24.3941 4.207 24.3591 4.123 24.3078 4.053C24.2564 3.97833 24.1864 3.92233 24.0978 3.885C24.0138 3.843 23.9041 3.822 23.7688 3.822C23.5961 3.822 23.4468 3.857 23.3208 3.927C23.1994 3.997 23.0991 4.081 23.0198 4.179C22.9451 4.277 22.8891 4.37967 22.8518 4.487C22.8191 4.58967 22.8028 4.676 22.8028 4.746V7H22.2078V3.381ZM30.2218 2.002H33.5048V2.562H30.8868V4.151H33.1828V4.711H30.8868V7H30.2218V2.002ZM37.3493 6.986C37.2466 7.04667 37.1043 7.077 36.9223 7.077C36.7683 7.077 36.6446 7.035 36.5513 6.951C36.4626 6.86233 36.4183 6.72 36.4183 6.524C36.255 6.72 36.0636 6.86233 35.8443 6.951C35.6296 7.035 35.3963 7.077 35.1443 7.077C34.981 7.077 34.8246 7.05833 34.6753 7.021C34.5306 6.98367 34.4046 6.92533 34.2973 6.846C34.19 6.76667 34.1036 6.664 34.0383 6.538C33.9776 6.40733 33.9473 6.251 33.9473 6.069C33.9473 5.86367 33.9823 5.69567 34.0523 5.565C34.1223 5.43433 34.2133 5.32933 34.3253 5.25C34.442 5.166 34.5726 5.103 34.7173 5.061C34.8666 5.019 35.0183 4.984 35.1723 4.956C35.3356 4.92333 35.4896 4.9 35.6343 4.886C35.7836 4.86733 35.9143 4.844 36.0263 4.816C36.1383 4.78333 36.227 4.739 36.2923 4.683C36.3576 4.62233 36.3903 4.536 36.3903 4.424C36.3903 4.29333 36.3646 4.18833 36.3133 4.109C36.2666 4.02967 36.2036 3.969 36.1243 3.927C36.0496 3.885 35.9633 3.857 35.8653 3.843C35.772 3.829 35.6786 3.822 35.5853 3.822C35.3333 3.822 35.1233 3.871 34.9553 3.969C34.7873 4.06233 34.6963 4.242 34.6823 4.508H34.0873C34.0966 4.284 34.1433 4.095 34.2273 3.941C34.3113 3.787 34.4233 3.66333 34.5633 3.57C34.7033 3.472 34.862 3.402 35.0393 3.36C35.2213 3.318 35.415 3.297 35.6203 3.297C35.7836 3.297 35.9446 3.30867 36.1033 3.332C36.2666 3.35533 36.4136 3.40433 36.5443 3.479C36.675 3.549 36.78 3.64933 36.8593 3.78C36.9386 3.91067 36.9783 4.081 36.9783 4.291V6.153C36.9783 6.293 36.9853 6.39567 36.9993 6.461C37.018 6.52633 37.074 6.559 37.1673 6.559C37.2186 6.559 37.2793 6.54733 37.3493 6.524V6.986ZM36.3833 5.131C36.3086 5.187 36.2106 5.229 36.0893 5.257C35.968 5.28033 35.8396 5.30133 35.7043 5.32C35.5736 5.334 35.4406 5.35267 35.3053 5.376C35.17 5.39467 35.0486 5.42733 34.9413 5.474C34.834 5.52067 34.7453 5.58833 34.6753 5.677C34.61 5.761 34.5773 5.87767 34.5773 6.027C34.5773 6.125 34.596 6.209 34.6333 6.279C34.6753 6.34433 34.7266 6.398 34.7873 6.44C34.8526 6.482 34.9273 6.51233 35.0113 6.531C35.0953 6.54967 35.184 6.559 35.2773 6.559C35.4733 6.559 35.6413 6.53333 35.7813 6.482C35.9213 6.426 36.0356 6.35833 36.1243 6.279C36.213 6.195 36.2783 6.10633 36.3203 6.013C36.3623 5.915 36.3833 5.824 36.3833 5.74V5.131ZM37.9241 2.002H38.5191V3.871H38.5331C38.6311 3.67033 38.7851 3.52567 38.9951 3.437C39.2051 3.34367 39.4361 3.297 39.6881 3.297C39.9681 3.297 40.2107 3.34833 40.4161 3.451C40.6261 3.55367 40.7987 3.69367 40.9341 3.871C41.0741 4.04367 41.1791 4.24433 41.2491 4.473C41.3191 4.70167 41.3541 4.94433 41.3541 5.201C41.3541 5.45767 41.3191 5.70033 41.2491 5.929C41.1837 6.15767 41.0811 6.35833 40.9411 6.531C40.8057 6.699 40.6331 6.832 40.4231 6.93C40.2177 7.028 39.9774 7.077 39.7021 7.077C39.6134 7.077 39.5131 7.06767 39.4011 7.049C39.2937 7.03033 39.1864 7 39.0791 6.958C38.9717 6.916 38.8691 6.86 38.7711 6.79C38.6777 6.71533 38.5984 6.62433 38.5331 6.517H38.5191V7H37.9241V2.002ZM40.7241 5.159C40.7241 4.991 40.7007 4.82767 40.6541 4.669C40.6121 4.50567 40.5444 4.361 40.4511 4.235C40.3624 4.109 40.2457 4.00867 40.1011 3.934C39.9611 3.85933 39.7954 3.822 39.6041 3.822C39.4034 3.822 39.2331 3.86167 39.0931 3.941C38.9531 4.02033 38.8387 4.12533 38.7501 4.256C38.6614 4.382 38.5961 4.52667 38.5541 4.69C38.5167 4.85333 38.4981 5.019 38.4981 5.187C38.4981 5.36433 38.5191 5.537 38.5611 5.705C38.6031 5.86833 38.6684 6.013 38.7571 6.139C38.8504 6.265 38.9694 6.36767 39.1141 6.447C39.2587 6.52167 39.4337 6.559 39.6391 6.559C39.8444 6.559 40.0147 6.51933 40.1501 6.44C40.2901 6.36067 40.4021 6.25567 40.4861 6.125C40.5701 5.99433 40.6307 5.845 40.6681 5.677C40.7054 5.509 40.7241 5.33633 40.7241 5.159Z" fill="black"/>
<rect width="8" height="8" rx="3" fill="#00AED5"/>
<path fill-rule="evenodd" clip-rule="evenodd" d="M2.60592 1.50203C2.80019 1.75 2.86165 2.01682 2.81852 2.30921C2.979 2.08759 3.3004 1.8082 3.58076 1.56449L3.58076 1.56449C4.20578 1.02116 4.6268 0.655175 2.60592 1.50203ZM1.35215 2.22108C1.41271 2.53204 1.71389 2.73503 2.02485 2.67447C2.33581 2.61391 2.53879 2.31274 2.47823 2.00178C2.41767 1.69082 2.1165 1.48783 1.80554 1.54839C1.49458 1.60895 1.29159 1.91013 1.35215 2.22108ZM6.5808 5.59194C6.43223 5.4006 6.20432 5.2948 5.86488 5.30912C5.98473 5.09765 6.08139 4.63932 6.16388 4.2481C6.33741 3.42525 6.44831 2.89933 6.5808 5.59194ZM1.29978 5.40332C1.5804 5.26003 1.85402 5.25075 2.13275 5.34894C1.95304 5.18556 1.71906 4.80138 1.51045 4.45884C1.06406 3.72588 0.7338 3.1836 1.29978 5.40332ZM2.33962 6.19783C2.33962 6.51463 2.0828 6.77144 1.766 6.77144C1.4492 6.77144 1.19239 6.51463 1.19239 6.19783C1.19239 5.88103 1.4492 5.62421 1.766 5.62421C2.0828 5.62421 2.33962 5.88103 2.33962 6.19783ZM2.67507 5.97482C2.74559 6.30718 2.67907 6.5495 2.51511 6.72786C5.05353 6.19439 4.59232 6.16668 3.78533 6.11819C3.39661 6.09484 2.92765 6.06667 2.67507 5.97482ZM5.92403 5.61249C6.24049 5.59775 6.50897 5.84234 6.52371 6.1588C6.53844 6.47526 6.29385 6.74374 5.97739 6.75848C5.66093 6.77321 5.39245 6.52862 5.37771 6.21216C5.36298 5.89571 5.60757 5.62722 5.92403 5.61249ZM5.11901 5.91683C5.03379 6.19987 5.05581 6.47272 5.212 6.74633C3.10133 7.31923 3.4878 7.07041 4.16075 6.63716C4.50301 6.41681 4.91938 6.14876 5.11901 5.91683ZM2.16587 2.99384C1.83215 3.05734 1.59127 2.9857 1.41638 2.81805C1.86253 5.30802 1.90956 4.84099 1.98941 4.04795C2.02659 3.67875 2.07088 3.23889 2.16587 2.99384ZM5.47094 1.75301C5.43398 1.43837 5.65907 1.15334 5.97371 1.11637C6.28834 1.07941 6.57337 1.30451 6.61034 1.61914C6.6473 1.93378 6.42221 2.21881 6.10757 2.25577C5.79294 2.29274 5.50791 2.06764 5.47094 1.75301ZM5.83614 2.52378C6.11797 2.61269 6.39113 2.59429 6.66678 2.44172C7.2966 4.56084 6.92692 4.02465 6.43614 3.31283C6.23647 3.02322 6.01675 2.70454 5.83614 2.52378ZM5.28131 1.21659C5.1393 1.41282 5.10159 1.66124 5.21041 1.98312C4.9947 1.93222 4.68049 1.91067 4.39483 1.89108C3.61475 1.83758 3.04767 1.79869 5.28131 1.21659Z" fill="white"/>
<path d="M2.81852 2.30921L2.73488 2.29687L2.88699 2.3588L2.81852 2.30921ZM2.60592 1.50203L2.57324 1.42406L2.471 1.46691L2.53937 1.55417L2.60592 1.50203ZM3.58076 1.56449L3.63636 1.62845L3.64054 1.62427L3.58076 1.56449ZM3.58076 1.56449L3.52516 1.50053L3.52098 1.50471L3.58076 1.56449ZM2.02485 2.67447L2.04101 2.75745L2.04101 2.75745L2.02485 2.67447ZM1.35215 2.22108L1.26917 2.23725L1.26917 2.23725L1.35215 2.22108ZM2.47823 2.00178L2.56122 1.98562L2.56122 1.98562L2.47823 2.00178ZM1.80554 1.54839L1.78938 1.46541L1.78938 1.46541L1.80554 1.54839ZM5.86488 5.30912L5.79133 5.26744L5.71618 5.40002L5.86844 5.39359L5.86488 5.30912ZM6.5808 5.59194L6.51403 5.64379L6.67841 5.85549L6.66524 5.58778L6.5808 5.59194ZM6.16388 4.2481L6.08116 4.23066L6.08116 4.23066L6.16388 4.2481ZM2.13275 5.34894L2.10466 5.42868L2.18962 5.28639L2.13275 5.34894ZM1.29978 5.40332L1.21786 5.42421L1.244 5.52673L1.33823 5.47861L1.29978 5.40332ZM1.51045 4.45884L1.58265 4.41486L1.58265 4.41486L1.51045 4.45884ZM2.51511 6.72786L2.45287 6.67064L2.27436 6.86484L2.5325 6.81059L2.51511 6.72786ZM2.67507 5.97482L2.70396 5.89537L2.56074 5.84329L2.59237 5.99237L2.67507 5.97482ZM3.78533 6.11819L3.7904 6.0338L3.78533 6.11819ZM5.92403 5.61249L5.92796 5.69694L5.92796 5.69694L5.92403 5.61249ZM5.97739 6.75848L5.97346 6.67403L5.97346 6.67403L5.97739 6.75848ZM5.37771 6.21216L5.29326 6.21609L5.29326 6.21609L5.37771 6.21216ZM5.212 6.74633L5.23415 6.82792L5.33959 6.7993L5.28542 6.70442L5.212 6.74633ZM5.11901 5.91683L5.19997 5.9412L5.05494 5.86168L5.11901 5.91683ZM4.16075 6.63716L4.11499 6.56608L4.11499 6.56608L4.16075 6.63716ZM1.41638 2.81805L1.47488 2.75702L1.28734 2.57724L1.33316 2.83296L1.41638 2.81805ZM2.16587 2.99384L2.24469 3.0244L2.29977 2.8823L2.15006 2.91079L2.16587 2.99384ZM1.98941 4.04795L2.07353 4.05642L2.07353 4.05642L1.98941 4.04795ZM5.97371 1.11637L5.98357 1.20034L5.98357 1.20034L5.97371 1.11637ZM6.61034 1.61914L6.52637 1.62901L6.52637 1.62901L6.61034 1.61914ZM6.10757 2.25577L6.11744 2.33974L6.11744 2.33974L6.10757 2.25577ZM6.66678 2.44172L6.74782 2.41764L6.71785 2.31683L6.62584 2.36776L6.66678 2.44172ZM5.83614 2.52378L5.86158 2.44315L5.77634 2.58353L5.83614 2.52378ZM6.43614 3.31283L6.50575 3.26484L6.50575 3.26484L6.43614 3.31283ZM5.21041 1.98312L5.191 2.0654L5.33931 2.1004L5.2905 1.95604L5.21041 1.98312ZM5.28131 1.21659L5.34979 1.26615L5.48784 1.0754L5.25999 1.13478L5.28131 1.21659ZM4.39483 1.89108L4.40061 1.80673L4.40061 1.80673L4.39483 1.89108ZM2.90215 2.32155C2.94851 2.00737 2.88172 1.71698 2.67247 1.4499L2.53937 1.55417C2.71866 1.78302 2.7748 2.02628 2.73488 2.29687L2.90215 2.32155ZM3.52529 1.50069C3.24826 1.74151 2.9176 2.02823 2.75004 2.25963L2.88699 2.3588C3.04039 2.14696 3.35254 1.87489 3.63622 1.6283L3.52529 1.50069ZM3.52098 1.50471L3.52098 1.50471L3.64054 1.62427L3.64054 1.62427L3.52098 1.50471ZM2.63859 1.58001C3.14338 1.36847 3.49333 1.23369 3.7248 1.15853C3.84092 1.12083 3.92423 1.09913 3.98096 1.0898C4.00946 1.08512 4.02808 1.08411 4.03917 1.08469C4.05236 1.08537 4.04542 1.08778 4.03383 1.07881C4.01572 1.06481 4.01126 1.04374 4.0124 1.03187C4.01302 1.0254 4.01458 1.02698 4.00716 1.03948C3.99302 1.06326 3.96322 1.09913 3.91601 1.14717C3.8231 1.24172 3.68261 1.36393 3.52529 1.50068L3.63622 1.62829C3.79142 1.49338 3.93794 1.3661 4.03661 1.26568C4.08519 1.21624 4.12732 1.16825 4.15251 1.12586C4.16475 1.10527 4.17783 1.07818 4.18072 1.04797C4.18412 1.01235 4.17269 0.972466 4.13728 0.945074C4.10838 0.922716 4.0738 0.917168 4.04791 0.915828C4.01994 0.91438 3.98806 0.917285 3.95354 0.922957C3.88423 0.934346 3.79142 0.959123 3.67258 0.99771C3.43415 1.07513 3.0789 1.21217 2.57324 1.42406L2.63859 1.58001ZM2.00869 2.59149C1.74356 2.64312 1.48677 2.47005 1.43514 2.20492L1.26917 2.23725C1.33866 2.59403 1.68422 2.82694 2.04101 2.75745L2.00869 2.59149ZM2.39525 2.01794C2.44689 2.28307 2.27382 2.53985 2.00869 2.59149L2.04101 2.75745C2.3978 2.68797 2.6307 2.3424 2.56122 1.98562L2.39525 2.01794ZM1.8217 1.63137C2.08683 1.57974 2.34362 1.75281 2.39525 2.01794L2.56122 1.98562C2.49173 1.62883 2.14617 1.39592 1.78938 1.46541L1.8217 1.63137ZM1.43514 2.20492C1.3835 1.9398 1.55657 1.68301 1.8217 1.63137L1.78938 1.46541C1.43259 1.53489 1.19968 1.88046 1.26917 2.23725L1.43514 2.20492ZM5.86844 5.39359C6.1863 5.38017 6.38549 5.47825 6.51403 5.64379L6.64758 5.54009C6.47897 5.32296 6.22235 5.20942 5.86131 5.22466L5.86844 5.39359ZM6.08116 4.23066C6.03982 4.42669 5.99544 4.63706 5.94658 4.82471C5.89716 5.01449 5.84526 5.17228 5.79133 5.26744L5.93843 5.35081C6.00435 5.2345 6.06071 5.05738 6.1102 4.86732C6.16025 4.67513 6.20545 4.46072 6.24661 4.26555L6.08116 4.23066ZM6.66524 5.58778C6.6321 4.91428 6.60025 4.44055 6.56829 4.12187C6.55232 3.96266 6.53618 3.84063 6.51954 3.75105C6.51122 3.70629 6.50254 3.66833 6.49328 3.63724C6.48438 3.60735 6.47349 3.5787 6.45877 3.55588C6.44607 3.53621 6.41475 3.49722 6.36033 3.49876C6.31031 3.50018 6.28062 3.53577 6.26887 3.55183C6.2419 3.58872 6.22075 3.64755 6.20262 3.708C6.16449 3.83517 6.1242 4.02657 6.08116 4.23066L6.24661 4.26555C6.29033 4.05821 6.32898 3.87529 6.36458 3.75657C6.38332 3.69408 6.39774 3.66206 6.40537 3.65162C6.41093 3.64402 6.3983 3.66683 6.36513 3.66777C6.32757 3.66884 6.31289 3.64167 6.3167 3.64756C6.31847 3.65031 6.32391 3.66094 6.33123 3.6855C6.33818 3.70886 6.3456 3.74052 6.3533 3.78195C6.36869 3.86476 6.38427 3.98146 6.40005 4.13874C6.43157 4.45303 6.46326 4.92329 6.49636 5.59609L6.66524 5.58778ZM2.16084 5.26921C1.86134 5.1637 1.56359 5.17369 1.26133 5.32802L1.33823 5.47861C1.59722 5.34637 1.8467 5.33781 2.10466 5.42868L2.16084 5.26921ZM1.43824 4.50281C1.54233 4.67371 1.65398 4.85708 1.76227 5.01823C1.86953 5.17785 1.9778 5.32233 2.07588 5.4115L2.18962 5.28639C2.108 5.21218 2.00942 5.08287 1.90261 4.92392C1.79682 4.7665 1.68719 4.5865 1.58265 4.41486L1.43824 4.50281ZM1.3817 5.38243C1.24032 4.82795 1.15558 4.4485 1.11454 4.20232C1.09394 4.07876 1.08495 3.99216 1.08456 3.93517C1.08436 3.90645 1.08641 3.88907 1.08857 3.87983C1.09129 3.8682 1.09152 3.88007 1.07592 3.89167C1.05415 3.90786 1.03191 3.9027 1.02666 3.90071C1.02407 3.89973 1.0287 3.90112 1.04132 3.91267C1.06557 3.93486 1.0989 3.9753 1.14075 4.03408C1.22347 4.15026 1.326 4.31852 1.43824 4.50281L1.58265 4.41486C1.4717 4.23268 1.36555 4.05829 1.27849 3.93601C1.23545 3.87557 1.19361 3.82283 1.15546 3.78792C1.13689 3.77093 1.11351 3.75279 1.08649 3.74257C1.05681 3.73134 1.01371 3.72722 0.975033 3.75598C0.942528 3.78015 0.929814 3.81612 0.923915 3.84138C0.91746 3.86903 0.915235 3.90133 0.915475 3.93634C0.915959 4.0068 0.926704 4.10383 0.94776 4.23013C0.990028 4.48367 1.07625 4.86883 1.21786 5.42421L1.3817 5.38243ZM1.766 6.85599C2.12949 6.85599 2.42416 6.56132 2.42416 6.19783H2.25508C2.25508 6.46794 2.03611 6.6869 1.766 6.6869V6.85599ZM1.10785 6.19783C1.10785 6.56132 1.40251 6.85599 1.766 6.85599V6.6869C1.4959 6.6869 1.27693 6.46794 1.27693 6.19783H1.10785ZM1.766 5.53967C1.40251 5.53967 1.10785 5.83434 1.10785 6.19783H1.27693C1.27693 5.92772 1.4959 5.70875 1.766 5.70875V5.53967ZM2.42416 6.19783C2.42416 5.83434 2.12949 5.53967 1.766 5.53967V5.70875C2.03611 5.70875 2.25508 5.92772 2.25508 6.19783H2.42416ZM2.57735 6.78507C2.76339 6.58269 2.83277 6.31079 2.75777 5.95728L2.59237 5.99237C2.6584 6.30358 2.59474 6.51631 2.45287 6.67064L2.57735 6.78507ZM3.78026 6.20258C3.98387 6.21482 4.15928 6.22544 4.2716 6.24247C4.29926 6.24667 4.32139 6.25101 4.33817 6.25541C4.34649 6.25759 4.35278 6.2596 4.35734 6.26132C4.36208 6.26311 4.36364 6.2641 4.36319 6.26382C4.36309 6.26376 4.35768 6.26056 4.35186 6.25272C4.34519 6.24375 4.33873 6.22948 4.33921 6.21172C4.34006 6.17997 4.36115 6.16788 4.35243 6.17475C4.33973 6.18476 4.30112 6.20464 4.21776 6.23338C4.13801 6.26087 4.02634 6.29359 3.87667 6.33254C3.57755 6.41039 3.13202 6.51182 2.49773 6.64512L2.5325 6.81059C3.16742 6.67716 3.61614 6.57507 3.91926 6.49617C4.07071 6.45675 4.18715 6.42278 4.27287 6.39323C4.35498 6.36492 4.41922 6.33739 4.45707 6.30756C4.47363 6.29451 4.50694 6.2644 4.50823 6.21627C4.5097 6.1617 4.47057 6.13132 4.45156 6.11966C4.43005 6.10648 4.40442 6.09798 4.38102 6.09185C4.35634 6.08538 4.32782 6.07998 4.29695 6.0753C4.17515 6.05683 3.99028 6.04581 3.7904 6.0338L3.78026 6.20258ZM2.64618 6.05428C2.78272 6.10393 2.97181 6.13471 3.17002 6.15624C3.3698 6.17794 3.58631 6.19093 3.78026 6.20258L3.7904 6.0338C3.59563 6.0221 3.38329 6.00933 3.18828 5.98815C2.99168 5.96679 2.82 5.93757 2.70396 5.89537L2.64618 6.05428ZM6.60816 6.15487C6.59125 5.79177 6.2832 5.51113 5.9201 5.52804L5.92796 5.69694C6.19778 5.68437 6.42669 5.89292 6.43926 6.16273L6.60816 6.15487ZM5.98132 6.84293C6.34442 6.82602 6.62507 6.51797 6.60816 6.15487L6.43926 6.16273C6.45182 6.43255 6.24328 6.66147 5.97346 6.67403L5.98132 6.84293ZM5.29326 6.21609C5.31017 6.57919 5.61823 6.85984 5.98132 6.84293L5.97346 6.67403C5.70364 6.68659 5.47473 6.47805 5.46217 6.20823L5.29326 6.21609ZM5.9201 5.52804C5.557 5.54494 5.27636 5.853 5.29326 6.21609L5.46217 6.20823C5.4496 5.93841 5.65815 5.7095 5.92796 5.69694L5.9201 5.52804ZM5.28542 6.70442C5.14128 6.45191 5.1211 6.20314 5.19997 5.9412L5.03806 5.89246C4.94649 6.1966 4.97035 6.49354 5.13858 6.78824L5.28542 6.70442ZM4.11499 6.56608C3.94811 6.67352 3.79413 6.77256 3.69275 6.85055C3.64358 6.88838 3.59875 6.92716 3.57241 6.96389C3.56004 6.98114 3.54238 7.01048 3.54259 7.04701C3.54285 7.09398 3.57125 7.12669 3.60243 7.14349C3.62866 7.15761 3.6588 7.16233 3.6847 7.16412C3.71241 7.16604 3.74487 7.16512 3.7815 7.16203C3.85485 7.15585 3.95317 7.14023 4.07939 7.11476C4.33231 7.06372 4.7061 6.97125 5.23415 6.82792L5.18986 6.66474C4.66256 6.80786 4.29317 6.89912 4.04594 6.94902C3.9221 6.97401 3.83112 6.98817 3.7673 6.99354C3.73534 6.99624 3.71225 6.99654 3.69636 6.99544C3.67865 6.99422 3.67714 6.99168 3.6826 6.99462C3.69301 7.00022 3.71151 7.01781 3.71167 7.04605C3.71177 7.06384 3.70379 7.07083 3.70982 7.06242C3.72029 7.04782 3.74713 7.02205 3.79584 6.98457C3.89023 6.91196 4.03693 6.81743 4.20652 6.70825L4.11499 6.56608ZM5.05494 5.86168C4.96196 5.96969 4.81478 6.08991 4.64401 6.2127C4.47426 6.33476 4.28647 6.45568 4.11499 6.56608L4.20652 6.70825C4.3773 6.59829 4.56882 6.47502 4.74272 6.34998C4.91561 6.22567 5.07643 6.0959 5.18309 5.97198L5.05494 5.86168ZM1.35788 2.87908C1.55631 3.0693 1.8267 3.14444 2.18167 3.07689L2.15006 2.91079C1.8376 2.97025 1.62623 2.9021 1.47488 2.75702L1.35788 2.87908ZM1.9053 4.03948C1.88515 4.23959 1.86762 4.41273 1.84594 4.52437C1.8406 4.55186 1.8353 4.57399 1.83013 4.59092C1.82756 4.59933 1.82522 4.6058 1.8232 4.61061C1.82221 4.61298 1.82138 4.61475 1.82073 4.616C1.82008 4.61727 1.81973 4.61781 1.81975 4.61779C1.81975 4.61778 1.82032 4.6169 1.82157 4.61548C1.82281 4.61406 1.82505 4.61174 1.82846 4.60917C1.83567 4.60373 1.8481 4.59731 1.86464 4.59679C1.89713 4.59577 1.91091 4.61701 1.90586 4.6108C1.89767 4.60073 1.87936 4.56563 1.85314 4.48452C1.82826 4.40751 1.79922 4.29906 1.76525 4.15304C1.69736 3.86124 1.61107 3.42529 1.4996 2.80314L1.33316 2.83296C1.44476 3.45579 1.53166 3.8952 1.60057 4.19135C1.63499 4.33931 1.66526 4.45298 1.69225 4.53652C1.71793 4.61597 1.74409 4.67985 1.77465 4.71745C1.78899 4.73508 1.82071 4.76734 1.86993 4.76579C1.92072 4.7642 1.94962 4.72826 1.96155 4.70989C1.9862 4.67194 2.00089 4.61341 2.01192 4.55661C2.03545 4.43546 2.05375 4.25283 2.07353 4.05642L1.9053 4.03948ZM2.08704 2.96329C2.03593 3.09514 2.00006 3.27426 1.97233 3.46198C1.9444 3.65101 1.92384 3.85527 1.9053 4.03948L2.07353 4.05642C2.09216 3.87143 2.11234 3.67116 2.13959 3.4867C2.16704 3.30093 2.20081 3.1376 2.24469 3.0244L2.08704 2.96329ZM5.96384 1.03241C5.60283 1.07482 5.34456 1.40186 5.38698 1.76287L5.55491 1.74314C5.52339 1.47488 5.71531 1.23186 5.98357 1.20034L5.96384 1.03241ZM6.6943 1.60928C6.65189 1.24827 6.32485 0.989996 5.96384 1.03241L5.98357 1.20034C6.25184 1.16882 6.49486 1.36074 6.52637 1.62901L6.6943 1.60928ZM6.11744 2.33974C6.47845 2.29732 6.73672 1.97028 6.6943 1.60928L6.52637 1.62901C6.55789 1.89727 6.36597 2.14029 6.09771 2.17181L6.11744 2.33974ZM5.38698 1.76287C5.42939 2.12388 5.75643 2.38215 6.11744 2.33974L6.09771 2.17181C5.82944 2.20333 5.58642 2.01141 5.55491 1.74314L5.38698 1.76287ZM6.62584 2.36776C6.37145 2.50856 6.12239 2.52544 5.86158 2.44315L5.81071 2.6044C6.11355 2.69995 6.41082 2.68002 6.70772 2.51569L6.62584 2.36776ZM6.36654 3.36082C6.48856 3.53779 6.60563 3.70769 6.70179 3.82784C6.74946 3.88741 6.79532 3.93905 6.83659 3.9736C6.85693 3.99062 6.88072 4.00743 6.90679 4.01748C6.93327 4.02769 6.97334 4.03476 7.01288 4.01271C7.05037 3.99179 7.06679 3.95584 7.07438 3.92904C7.08228 3.90115 7.08479 3.86909 7.08452 3.83563C7.084 3.76814 7.07185 3.67551 7.04843 3.55572C7.00137 3.31493 6.90541 2.94789 6.74782 2.41764L6.58574 2.46581C6.74305 2.99512 6.83706 3.35572 6.88249 3.58815C6.90532 3.70497 6.91504 3.78535 6.91545 3.83695C6.91565 3.86303 6.91338 3.87703 6.9117 3.88294C6.90972 3.88993 6.91176 3.8755 6.93049 3.86505C6.94 3.85974 6.9496 3.85803 6.95706 3.85812C6.96053 3.85817 6.9632 3.85859 6.9649 3.85896C6.96658 3.85932 6.96751 3.85968 6.9676 3.85971C6.96761 3.85972 6.96558 3.8589 6.96131 3.85614C6.95715 3.85345 6.95177 3.8495 6.94512 3.84394C6.91728 3.82064 6.87997 3.77988 6.8338 3.7222C6.74229 3.60784 6.62912 3.44378 6.50575 3.26484L6.36654 3.36082ZM5.77634 2.58353C5.9502 2.75754 6.16494 3.06841 6.36654 3.36082L6.50575 3.26484C6.308 2.97803 6.08331 2.65154 5.89595 2.46402L5.77634 2.58353ZM5.2905 1.95604C5.18859 1.65462 5.22693 1.43593 5.34979 1.26615L5.21282 1.16702C5.05166 1.38971 5.01458 1.66786 5.13033 2.0102L5.2905 1.95604ZM4.38904 1.97542C4.67745 1.9952 4.98358 2.01646 5.191 2.0654L5.22983 1.90084C5.00582 1.84798 4.68352 1.82614 4.40061 1.80673L4.38904 1.97542ZM5.25999 1.13478C4.70108 1.28043 4.31508 1.39269 4.06306 1.48016C3.93733 1.5238 3.8424 1.56214 3.77519 1.59637C3.74164 1.61345 3.71276 1.63064 3.68972 1.64832C3.66809 1.66492 3.64422 1.68747 3.63077 1.71751C3.61449 1.75386 3.61659 1.79488 3.63966 1.82946C3.65842 1.85759 3.68626 1.87408 3.70749 1.8841C3.75125 1.90475 3.81214 1.91822 3.87692 1.92848C4.00947 1.94947 4.19562 1.96216 4.38904 1.97542L4.40061 1.80673C4.204 1.79325 4.02674 1.78101 3.90337 1.76148C3.84019 1.75147 3.79998 1.74078 3.77964 1.73118C3.76881 1.72607 3.77384 1.72592 3.78031 1.73562C3.79108 1.75176 3.79138 1.77255 3.78509 1.78661C3.78162 1.79436 3.7795 1.79255 3.79266 1.78246C3.80441 1.77344 3.82335 1.76159 3.85193 1.74704C3.90897 1.71798 3.99548 1.6826 4.1185 1.6399C4.36398 1.55469 4.74471 1.44379 5.30263 1.2984L5.25999 1.13478Z" fill="white"/>
</svg>
