<svg width="185" height="79" viewBox="0 0 185 79" fill="none" xmlns="http://www.w3.org/2000/svg">
<path d="M110.555 26.8929C106.51 26.8929 103.498 28.8788 103.498 33.6584C103.498 37.2594 105.483 39.7598 110.337 39.7598C114.451 39.7598 117.245 37.3353 117.245 33.5088C117.245 29.1729 114.745 26.8929 110.555 26.8929ZM102.468 60.6417C101.511 61.816 100.557 63.0647 100.557 64.5368C100.557 67.4758 104.305 68.3604 109.453 68.3604C113.716 68.3604 119.525 68.0612 119.525 64.0967C119.525 61.7401 116.731 61.5949 113.2 61.3737L102.468 60.6417ZM124.23 27.1148C125.551 28.8058 126.95 31.1595 126.95 34.5408C126.95 42.701 120.554 47.4792 111.292 47.4792C108.937 47.4792 106.805 47.1858 105.483 46.8187L103.056 50.7138L110.26 51.1547C122.98 51.9655 130.476 52.334 130.476 62.108C130.476 70.5645 123.053 75.3405 110.26 75.3405C96.9537 75.3405 91.8807 71.9585 91.8807 66.1512C91.8807 62.8429 93.3513 61.0818 95.9247 58.6515C93.498 57.626 92.6901 55.789 92.6901 53.8025C92.6901 52.1837 93.498 50.7146 94.8233 49.3162C96.1458 47.9215 97.6157 46.5231 99.3804 44.9058C95.7787 43.1411 93.0572 39.3183 93.0572 33.8767C93.0572 25.4237 98.6455 19.6179 109.891 19.6179C113.054 19.6179 114.966 19.9084 116.657 20.3529H130.994V26.5995L124.23 27.1148ZM143.929 13.755C139.737 13.755 137.311 11.3269 137.311 7.13477C137.311 2.94842 139.736 0.666992 143.929 0.666992C148.192 0.666992 150.619 2.94842 150.619 7.13477C150.619 11.3269 148.193 13.755 143.929 13.755ZM134.443 57.9361V52.131L138.194 51.6179C139.223 51.4697 139.369 51.25 139.369 50.1451V28.5304C139.369 27.724 139.15 27.2065 138.412 26.9883L134.443 25.59L135.251 19.6367H150.471V50.1451C150.471 51.323 150.542 51.4697 151.648 51.6186L155.397 52.1317V57.9361H134.443ZM184.47 55.0859C181.308 56.6288 176.676 58.0257 172.484 58.0257C163.736 58.0257 160.429 54.5005 160.429 46.1886V26.929C160.429 26.4882 160.429 26.1941 159.839 26.1941H154.693V19.649C161.165 18.9119 163.736 15.6773 164.544 7.66375H171.53V18.1061C171.53 18.6192 171.53 18.8411 172.119 18.8411H182.484V26.1927H171.53V43.7626C171.53 48.1 172.56 49.7896 176.528 49.7896C178.589 49.7896 180.719 49.2765 182.483 48.6145L184.47 55.0859Z" fill="#2F2707"/>
<path d="M75.5385 35.793L41.9235 2.18007C41.4631 1.71957 40.9165 1.35428 40.315 1.10505C39.7134 0.855817 39.0686 0.727539 38.4175 0.727539C37.7663 0.727539 37.1216 0.855817 36.52 1.10505C35.9185 1.35428 35.3719 1.71957 34.9115 2.18007L27.9314 9.16093L36.7861 18.0149C37.8269 17.6609 38.9461 17.6055 40.0168 17.855C41.0875 18.1044 42.0669 18.6487 42.8441 19.4263C43.6255 20.2087 44.1711 21.1951 44.4185 22.2729C44.6659 23.3507 44.6051 24.4763 44.2432 25.5212L52.7756 34.055C54.8402 33.3439 57.2228 33.8042 58.8712 35.4555C59.4192 36.0032 59.854 36.6535 60.1506 37.3693C60.4472 38.085 60.5999 38.8522 60.5999 39.627C60.5999 40.4018 60.4472 41.169 60.1506 41.8848C59.854 42.6006 59.4192 43.2509 58.8712 43.7986C57.907 44.7637 56.6381 45.3648 55.2806 45.4996C53.9231 45.6345 52.5608 45.2947 51.4256 44.5381C50.2904 43.7815 49.4524 42.6549 49.0544 41.3501C48.6564 40.0452 48.7229 38.6427 49.2425 37.3814L41.2846 29.4235L41.2839 50.3661C41.8608 50.6513 42.3877 51.0281 42.8441 51.4819C43.3921 52.0297 43.8268 52.6802 44.1234 53.396C44.42 54.1119 44.5726 54.8792 44.5726 55.6541C44.5726 56.429 44.42 57.1963 44.1234 57.9122C43.8268 58.6281 43.3921 59.2785 42.8441 59.8264C40.5388 62.1316 36.8027 62.1316 34.5011 59.8264C33.8134 59.1392 33.3062 58.2929 33.0246 57.3625C32.7429 56.4321 32.6956 55.4465 32.8866 54.4934C33.0777 53.5402 33.5014 52.6491 34.1199 51.8992C34.7384 51.1492 35.5326 50.5638 36.432 50.1948V29.0571C35.7085 28.7617 35.0518 28.3237 34.5011 27.7693C32.7551 26.0256 32.3353 23.4637 33.2299 21.3196L24.5017 12.5899L1.45326 35.6369C0.992695 36.0974 0.627351 36.6442 0.378093 37.2459C0.128834 37.8477 0.000541687 38.4926 0.000541687 39.1439C0.000541687 39.7953 0.128834 40.4402 0.378093 41.042C0.627351 41.6437 0.992695 42.1904 1.45326 42.651L35.0683 76.2646C35.9983 77.1943 37.2594 77.7166 38.5743 77.7166C39.8892 77.7166 41.1503 77.1943 42.0803 76.2646L75.5385 42.8078C76.4684 41.8774 76.9907 40.6158 76.9907 39.3004C76.9907 37.985 76.4684 36.7234 75.5385 35.793Z" fill="#DE4C36"/>
</svg>
