<svg width="620" height="434" viewBox="0 0 620 434" fill="none" xmlns="http://www.w3.org/2000/svg">
<path d="M360.918 358.923V359.653C360.918 361.48 360.37 361.663 360.005 362.759C359.457 364.037 359.639 365.681 360.37 366.778C360.37 366.96 360.553 367.143 360.553 367.143C359.822 362.028 364.023 361.115 364.937 359.653C364.937 358.192 363.841 357.279 362.927 356.731C362.014 356.183 361.283 356 360.553 356C360.005 356 359.457 356.183 358.909 356.365C360.005 357.096 360.553 358.009 360.918 358.923Z" fill="#545454"/>
<path d="M381.925 371.71V372.44C381.925 372.988 381.742 373.354 381.742 373.719C381.56 374.084 381.56 374.632 381.377 374.998C381.194 375.363 381.012 375.911 380.829 376.276C380.646 376.642 380.464 377.19 380.281 377.555C380.098 377.92 379.733 378.286 379.55 378.651C379.368 379.016 379.002 379.382 378.637 379.747C378.272 380.112 378.089 380.478 377.724 380.843L377.176 381.391C376.993 381.574 376.81 381.574 376.628 381.757C376.262 382.122 375.897 382.305 375.532 382.487C375.166 382.67 374.801 383.035 374.253 383.218C373.888 383.401 373.34 383.583 372.974 383.766C372.609 383.949 372.061 384.131 371.696 384.131C371.33 384.314 370.782 384.314 370.417 384.497C369.869 384.497 369.504 384.679 368.956 384.679H366.581C366.033 384.679 365.667 384.497 365.119 384.497C364.571 384.497 364.206 384.314 363.841 384.131C364.206 384.131 364.754 384.131 365.119 383.949C365.667 383.949 366.033 383.766 366.398 383.583C366.763 383.401 367.311 383.401 367.677 383.218C368.042 383.035 368.59 382.853 368.956 382.67C369.321 382.487 369.686 382.305 370.234 381.939C370.6 381.757 370.965 381.391 371.33 381.209C371.696 380.843 372.061 380.66 372.426 380.295L373.34 379.382C373.705 379.016 373.888 378.651 374.253 378.286C374.253 378.286 374.253 378.103 374.436 378.103C374.618 377.738 374.801 377.372 374.984 377.19C375.166 376.824 375.349 376.459 375.532 375.911C375.714 375.546 375.897 374.998 376.08 374.632C376.262 374.267 376.262 373.719 376.445 373.354C376.445 372.806 376.628 372.44 376.628 372.075V369.7C376.628 369.152 376.445 368.787 376.445 368.422C376.445 367.874 376.262 367.508 376.08 367.143C375.897 366.778 375.714 366.23 375.714 365.864C375.532 365.499 375.349 364.951 375.166 364.586C374.984 364.22 374.801 363.855 374.436 363.307C374.253 362.942 373.888 362.576 373.705 362.211C373.34 361.845 373.157 361.48 372.792 361.115L372.244 360.567C371.33 359.836 370.417 359.105 369.321 358.557C369.138 358.557 369.138 358.375 368.956 358.375C368.225 358.009 367.677 357.644 366.946 357.461V358.557C366.946 358.74 366.946 358.923 366.763 359.105C366.763 359.288 366.581 359.471 366.581 359.653C366.581 359.836 366.398 360.019 366.398 360.201L366.215 360.384C366.215 360.384 366.215 360.567 366.033 360.567C365.85 360.749 365.85 360.932 365.667 360.932L365.302 361.297L364.937 361.663C364.571 362.028 364.023 362.211 363.658 362.576C363.475 362.759 363.293 362.759 363.293 362.942L362.927 363.307L362.562 363.672L362.197 364.038C362.014 364.22 362.014 364.403 361.831 364.403C361.831 364.586 361.649 364.768 361.649 364.951C361.649 365.134 361.466 365.316 361.466 365.499C361.466 365.682 361.283 365.864 361.283 366.047V367.874C361.283 368.056 361.283 368.239 361.466 368.422C361.466 368.604 361.649 368.787 361.649 368.97C361.649 369.152 361.831 369.152 361.831 369.335L357.082 367.508C356.351 367.326 355.438 367.143 354.707 366.96C354.342 366.778 353.794 366.778 353.429 366.595C352.15 366.412 350.871 366.23 349.775 366.047H349.593C348.314 365.864 347.218 365.864 345.939 365.864C345.026 365.864 344.112 365.864 343.199 366.047C341.92 366.047 340.642 366.23 339.546 366.412C339.18 366.412 338.998 366.595 338.632 366.595C338.084 366.778 337.354 366.778 336.806 366.96C336.44 366.96 336.258 367.143 335.892 367.143C335.527 367.326 335.344 367.326 334.979 367.508C334.796 367.691 334.614 367.691 334.248 367.874H334.066C333.883 368.056 333.7 368.056 333.518 368.239H333.335C333.152 368.422 332.97 368.422 332.787 368.604C332.604 368.604 332.422 368.787 332.422 368.787C332.422 368.787 332.239 368.787 332.239 368.97C332.056 369.152 331.874 369.152 331.691 369.335C331.508 369.518 331.326 369.518 331.143 369.7C330.96 369.883 330.778 369.883 330.778 370.066C330.595 370.066 330.595 370.248 330.412 370.431C330.23 370.431 330.23 370.614 330.047 370.614H329.864C329.681 370.614 329.681 370.796 329.499 370.796L329.133 371.162L328.768 371.527C328.585 371.162 328.585 371.162 328.403 371.344C328.403 371.344 328.22 371.344 328.22 371.527L327.855 371.892V372.075L327.307 372.623C326.941 372.988 326.576 373.354 326.211 373.536C325.845 373.902 325.48 374.084 325.115 374.45C324.749 374.815 324.384 374.998 323.836 375.18C323.471 375.363 323.105 375.546 322.557 375.728C322.192 375.911 321.644 376.094 321.279 376.276C320.365 376.459 319.452 376.824 318.721 376.824H318.173C317.991 376.824 317.808 376.824 317.625 377.007C317.625 377.19 317.443 377.19 317.26 377.19C317.077 377.19 316.895 377.372 316.712 377.372C316.529 377.555 316.347 377.555 316.347 377.738C316.164 377.92 315.981 377.92 315.981 378.103C315.799 378.286 315.616 378.286 315.616 378.468L315.251 378.834C315.068 379.016 315.068 379.199 314.885 379.382C314.703 379.564 314.703 379.747 314.52 379.93C314.52 380.112 314.337 380.295 314.337 380.478C314.337 380.66 314.155 380.843 314.155 381.026C314.155 381.208 314.155 381.391 313.972 381.574V383.035C313.972 383.218 313.972 383.218 314.155 383.401C314.155 383.583 314.337 383.583 314.337 383.766C314.337 383.949 314.52 383.949 314.52 384.131L314.885 384.497L315.251 384.862C315.799 385.227 315.799 385.41 316.529 385.775C316.712 385.775 316.712 385.958 316.895 385.958V386.141C316.895 386.323 316.895 386.506 317.077 386.689C317.077 386.871 317.26 387.054 317.26 387.237C317.26 387.419 317.443 387.419 317.443 387.602V387.785C317.443 387.967 317.625 388.15 317.625 388.15C317.808 388.333 317.808 388.515 317.991 388.515L318.356 388.881L318.721 389.246L319.087 389.611C319.269 389.794 319.452 389.794 319.452 389.794C319.635 389.794 319.817 389.977 320 389.977H320.731V392.534C321.279 393.082 322.192 391.803 323.105 390.342C322.923 391.803 322.923 393.447 323.105 393.813C323.288 394.361 324.567 392.717 325.663 390.89C340.094 387.602 353.429 397.466 354.707 411.714C354.525 409.522 351.785 408.244 350.506 408.609C349.958 410.07 348.862 412.08 347.218 413.176C347.4 411.897 347.218 410.436 347.035 409.157C346.67 410.984 345.756 412.81 344.478 414.272C342.468 414.454 340.642 413.541 339.546 412.08L339.363 411.897C339.363 411.714 339.18 411.532 339.18 411.532C339.18 411.349 338.998 411.166 338.998 411.166V410.436C338.998 410.253 338.998 410.07 339.18 410.07C339.18 409.888 339.18 409.705 339.363 409.705C339.363 409.522 339.546 409.34 339.546 409.34C339.911 408.426 339.911 407.513 339.18 407.148C338.998 407.148 338.998 406.965 338.815 406.965H338.45C338.267 406.965 338.084 406.965 338.084 406.782H336.258C336.075 406.782 335.892 406.782 335.892 406.965C335.71 406.965 335.71 407.148 335.527 407.148C335.344 407.148 335.344 407.33 335.162 407.33C329.864 410.07 332.787 417.377 335.892 419.386C334.614 419.569 333.335 419.934 333.152 420.117C334.066 420.665 334.979 421.031 335.892 421.396C337.171 421.761 338.632 422.127 339.18 422.309C340.824 422.675 342.651 422.857 344.295 422.675C353.429 422.127 360.735 415.185 362.197 406.052C362.197 406.234 362.197 406.417 362.379 406.6C362.379 406.965 362.562 407.33 362.562 407.696V413.358C362.562 413.541 362.562 413.724 362.379 413.906C362.379 414.089 362.379 414.272 362.197 414.454C362.197 414.637 362.197 414.82 362.014 415.002C362.014 415.185 361.831 415.368 361.831 415.55C361.831 415.733 361.649 415.916 361.649 416.098C361.649 416.281 361.466 416.464 361.466 416.646C361.466 416.829 361.283 417.012 361.283 417.194C361.283 417.377 361.101 417.56 361.101 417.742C361.101 417.925 360.918 418.108 360.918 418.29V418.473C359.639 421.213 357.63 423.588 355.255 425.415C355.073 425.597 354.89 425.597 354.707 425.78C354.707 425.78 354.525 425.78 354.525 425.963C354.342 426.145 354.159 426.145 354.159 426.328V426.511C354.525 426.511 354.707 426.511 355.073 426.328C355.621 426.328 356.169 426.145 356.717 425.963C356.899 425.963 357.082 425.963 357.082 425.78H357.813C357.995 425.78 357.995 425.78 358.178 425.597C360.187 425.049 362.197 424.501 364.023 423.588C360.735 427.972 356.351 431.625 351.419 434C353.794 433.817 356.169 433.452 358.361 432.721C366.581 430.347 373.522 424.684 377.724 417.377C376.81 422.127 374.984 426.511 372.244 430.529C374.253 429.251 376.08 427.789 377.724 425.963C382.29 421.213 385.213 415.185 386.309 408.609C387.04 411.897 387.222 415.185 386.857 418.473C401.105 398.745 387.588 377.372 381.925 371.71ZM451.34 408.244C452.07 389.429 450.609 387.785 450.609 387.785C442.389 374.45 428.871 387.785 428.871 387.785V380.112H426.862C424.122 385.045 416.267 385.958 416.267 385.958V387.967C421.382 389.063 420.834 391.438 420.834 391.438C420.834 391.438 421.016 403.677 421.016 407.513C421.016 411.349 419.738 410.618 419.738 410.618L416.267 411.349V413.541C419.92 412.445 432.89 413.541 432.89 413.541L433.073 411.349C429.237 410.801 428.871 408.426 428.871 408.426V390.342C432.342 387.237 435.63 386.141 435.63 386.141C442.389 384.497 442.937 391.073 442.937 391.073L443.119 407.696C444.398 412.08 438.005 411.349 438.005 411.349L438.187 413.541L448.234 412.81L454.993 413.541V411.349C451.705 410.801 451.522 410.801 451.34 408.244ZM475.087 381.209C460.473 381.209 459.742 394.361 459.742 394.361C459.742 394.361 457.185 414.272 475.087 414.272C486.595 414.272 490.066 407.696 490.066 407.696L487.874 405.686C487.874 405.686 470.703 418.108 468.511 394.543H490.248C490.066 394.361 489.7 381.209 475.087 381.209ZM481.845 391.986H468.328V391.073C468.328 387.237 471.433 383.949 475.452 383.949C478.923 383.949 481.845 386.871 481.845 390.342V391.986ZM513.813 394.909C508.881 393.995 505.593 392.717 505.593 392.717C505.593 392.717 497.92 389.611 504.679 385.045C512.169 381.208 516.553 392.169 516.553 392.169C516.553 392.169 518.197 392.534 519.293 391.621C519.658 390.525 518.379 383.949 518.379 383.949C518.379 383.949 516.005 381.026 504.131 381.939C504.131 381.939 497.738 383.401 496.642 389.429C495.546 395.457 499.382 398.745 499.382 398.745C499.382 398.745 501.026 401.12 506.689 401.668C511.621 402.216 513.813 404.225 513.813 404.225C513.813 404.225 516.37 406.6 513.63 409.522C510.89 412.445 507.237 411.349 507.237 411.349C507.237 411.349 503.035 411.532 498.103 402.946L495.728 403.129L496.642 411.714C496.642 411.714 508.333 418.29 517.283 411.714C526.417 403.494 518.745 395.822 513.813 394.909ZM546.145 407.513C540.482 412.262 539.386 406.6 539.386 406.6V387.237H547.059V383.583H539.752V375.728H537.377C534.089 382.67 526.782 385.045 526.782 385.045V386.506C526.782 387.419 527.513 387.419 527.513 387.419H531.166C531.166 387.419 530.801 401.485 530.984 406.417C531.166 411.349 534.637 412.81 534.637 412.81C534.637 412.81 537.012 414.089 540.848 413.724C544.684 413.358 547.424 409.522 547.424 409.522L546.145 407.513Z" fill="#545454"/>
<g clip-path="url(#clip0_91_69)">
<path d="M176.794 374.018V380.792H162.233V416.434H154.952V380.793H140.088V374.018H176.794ZM178.43 412.394C178.943 412.394 179.392 412.578 179.772 412.948C180.157 413.317 180.349 413.76 180.354 414.275C180.353 414.613 180.259 414.944 180.083 415.233C179.909 415.517 179.667 415.753 179.377 415.918C179.091 416.089 178.764 416.178 178.43 416.176C177.897 416.176 177.444 415.991 177.064 415.622C176.684 415.252 176.496 414.805 176.501 414.275C176.496 413.76 176.684 413.317 177.064 412.948C177.444 412.578 177.897 412.394 178.43 412.394ZM34.127 416.434L7.28095 383.066V416.417H0V374H9.10056L43.0177 416.117L43.0181 380.793L43.0152 374.018H79.7204V380.792H50.2986V391.691H73.9598V398.466H50.2986V409.66H79.7208V416.434H34.127ZM103.055 398.402L107.826 404.334L98.0491 416.485H88.4941L103.055 398.402ZM98.0491 374.035L110.368 389.334L122.648 374.082L132.176 374.068L115.138 395.258L132.204 416.452H122.648L88.5213 374.035H98.0491ZM190.857 398.307H194.083V410.736C194.078 411.879 193.831 412.855 193.348 413.677C192.859 414.498 192.183 415.126 191.316 415.568C190.452 416.005 189.441 416.229 188.291 416.229C187.24 416.229 186.299 416.04 185.46 415.67C184.621 415.301 183.956 414.747 183.467 414.017C182.973 413.288 182.732 412.379 182.732 411.29H185.963C185.968 411.767 186.077 412.179 186.284 412.525C186.487 412.866 186.786 413.141 187.142 413.317C187.512 413.502 187.936 413.595 188.414 413.595C188.933 413.595 189.377 413.487 189.737 413.269C190.096 413.055 190.373 412.734 190.566 412.306C190.753 411.883 190.852 411.358 190.857 410.736V398.307ZM207.357 403.167C207.279 402.414 206.933 401.826 206.331 401.408C205.724 400.985 204.94 400.776 203.978 400.776C203.303 400.776 202.721 400.878 202.237 401.077C201.754 401.282 201.379 401.554 201.122 401.899C200.866 402.244 200.738 402.638 200.727 403.08C200.727 403.449 200.816 403.77 200.989 404.038C201.168 404.318 201.409 404.552 201.694 404.723C202.004 404.918 202.335 405.076 202.681 405.194C203.046 405.321 203.411 405.428 203.776 405.516L205.458 405.929C206.134 406.084 206.79 406.293 207.417 406.561C208.043 406.823 208.61 407.159 209.108 407.562C209.607 407.965 210.002 408.451 210.293 409.02C210.584 409.589 210.732 410.255 210.732 411.023C210.732 412.058 210.465 412.967 209.927 413.755C209.39 414.537 208.615 415.15 207.599 415.592C206.588 416.03 205.364 416.253 203.924 416.253C202.533 416.253 201.32 416.039 200.298 415.612C199.272 415.189 198.473 414.566 197.896 413.75C197.319 412.933 197.008 411.937 196.963 410.765H200.161C200.205 411.378 200.402 411.888 200.738 412.301C201.078 412.71 201.522 413.011 202.065 413.215C202.612 413.415 203.224 413.517 203.899 413.517C204.605 413.517 205.226 413.41 205.764 413.201C206.297 412.992 206.716 412.7 207.017 412.321C207.323 411.946 207.476 411.504 207.481 410.999C207.476 410.537 207.337 410.153 207.071 409.851C206.8 409.55 206.425 409.297 205.946 409.093C205.463 408.889 204.901 408.704 204.26 408.544L202.217 408.029C200.742 407.654 199.573 407.086 198.72 406.322C197.861 405.559 197.437 404.548 197.437 403.279C197.437 402.239 197.723 401.325 198.301 400.542C198.873 399.76 199.657 399.152 200.649 398.72C201.645 398.282 202.77 398.068 204.022 398.068C205.296 398.068 206.41 398.282 207.372 398.72C208.334 399.152 209.089 399.755 209.636 400.523C210.184 401.291 210.47 402.171 210.485 403.167H207.357Z" fill="black"/>
</g>
<path d="M745.555 240.893C741.51 240.893 738.498 242.879 738.498 247.658C738.498 251.259 740.483 253.76 745.337 253.76C749.451 253.76 752.245 251.335 752.245 247.509C752.245 243.173 749.745 240.893 745.555 240.893ZM737.468 274.642C736.511 275.816 735.557 277.065 735.557 278.537C735.557 281.476 739.305 282.36 744.453 282.36C748.716 282.36 754.525 282.061 754.525 278.097C754.525 275.74 751.731 275.595 748.2 275.374L737.468 274.642ZM759.23 241.115C760.551 242.806 761.95 245.159 761.95 248.541C761.95 256.701 755.554 261.479 746.292 261.479C743.937 261.479 741.805 261.186 740.483 260.819L738.056 264.714L745.26 265.155C757.98 265.965 765.476 266.334 765.476 276.108C765.476 284.564 758.053 289.341 745.26 289.341C731.954 289.341 726.881 285.958 726.881 280.151C726.881 276.843 728.351 275.082 730.925 272.651C728.498 271.626 727.69 269.789 727.69 267.802C727.69 266.184 728.498 264.715 729.823 263.316C731.146 261.921 732.616 260.523 734.38 258.906C730.779 257.141 728.057 253.318 728.057 247.877C728.057 239.424 733.645 233.618 744.891 233.618C748.054 233.618 749.966 233.908 751.657 234.353H765.994V240.6L759.23 241.115ZM778.929 227.755C774.737 227.755 772.311 225.327 772.311 221.135C772.311 216.948 774.736 214.667 778.929 214.667C783.192 214.667 785.619 216.948 785.619 221.135C785.619 225.327 783.193 227.755 778.929 227.755ZM769.443 271.936V266.131L773.194 265.618C774.223 265.47 774.369 265.25 774.369 264.145V242.53C774.369 241.724 774.15 241.207 773.412 240.988L769.443 239.59L770.251 233.637H785.471V264.145C785.471 265.323 785.542 265.47 786.648 265.619L790.397 266.132V271.936H769.443ZM819.47 269.086C816.308 270.629 811.676 272.026 807.484 272.026C798.736 272.026 795.429 268.501 795.429 260.189V240.929C795.429 240.488 795.429 240.194 794.839 240.194H789.693V233.649C796.165 232.912 798.736 229.677 799.544 221.664H806.53V232.106C806.53 232.619 806.53 232.841 807.119 232.841H817.484V240.193H806.53V257.763C806.53 262.1 807.56 263.79 811.528 263.79C813.589 263.79 815.719 263.276 817.483 262.615L819.47 269.086Z" fill="#2F2707"/>
<path d="M710.539 249.793L676.923 216.18C676.463 215.72 675.917 215.354 675.315 215.105C674.713 214.856 674.069 214.728 673.417 214.728C672.766 214.728 672.122 214.856 671.52 215.105C670.918 215.354 670.372 215.72 669.912 216.18L662.931 223.161L671.786 232.015C672.827 231.661 673.946 231.606 675.017 231.855C676.087 232.104 677.067 232.649 677.844 233.426C678.626 234.209 679.171 235.195 679.418 236.273C679.666 237.351 679.605 238.476 679.243 239.521L687.776 248.055C689.84 247.344 692.223 247.804 693.871 249.456C694.419 250.003 694.854 250.654 695.151 251.369C695.447 252.085 695.6 252.852 695.6 253.627C695.6 254.402 695.447 255.169 695.151 255.885C694.854 256.601 694.419 257.251 693.871 257.799C692.907 258.764 691.638 259.365 690.281 259.5C688.923 259.634 687.561 259.295 686.426 258.538C685.29 257.782 684.452 256.655 684.054 255.35C683.656 254.045 683.723 252.643 684.243 251.381L676.285 243.423L676.284 264.366C676.861 264.651 677.388 265.028 677.844 265.482C678.392 266.03 678.827 266.68 679.123 267.396C679.42 268.112 679.573 268.879 679.573 269.654C679.573 270.429 679.42 271.196 679.123 271.912C678.827 272.628 678.392 273.279 677.844 273.826C675.539 276.132 671.803 276.132 669.501 273.826C668.813 273.139 668.306 272.293 668.025 271.362C667.743 270.432 667.696 269.446 667.887 268.493C668.078 267.54 668.501 266.649 669.12 265.899C669.738 265.149 670.533 264.564 671.432 264.195V243.057C670.709 242.762 670.052 242.324 669.501 241.769C667.755 240.026 667.335 237.464 668.23 235.32L659.502 226.59L636.453 249.637C635.993 250.097 635.627 250.644 635.378 251.246C635.129 251.848 635.001 252.493 635.001 253.144C635.001 253.795 635.129 254.44 635.378 255.042C635.627 255.644 635.993 256.19 636.453 256.651L670.068 290.265C670.998 291.194 672.259 291.717 673.574 291.717C674.889 291.717 676.15 291.194 677.08 290.265L710.539 256.808C711.468 255.877 711.991 254.616 711.991 253.3C711.991 251.985 711.468 250.723 710.539 249.793Z" fill="#DE4C36"/>
<path d="M289 247.667V237H278.333V226.333C278.325 223.507 277.198 220.799 275.2 218.8C273.201 216.802 270.493 215.675 267.667 215.667H257V205H246.333V215.667H235.667V205H225V215.667H214.333C211.507 215.675 208.799 216.802 206.8 218.8C204.802 220.799 203.675 223.507 203.667 226.333V237H193V247.667H203.667V258.333H193V269H203.667V279.667C203.675 282.493 204.802 285.201 206.8 287.2C208.799 289.198 211.507 290.325 214.333 290.333H225V301H235.667V290.333H246.333V301H257V290.333H267.667C270.493 290.325 273.201 289.198 275.2 287.2C277.198 285.201 278.325 282.493 278.333 279.667V269H289V258.333H278.333V247.667H289ZM267.667 279.667H214.333V226.333H267.667V279.667Z" fill="#545454"/>
<path d="M237.592 231.667H230.419L219.699 274.333H225.176L227.651 264.333H240.003L242.413 274.333H248.077L237.592 231.667ZM228.371 260.061L233.8 236.733H234.045L239.288 260.061H228.371ZM252.968 231.667H258.301V274.333H252.968V231.667Z" fill="#545454"/>
<path d="M64 309C62.4891 309 61.0046 308.603 59.696 307.848L46 299.74C43.956 298.596 44.952 298.192 45.628 297.956C47.8019 297.284 49.8834 296.344 51.824 295.156C51.9864 295.081 52.1654 295.048 52.3438 295.062C52.5223 295.075 52.6945 295.134 52.844 295.232L63.368 301.484C63.564 301.588 63.7823 301.642 64.004 301.642C64.2257 301.642 64.444 301.588 64.64 301.484L105.68 277.796C105.872 277.681 106.031 277.518 106.141 277.323C106.251 277.128 106.309 276.908 106.308 276.684V229.3C106.308 229.072 106.25 228.849 106.138 228.651C106.027 228.452 105.866 228.286 105.672 228.168L64.632 204.5C64.4385 204.391 64.2201 204.334 63.998 204.334C63.7759 204.334 63.5575 204.391 63.364 204.5L22.348 228.176C22.1523 228.292 21.9899 228.456 21.8764 228.653C21.7628 228.85 21.7021 229.073 21.7 229.3V276.664C21.7006 276.887 21.7605 277.106 21.8736 277.299C21.9868 277.492 22.1491 277.651 22.344 277.76L33.6 284.256C39.7 287.304 43.436 283.712 43.436 280.104V233.34C43.436 233.022 43.5624 232.716 43.7875 232.491C44.0125 232.266 44.3177 232.14 44.636 232.14H49.836C50.1543 232.14 50.4595 232.266 50.6845 232.491C50.9096 232.716 51.036 233.022 51.036 233.34V280.108C51.036 288.248 46.604 292.908 38.884 292.908C35.5535 292.966 32.2752 292.075 29.432 290.34L18.644 284.152C17.3343 283.389 16.2477 282.296 15.4924 280.982C14.7372 279.669 14.3398 278.179 14.34 276.664V229.3C14.3361 227.782 14.7318 226.29 15.4873 224.973C16.2428 223.657 17.3315 222.562 18.644 221.8L59.688 198.104C61.0101 197.381 62.4929 197.001 64 197.001C65.507 197.001 66.9899 197.381 68.312 198.104L109.352 221.8C110.661 222.561 111.748 223.652 112.504 224.965C113.26 226.277 113.659 227.765 113.66 229.28V276.664C113.658 278.179 113.259 279.668 112.503 280.982C111.747 282.295 110.661 283.388 109.352 284.152L68.312 307.848C67.0009 308.604 65.5136 309.002 64 309Z" fill="#83CD29"/>
<path d="M56.216 260.812C56.216 260.494 56.3424 260.188 56.5675 259.963C56.7925 259.738 57.0977 259.612 57.416 259.612H62.724C63.0076 259.613 63.2817 259.714 63.4977 259.898C63.7138 260.082 63.8577 260.336 63.904 260.616C64.704 266.02 67.104 268.744 77.956 268.744C86.6 268.744 90.284 266.788 90.284 262.2C90.284 259.556 89.24 257.592 75.804 256.276C64.572 255.164 57.628 252.676 57.628 243.7C57.628 235.42 64.608 230.48 76.308 230.48C89.456 230.48 95.964 235.044 96.788 244.836C96.8006 244.999 96.7795 245.164 96.7262 245.319C96.6728 245.474 96.5882 245.616 96.4776 245.737C96.367 245.858 96.2328 245.956 96.0833 246.023C95.9337 246.09 95.772 246.126 95.608 246.128H90.264C89.9959 246.124 89.7368 246.031 89.528 245.863C89.3192 245.694 89.1728 245.461 89.112 245.2C87.836 239.516 84.712 237.7 76.312 237.7C66.872 237.7 65.776 240.988 65.776 243.452C65.776 246.436 67.072 247.308 79.816 248.992C92.428 250.66 98.42 253.02 98.42 261.884C98.42 270.828 90.964 275.948 77.96 275.948C59.98 275.972 56.216 267.728 56.216 260.812Z" fill="#83CD29"/>
<g clip-path="url(#clip1_91_69)">
<path d="M587.827 266.325L587.827 266.329C587.978 268.04 589.345 270.216 591.715 270.216H593.102C593.64 270.216 594.08 269.775 594.08 269.237V238.742H594.074C594.061 238.493 593.952 238.259 593.772 238.087C593.591 237.915 593.351 237.818 593.102 237.817H588.805C588.556 237.818 588.316 237.915 588.135 238.087C587.954 238.259 587.846 238.493 587.833 238.742H587.827V241.22C585.195 237.975 581.044 236.628 576.882 236.628C567.421 236.628 559.752 244.303 559.752 253.772C559.752 263.241 567.421 270.916 576.882 270.916V270.917C581.044 270.917 585.58 269.301 587.827 266.326V266.325ZM576.899 264.915C570.882 264.915 566.004 259.927 566.004 253.771C566.004 247.618 570.882 242.628 576.899 242.628C582.916 242.628 587.793 247.618 587.793 253.772C587.793 259.865 583.013 264.816 577.079 264.914L576.899 264.915ZM554.32 267.378L554.318 251.598C554.318 242.702 548.711 236.702 539.769 236.702C535.5 236.702 532.002 239.172 530.766 241.293L530.745 241.172L530.722 241.05C530.718 241.03 530.714 241.01 530.71 240.99L530.683 240.868L530.654 240.747L530.623 240.626L530.588 240.506C530.564 240.426 530.538 240.346 530.51 240.267L530.467 240.15C529.992 238.92 528.986 237.891 526.889 237.891H525.498C524.96 237.891 524.52 238.332 524.52 238.869V269.368H524.526C524.539 269.617 524.647 269.851 524.828 270.023C525.009 270.195 525.249 270.292 525.498 270.293H529.795C529.861 270.293 529.925 270.285 529.987 270.273L530.015 270.266L530.07 270.248L530.135 270.23C530.145 270.226 530.155 270.223 530.166 270.219L530.203 270.201L530.326 270.132C530.355 270.113 530.382 270.093 530.408 270.071L530.447 270.037C530.453 270.031 530.461 270.027 530.467 270.021C530.647 269.85 530.754 269.616 530.767 269.368H530.772V251.353C530.772 246.575 534.643 242.702 539.417 242.702C544.191 242.702 548.061 246.576 548.061 251.353L548.065 266.411L548.066 266.406L548.068 266.447V269.368H548.074C548.087 269.617 548.196 269.851 548.376 270.023C548.557 270.195 548.797 270.292 549.046 270.293H553.343C553.409 270.293 553.474 270.285 553.536 270.273C553.561 270.268 553.584 270.258 553.609 270.251L553.68 270.231L553.714 270.219C553.75 270.204 553.782 270.184 553.815 270.165C553.835 270.154 553.856 270.145 553.876 270.132C553.915 270.106 553.952 270.075 553.988 270.043L554.016 270.02C554.042 269.994 554.068 269.967 554.091 269.938L554.133 269.884C554.229 269.751 554.29 269.596 554.309 269.434L554.316 269.368H554.321V267.379L554.32 267.378ZM509.572 266.325V266.329C509.722 268.04 511.09 270.216 513.46 270.216H514.847C515.385 270.216 515.824 269.775 515.824 269.237V238.742H515.819C515.805 238.493 515.697 238.259 515.517 238.087C515.336 237.915 515.096 237.818 514.847 237.817H510.55C510.3 237.818 510.061 237.915 509.88 238.087C509.699 238.259 509.59 238.493 509.577 238.742H509.572V241.22C506.939 237.975 502.789 236.628 498.626 236.628C489.166 236.628 481.497 244.303 481.497 253.772C481.497 263.241 489.166 270.916 498.626 270.916V270.917C502.789 270.917 507.325 269.301 509.572 266.326V266.325ZM498.643 264.915C492.627 264.915 487.749 259.927 487.749 253.771C487.749 247.618 492.627 242.628 498.643 242.628C504.66 242.628 509.537 247.618 509.537 253.772C509.537 259.865 504.757 264.816 498.823 264.914L498.643 264.915ZM456.087 261.962C458.955 263.95 462.087 264.916 465.095 264.916C465.686 264.916 466.281 264.853 466.854 264.73L467.025 264.691C467.11 264.671 467.194 264.649 467.278 264.626L467.445 264.579C467.501 264.562 467.555 264.545 467.61 264.528L467.773 264.473C468.151 264.342 468.509 264.182 468.841 263.994L468.982 263.912C470.137 263.217 470.925 262.175 470.925 260.84C470.925 259.043 469.179 258.036 466.932 257.288L466.671 257.203C466.627 257.189 466.583 257.175 466.538 257.161L466.271 257.079L466.001 256.999L465.727 256.921L465.312 256.805L464.893 256.693L464.33 256.547L462.922 256.188L462.369 256.044L461.96 255.934L461.691 255.859L461.426 255.784L461.295 255.746L461.036 255.668C460.994 255.655 460.951 255.642 460.909 255.629L460.657 255.549C460.574 255.522 460.492 255.495 460.411 255.467C456.353 254.088 452.858 251.235 452.858 246.616C452.858 239.547 459.152 236.627 465.025 236.627C468.747 236.627 472.587 237.856 475.077 239.615C475.547 239.972 475.602 240.358 475.556 240.634L475.545 240.691L475.531 240.744L475.515 240.794L475.499 240.839L475.482 240.88L475.458 240.932L475.436 240.972L475.412 241.011L473.035 244.408C473.021 244.429 473.005 244.451 472.989 244.471L472.939 244.533C472.671 244.845 472.254 245.061 471.686 244.74L471.604 244.691L471.189 244.429L471.041 244.338L470.877 244.241L470.761 244.174L470.637 244.104C470.616 244.092 470.594 244.08 470.573 244.068L470.439 243.996L470.3 243.924L470.154 243.849L470.002 243.774L469.843 243.699L469.679 243.624C469.622 243.599 469.565 243.574 469.508 243.549L469.331 243.475L469.149 243.403C467.834 242.89 466.436 242.627 465.025 242.627C461.442 242.627 459.283 244.284 459.283 246.337C459.283 247.503 459.912 248.291 460.925 248.886L461.062 248.964C461.271 249.08 461.494 249.188 461.731 249.291L461.891 249.358L461.973 249.391L462.137 249.456L462.222 249.488L462.392 249.551L462.566 249.612L462.743 249.672L462.832 249.702L463.014 249.76L463.291 249.846L463.575 249.93L463.863 250.013L464.059 250.067L464.256 250.121L464.657 250.227L465.375 250.412L466.064 250.599L466.582 250.743L466.929 250.841L467.102 250.89L467.447 250.99L467.62 251.041L467.964 251.145L468.307 251.252C473.046 252.738 477.349 255.009 477.349 260.84C477.349 267.069 471.528 270.917 465.095 270.917C460.22 270.917 456.069 269.527 452.588 266.97C452.15 266.531 452.161 266.111 452.239 265.848L452.256 265.795L452.274 265.748L452.292 265.705L452.311 265.668L452.335 265.622L452.369 265.569L454.734 262.189C455.139 261.657 455.634 261.73 455.938 261.875L455.993 261.904L456.042 261.933L456.087 261.962ZM439.569 266.325V266.329C439.719 268.04 441.087 270.216 443.457 270.216H444.844C445.382 270.216 445.823 269.775 445.823 269.237V238.742H445.816C445.803 238.493 445.695 238.259 445.514 238.087C445.334 237.915 445.094 237.818 444.844 237.817H440.548C440.298 237.818 440.058 237.915 439.877 238.087C439.697 238.259 439.588 238.493 439.575 238.742H439.57V241.22C436.937 237.975 432.786 236.628 428.624 236.628C419.164 236.628 411.495 244.303 411.495 253.772C411.495 263.241 419.164 270.916 428.625 270.916V270.917C432.787 270.917 437.322 269.301 439.569 266.326L439.569 266.325ZM428.641 264.915C422.624 264.915 417.746 259.927 417.746 253.771C417.746 247.618 422.624 242.628 428.641 242.628C434.658 242.628 439.535 247.618 439.535 253.772C439.535 259.865 434.755 264.816 428.821 264.914L428.641 264.915Z" fill="#0D0E10"/>
<path d="M387.478 254.938C381.112 254.938 375.95 260.099 375.95 266.466C375.95 272.833 381.112 277.994 387.478 277.994C393.845 277.994 399.006 272.833 399.006 266.466C399.006 260.099 393.845 254.938 387.478 254.938ZM357.528 254.939C351.161 254.939 346 260.099 346 266.466C346 272.833 351.161 277.994 357.528 277.994C363.895 277.994 369.056 272.833 369.056 266.466C369.056 260.099 363.895 254.939 357.528 254.939ZM384.031 240.527C384.031 246.894 378.87 252.056 372.503 252.056C366.136 252.056 360.975 246.894 360.975 240.527C360.975 234.162 366.136 229 372.503 229C378.87 229 384.031 234.161 384.031 240.527Z" fill="#F06A6A"/>
</g>
<g clip-path="url(#clip2_91_69)">
<path d="M793.723 19H734.935C720.612 19 709 30.6117 709 44.9355V103.723C709 118.046 720.612 129.658 734.935 129.658H793.723C808.046 129.658 819.658 118.046 819.658 103.723V44.9355C819.658 30.6117 808.046 19 793.723 19Z" fill="#F0DB4F"/>
<path d="M738.096 111.474L746.564 106.349C748.198 109.245 749.684 111.696 753.249 111.696C756.666 111.696 758.82 110.36 758.82 105.161V69.8028H769.22V105.308C769.22 116.078 762.906 120.981 753.695 120.981C745.376 120.981 740.547 116.673 738.096 111.473M774.868 110.359L783.335 105.457C785.564 109.097 788.461 111.771 793.586 111.771C797.895 111.771 800.643 109.617 800.643 106.645C800.643 103.08 797.82 101.817 793.066 99.738L790.467 98.6232C782.964 95.4296 777.987 91.4183 777.987 82.9504C777.987 75.1507 783.93 69.208 793.215 69.208C799.826 69.208 804.58 71.5111 807.997 77.5277L799.9 82.7273C798.117 79.5334 796.186 78.2707 793.215 78.2707C790.169 78.2707 788.238 80.2021 788.238 82.7273C788.238 85.8469 790.169 87.11 794.626 89.0417L797.226 90.1557C806.065 93.9444 811.042 97.8062 811.042 106.497C811.042 115.857 803.688 120.982 793.809 120.982C784.153 120.982 777.913 116.376 774.868 110.359Z" fill="#323330"/>
</g>
<g clip-path="url(#clip3_91_69)">
<path d="M562.672 19H656.328C661.118 19 665 22.8474 665 27.5938V120.406C665 125.153 661.118 129 656.328 129H562.672C557.882 129 554 125.153 554 120.406V27.5938C554 22.8474 557.882 19 562.672 19Z" fill="#3178C6"/>
<path d="M619.264 105.142V117.01C621.211 117.999 623.515 118.74 626.174 119.235C628.834 119.729 631.636 119.977 634.583 119.977C637.454 119.977 640.182 119.705 642.767 119.161C645.351 118.617 647.617 117.72 649.564 116.472C651.512 115.223 653.054 113.591 654.191 111.576C655.327 109.561 655.895 107.07 655.895 104.103C655.895 101.952 655.57 100.067 654.921 98.4475C654.279 96.839 653.324 95.371 652.111 94.127C650.888 92.8659 649.421 91.7349 647.711 90.7333C646 89.7321 644.071 88.7864 641.924 87.8965C640.351 87.2533 638.94 86.6294 637.691 86.0235C636.443 85.4177 635.382 84.7998 634.508 84.169C633.634 83.5386 632.96 82.8709 632.485 82.1662C632.011 81.4615 631.774 80.6645 631.774 79.7741C631.774 78.9582 631.986 78.223 632.41 77.5677C632.835 76.9124 633.434 76.35 634.208 75.8803C634.982 75.4102 635.931 75.0459 637.055 74.7859C638.178 74.5264 639.427 74.3966 640.8 74.3966C641.799 74.3966 642.854 74.4709 643.965 74.6192C645.076 74.7674 646.194 74.996 647.318 75.3054C648.438 75.6132 649.533 76.0037 650.595 76.4737C651.624 76.9257 652.608 77.4719 653.535 78.1052V67.0163C651.712 66.3241 649.721 65.811 647.561 65.4771C645.401 65.1433 642.923 64.9766 640.126 64.9766C637.279 64.9766 634.583 65.2795 632.036 65.8854C629.489 66.4908 627.248 67.4365 625.313 68.7221C623.378 70.0082 621.848 71.6462 620.724 73.6365C619.601 75.6268 619.039 78.0064 619.039 80.7757C619.039 84.3112 620.069 87.3276 622.129 89.825C624.189 92.3219 627.316 94.4359 631.511 96.1667C633.06 96.7917 634.596 97.4471 636.118 98.1325C637.542 98.7753 638.771 99.4427 639.808 100.135C640.844 100.827 641.662 101.581 642.261 102.397C642.86 103.213 643.16 104.14 643.16 105.179C643.165 105.926 642.971 106.662 642.598 107.312C642.224 107.966 641.655 108.535 640.894 109.017C640.133 109.499 639.183 109.876 638.047 110.148C636.911 110.42 635.582 110.557 634.058 110.557C631.462 110.557 628.89 110.105 626.343 109.203C623.796 108.3 621.436 106.947 619.264 105.142ZM599.303 75.6079H614.703V65.8359H571.777V75.6079H587.103V119.117H599.303V75.6079Z" fill="white"/>
</g>
<g clip-path="url(#clip4_91_69)">
<path d="M284.345 6H211.942C194.301 6 180 20.3011 180 37.9424V110.345C180 127.987 194.301 142.288 211.942 142.288H284.345C301.987 142.288 316.288 127.987 316.288 110.345V37.9424C316.288 20.3011 301.987 6 284.345 6Z" fill="#F4F2ED"/>
<path d="M225.116 65.6052C225.116 66.901 225.256 67.9514 225.501 68.7223C225.812 69.5893 226.187 70.4322 226.622 71.2441C226.797 71.5241 226.867 71.8042 226.867 72.0496C226.867 72.3999 226.657 72.7502 226.202 73.1L223.995 74.5715C223.68 74.7812 223.365 74.8866 223.085 74.8866C222.734 74.8866 222.384 74.7115 222.034 74.3963C221.562 73.8891 221.14 73.3379 220.773 72.7502C220.382 72.0772 220.019 71.3876 219.687 70.6835C216.955 73.906 213.523 75.5169 209.39 75.5169C206.448 75.5169 204.101 74.6763 202.385 72.9951C200.669 71.3139 199.793 69.0726 199.793 66.2707C199.793 63.2931 200.844 60.8767 202.98 59.0554C205.117 57.2342 207.954 56.3233 211.561 56.3233C212.752 56.3233 213.978 56.4287 215.274 56.6038C216.57 56.779 217.901 57.059 219.302 57.3742V54.8172C219.302 52.1553 218.741 50.2989 217.656 49.2134C216.535 48.1274 214.644 47.6024 211.947 47.6024C210.721 47.6024 209.46 47.7425 208.164 48.0576C206.868 48.3728 205.607 48.7582 204.381 49.2485C203.983 49.4267 203.574 49.5788 203.156 49.7037C202.911 49.774 202.735 49.8091 202.595 49.8091C202.105 49.8091 201.859 49.4588 201.859 48.7231V47.0067C201.859 46.4467 201.93 46.0261 202.105 45.7812C202.28 45.5363 202.595 45.2909 203.085 45.0455C204.311 44.4151 205.782 43.8902 207.499 43.4696C209.215 43.0139 211.036 42.8042 212.962 42.8042C217.13 42.8042 220.177 43.7497 222.139 45.6406C224.065 47.5322 225.046 50.4043 225.046 54.2571V65.6052H225.116ZM210.896 70.9289C212.052 70.9289 213.243 70.7187 214.504 70.2981C215.764 69.878 216.885 69.1072 217.831 68.0568C218.391 67.3913 218.812 66.6556 219.021 65.815C219.232 64.9743 219.372 63.9586 219.372 62.7682V61.2967C218.31 61.0384 217.234 60.8397 216.15 60.7015C215.058 60.5628 213.958 60.4926 212.857 60.4912C210.51 60.4912 208.795 60.9469 207.639 61.8924C206.483 62.8379 205.922 64.1689 205.922 65.9204C205.922 67.5665 206.343 68.792 207.218 69.6326C208.059 70.5084 209.285 70.9289 210.896 70.9289ZM239.021 74.7115C238.39 74.7115 237.97 74.6061 237.69 74.3612C237.41 74.1509 237.164 73.6606 236.954 72.9951L228.724 45.9212C228.513 45.2206 228.408 44.7654 228.408 44.52C228.408 43.9599 228.688 43.6442 229.249 43.6442H232.681C233.347 43.6442 233.802 43.7497 234.047 43.9945C234.327 44.2048 234.537 44.6952 234.748 45.3606L240.632 68.5471L246.096 45.3606C246.271 44.66 246.481 44.2054 246.761 43.9945C247.041 43.7848 247.532 43.6448 248.162 43.6448H250.964C251.629 43.6448 252.085 43.7497 252.365 43.9945C252.645 44.2048 252.891 44.6952 253.031 45.3606L258.565 68.8271L264.624 45.3606C264.834 44.66 265.079 44.2054 265.324 43.9945C265.604 43.7848 266.06 43.6448 266.69 43.6448H269.947C270.508 43.6448 270.823 43.9248 270.823 44.52C270.823 44.6957 270.788 44.8703 270.753 45.0806C270.718 45.2909 270.648 45.5704 270.508 45.9563L262.067 73.0302C261.857 73.7308 261.611 74.186 261.331 74.3963C261.051 74.6061 260.596 74.7466 260 74.7466H256.988C256.323 74.7466 255.868 74.6412 255.588 74.3963C255.307 74.1509 255.062 73.6957 254.922 72.9951L249.493 50.4043L244.099 72.96C243.924 73.6606 243.714 74.1157 243.434 74.3612C243.153 74.6061 242.663 74.7115 242.033 74.7115H239.021ZM284.028 75.657C282.206 75.657 280.385 75.4467 278.633 75.0266C276.883 74.6061 275.516 74.1509 274.606 73.6254C274.045 73.3103 273.66 72.96 273.52 72.6448C273.384 72.3357 273.312 72.002 273.31 71.6642V69.878C273.31 69.1423 273.59 68.792 274.115 68.792C274.326 68.792 274.536 68.8271 274.746 68.8974C274.956 68.9672 275.271 69.1072 275.621 69.2477C276.859 69.7916 278.15 70.2024 279.474 70.4732C280.846 70.752 282.242 70.8928 283.642 70.8938C285.849 70.8938 287.565 70.5084 288.756 69.738C289.946 68.9672 290.577 67.8465 290.577 66.4107C290.577 65.4301 290.262 64.624 289.631 63.9586C289.001 63.2931 287.81 62.6979 286.094 62.1373L281.015 60.5615C278.458 59.756 276.567 58.5651 275.411 56.9893C274.255 55.448 273.66 53.7311 273.66 51.9104C273.66 50.4395 273.975 49.1437 274.606 48.0225C275.236 46.9018 276.077 45.9212 277.127 45.1509C278.178 44.3449 279.369 43.7497 280.77 43.3291C282.171 42.9085 283.642 42.7339 285.183 42.7339C285.954 42.7339 286.759 42.769 287.53 42.8739C288.335 42.9788 289.071 43.1188 289.806 43.2593C290.507 43.4345 291.172 43.6096 291.803 43.8199C292.433 44.0297 292.923 44.24 293.274 44.4503C293.764 44.7303 294.114 45.0103 294.325 45.3255C294.534 45.606 294.64 45.991 294.64 46.4818V48.1279C294.64 48.8631 294.36 49.2485 293.834 49.2485C293.554 49.2485 293.099 49.1085 292.503 48.828C290.507 47.9176 288.265 47.4624 285.778 47.4624C283.782 47.4624 282.206 47.7776 281.12 48.4431C280.035 49.1085 279.474 50.1243 279.474 51.5601C279.474 52.5408 279.824 53.3814 280.525 54.0468C281.225 54.7123 282.521 55.3778 284.378 55.973L289.351 57.5488C291.873 58.3548 293.694 59.4755 294.78 60.9118C295.865 62.3476 296.391 63.9937 296.391 65.815C296.391 67.3211 296.076 68.6871 295.48 69.878C294.85 71.069 294.01 72.1193 292.923 72.96C291.838 73.8357 290.542 74.466 289.036 74.9218C287.46 75.4121 285.814 75.657 284.028 75.657Z" fill="#252F3E"/>
<path fill-rule="evenodd" clip-rule="evenodd" d="M290.647 92.6792C279.124 101.19 262.382 105.709 247.987 105.709C227.813 105.709 209.635 98.2478 195.905 85.8494C194.819 84.8687 195.8 83.5378 197.096 84.3082C211.947 92.9241 230.265 98.143 249.213 98.143C261.997 98.143 276.042 95.4811 288.966 90.0173C290.892 89.1416 292.538 91.278 290.647 92.6792Z" fill="#FF9900"/>
<path fill-rule="evenodd" clip-rule="evenodd" d="M295.445 87.2151C293.974 85.3236 285.709 86.3042 281.961 86.7594C280.84 86.8999 280.665 85.9188 281.681 85.1836C288.265 80.5604 299.088 81.8914 300.349 83.4321C301.61 85.0084 299.999 95.831 293.834 101.015C292.888 101.82 291.978 101.4 292.398 100.349C293.799 96.8819 296.916 89.071 295.445 87.2151Z" fill="#FF9900"/>
</g>
<path d="M401.56 84.3139L398.17 82.3619L435.931 17.2622L439.316 19.2071L401.56 84.3139Z" fill="#545454"/>
<path d="M397.394 77.1611H472.912V81.0603H397.394V77.1611Z" fill="#545454"/>
<path d="M436.66 101.061L398.89 79.3526L400.844 75.9761L438.619 97.6858L436.66 101.061ZM469.476 44.4773L431.7 22.7688L433.659 19.397L471.431 41.1055L469.476 44.4773Z" fill="#545454"/>
<path d="M400.853 44.4648L398.899 41.0918L436.674 19.3833L438.628 22.7551L400.853 44.4648Z" fill="#545454"/>
<path d="M468.779 84.3139L431.019 19.2071L434.408 17.2622L472.17 82.3619L468.779 84.3139ZM400.389 38.5103H404.304V81.9274H400.389V38.5103Z" fill="#545454"/>
<path d="M466.026 38.5103H469.939V81.9273H466.026V38.5103Z" fill="#545454"/>
<path d="M435.995 99.4113L434.284 96.4658L467.137 77.583L468.848 80.5274L435.995 99.4113Z" fill="#545454"/>
<path d="M475.128 83.1933C472.867 87.116 467.82 88.4513 463.884 86.1987C462.948 85.6639 462.128 84.9496 461.469 84.0967C460.811 83.2438 460.327 82.2691 460.047 81.2288C459.767 80.1885 459.694 79.103 459.835 78.0347C459.975 76.9664 460.325 75.9364 460.865 75.0039C463.127 71.0812 468.173 69.747 472.109 71.9996C476.073 74.2745 477.418 79.2765 475.128 83.1933ZM409.442 45.4324C407.18 49.3503 402.133 50.6892 398.197 48.4366C397.261 47.9013 396.441 47.1865 395.783 46.3332C395.124 45.48 394.641 44.5051 394.361 43.4646C394.08 42.424 394.008 41.3384 394.148 40.2699C394.289 39.2014 394.639 38.1711 395.178 37.2383C397.44 33.3203 402.487 31.9802 406.422 34.2328C410.359 36.5136 411.704 41.5097 409.442 45.4324ZM395.202 83.1933C392.935 79.2753 394.28 74.2745 398.22 71.9996C402.157 69.747 407.18 71.0812 409.464 75.0039C411.731 78.9218 410.386 83.9226 406.446 86.1987C402.487 88.4513 397.463 87.116 395.202 83.1933ZM460.888 45.4324C458.627 41.5097 459.971 36.5136 463.906 34.2328C467.843 31.9802 472.867 33.3203 475.151 37.2383C477.418 41.1609 476.073 46.157 472.133 48.4366C468.196 50.6892 463.15 49.3503 460.888 45.4324ZM435.165 106.173C430.614 106.173 426.934 102.512 426.934 97.9796C426.934 93.4509 430.614 89.7902 435.165 89.7902C439.716 89.7902 443.395 93.4509 443.395 97.9796C443.395 102.485 439.716 106.173 435.165 106.173ZM435.165 30.6461C430.614 30.6461 426.934 26.9853 426.934 22.4519C426.934 17.9244 430.614 14.2637 435.165 14.2637C439.716 14.2637 443.395 17.9244 443.395 22.4519C443.395 26.9853 439.716 30.6461 435.165 30.6461ZM485.226 142.705C485.129 142.71 485.032 142.695 484.941 142.661C484.85 142.627 484.767 142.575 484.697 142.508C484.629 142.438 484.577 142.355 484.542 142.264C484.507 142.173 484.492 142.076 484.496 141.979V120.294C484.496 120.073 484.564 119.895 484.698 119.762C484.768 119.695 484.851 119.643 484.942 119.609C485.032 119.575 485.129 119.56 485.226 119.565H485.86C486.08 119.565 486.258 119.628 486.391 119.762C486.458 119.833 486.51 119.916 486.544 120.008C486.578 120.099 486.593 120.197 486.588 120.294V140.723H498.048C498.291 140.723 498.479 140.787 498.612 140.92C498.746 141.054 498.809 141.242 498.809 141.48V141.98C498.814 142.077 498.799 142.174 498.765 142.264C498.731 142.355 498.679 142.438 498.612 142.508C498.479 142.64 498.291 142.705 498.048 142.705H485.226ZM477.555 144.852C477.437 144.853 477.319 144.829 477.211 144.781C477.102 144.732 477.006 144.661 476.927 144.572C476.778 144.418 476.634 144.258 476.495 144.094L475.031 142.077C473.706 142.714 472.155 143.035 470.384 143.035C468.545 143.035 466.985 142.71 465.7 142.063C464.416 141.411 463.429 140.407 462.746 139.052C462.057 137.695 461.681 135.984 461.618 133.911C461.595 132.919 461.58 131.993 461.58 131.134C461.58 130.277 461.595 129.349 461.617 128.359C461.681 126.309 462.081 124.607 462.81 123.248C463.539 121.895 464.553 120.886 465.852 120.225C467.145 119.565 468.655 119.234 470.385 119.234C472.109 119.234 473.619 119.565 474.918 120.225C476.211 120.886 477.229 121.895 477.972 123.248C478.712 124.607 479.106 126.309 479.151 128.359C479.192 129.284 479.214 130.209 479.216 131.134C479.216 131.992 479.193 132.919 479.151 133.911C479.041 137.062 478.229 139.379 476.725 140.856L478.853 143.828C478.88 143.863 478.902 143.902 478.918 143.944C478.944 144.024 478.954 144.107 478.949 144.191C478.95 144.277 478.933 144.363 478.899 144.443C478.865 144.523 478.815 144.595 478.752 144.655C478.692 144.717 478.621 144.767 478.541 144.801C478.462 144.835 478.376 144.852 478.289 144.852H477.555ZM470.384 141.054C472.288 141.054 473.852 140.479 475.082 139.333C476.312 138.186 476.968 136.323 477.06 133.745C477.101 132.754 477.124 131.882 477.124 131.134C477.124 130.387 477.101 129.515 477.06 128.525C477.013 126.804 476.697 125.404 476.11 124.326C475.522 123.244 474.738 122.459 473.751 121.96C472.771 121.464 471.646 121.216 470.384 121.216C469.142 121.216 468.031 121.463 467.045 121.96C466.059 122.46 465.274 123.244 464.687 124.326C464.1 125.404 463.773 126.804 463.71 128.525C463.686 129.515 463.672 130.387 463.672 131.134C463.672 131.882 463.686 132.755 463.71 133.745C463.797 136.323 464.461 138.186 465.7 139.333C466.94 140.479 468.499 141.054 470.384 141.054ZM443.216 142.705C443.119 142.71 443.022 142.695 442.932 142.661C442.841 142.627 442.758 142.575 442.688 142.508C442.62 142.438 442.567 142.355 442.533 142.264C442.498 142.173 442.482 142.076 442.486 141.979V119.958C442.482 119.861 442.498 119.765 442.533 119.674C442.568 119.583 442.621 119.501 442.688 119.431C442.758 119.364 442.841 119.311 442.932 119.277C443.023 119.244 443.12 119.229 443.217 119.234H443.781C444.005 119.234 444.18 119.298 444.313 119.431C444.381 119.501 444.434 119.583 444.468 119.674C444.503 119.765 444.519 119.862 444.515 119.959V127.794C445.106 127.028 445.846 126.388 446.69 125.914C447.542 125.428 448.674 125.185 450.093 125.185C451.598 125.185 452.856 125.51 453.86 126.162C454.87 126.808 455.621 127.688 456.122 128.804C456.617 129.92 456.869 131.18 456.869 132.589V141.98C456.873 142.077 456.857 142.174 456.823 142.265C456.788 142.355 456.735 142.438 456.668 142.508C456.597 142.575 456.513 142.628 456.422 142.662C456.33 142.696 456.232 142.71 456.135 142.705H455.571C455.473 142.71 455.376 142.695 455.285 142.661C455.193 142.627 455.109 142.575 455.039 142.508C454.972 142.438 454.919 142.355 454.885 142.264C454.851 142.173 454.836 142.076 454.841 141.979V132.754C454.841 130.992 454.41 129.606 453.547 128.607C452.681 127.602 451.419 127.102 449.758 127.102C448.189 127.102 446.923 127.602 445.959 128.606C444.996 129.606 444.515 130.992 444.515 132.754V141.98C444.519 142.077 444.503 142.174 444.468 142.265C444.433 142.356 444.38 142.438 444.313 142.508C444.242 142.575 444.159 142.628 444.067 142.662C443.976 142.696 443.878 142.71 443.781 142.705H443.216ZM423.925 148.985C423.828 148.99 423.73 148.975 423.639 148.941C423.547 148.907 423.464 148.855 423.393 148.787C423.325 148.718 423.272 148.635 423.238 148.545C423.203 148.454 423.187 148.357 423.191 148.26V126.244C423.191 126.024 423.259 125.845 423.393 125.712C423.464 125.644 423.547 125.592 423.639 125.558C423.73 125.524 423.828 125.509 423.925 125.515H424.489C424.71 125.515 424.888 125.579 425.021 125.712C425.088 125.783 425.14 125.866 425.174 125.958C425.208 126.049 425.223 126.146 425.218 126.244V127.794C425.774 127.047 426.499 126.424 427.393 125.927C428.292 125.432 429.425 125.185 430.797 125.185C432.105 125.185 433.201 125.409 434.087 125.863C434.937 126.284 435.676 126.9 436.243 127.661C436.798 128.413 437.206 129.249 437.473 130.175C437.737 131.101 437.882 132.057 437.904 133.02C437.927 133.351 437.935 133.713 437.935 134.113C437.935 134.506 437.927 134.869 437.904 135.199C437.883 136.162 437.738 137.118 437.473 138.044C437.206 138.971 436.798 139.805 436.243 140.557C435.676 141.319 434.937 141.935 434.087 142.356C433.201 142.811 432.105 143.035 430.798 143.035C429.425 143.035 428.292 142.783 427.392 142.274C426.5 141.769 425.774 141.15 425.22 140.424V148.26C425.224 148.357 425.209 148.454 425.175 148.545C425.141 148.636 425.089 148.719 425.021 148.789C424.95 148.856 424.867 148.908 424.775 148.941C424.684 148.975 424.586 148.99 424.489 148.985H423.925ZM430.6 141.117C431.903 141.117 432.936 140.833 433.688 140.26C434.44 139.687 435.006 138.905 435.316 138.012C435.646 137.084 435.834 136.094 435.88 135.035C435.898 134.418 435.898 133.801 435.88 133.185C435.843 132.17 435.653 131.166 435.316 130.208C435.005 129.315 434.438 128.534 433.687 127.96C432.936 127.387 431.902 127.102 430.6 127.102C429.338 127.102 428.32 127.401 427.545 127.992C426.784 128.569 426.193 129.341 425.834 130.226C425.476 131.082 425.268 131.993 425.218 132.919C425.195 133.25 425.187 133.681 425.187 134.208C425.187 134.736 425.196 135.167 425.218 135.497C425.245 136.4 425.455 137.288 425.834 138.108C426.219 138.97 426.827 139.712 427.595 140.26C428.38 140.833 429.381 141.117 430.6 141.117ZM410.01 143.036C408.992 143.047 407.985 142.82 407.07 142.375C406.215 141.966 405.469 141.359 404.896 140.604C404.348 139.888 404.056 139.009 404.065 138.108C404.065 136.612 404.676 135.41 405.89 134.506C407.106 133.602 408.689 133.02 410.639 132.754L415.887 132.029V130.869C415.887 129.703 415.524 128.781 414.809 128.111C414.089 127.437 412.942 127.101 411.368 127.101C410.217 127.101 409.289 127.327 408.579 127.781C407.873 128.231 407.387 128.822 407.12 129.548C407.01 129.876 406.799 130.043 406.487 130.043H405.959C405.693 130.043 405.505 129.974 405.39 129.827C405.279 129.681 405.221 129.501 405.226 129.317C405.226 129.006 405.344 128.621 405.575 128.162C405.808 127.698 406.166 127.24 406.657 126.785C407.144 126.336 407.772 125.955 408.547 125.647C409.322 125.341 410.262 125.185 411.368 125.185C412.676 125.185 413.755 125.358 414.607 125.713C415.461 126.065 416.126 126.523 416.604 127.084C417.076 127.647 417.414 128.272 417.613 128.951C417.815 129.635 417.911 130.309 417.911 130.97V141.98C417.916 142.077 417.901 142.174 417.867 142.264C417.833 142.355 417.781 142.438 417.714 142.508C417.643 142.575 417.559 142.627 417.468 142.661C417.376 142.695 417.279 142.71 417.182 142.705H416.617C416.519 142.71 416.422 142.695 416.33 142.661C416.239 142.627 416.155 142.575 416.085 142.508C416.017 142.438 415.965 142.355 415.931 142.264C415.897 142.173 415.882 142.076 415.887 141.979V140.424C415.571 140.874 415.191 141.274 414.759 141.613C414.272 142.012 413.643 142.347 412.882 142.623C412.116 142.898 411.161 143.035 410.01 143.035V143.036ZM410.34 141.117C411.359 141.117 412.29 140.898 413.13 140.457C413.969 140.017 414.639 139.338 415.139 138.425C415.64 137.512 415.887 136.359 415.887 134.97V133.846L411.603 134.443C409.786 134.681 408.414 135.103 407.483 135.695C406.555 136.291 406.088 137.039 406.088 137.943C406.088 138.672 406.299 139.269 406.722 139.732C407.144 140.191 407.68 140.539 408.331 140.768C408.983 141.003 409.652 141.117 410.34 141.117ZM394.798 142.705C394.7 142.71 394.603 142.695 394.511 142.661C394.42 142.627 394.336 142.575 394.266 142.508C394.199 142.437 394.148 142.354 394.114 142.263C394.08 142.173 394.065 142.076 394.068 141.979V126.277C394.068 126.056 394.137 125.873 394.266 125.731C394.334 125.659 394.417 125.603 394.508 125.565C394.6 125.528 394.699 125.511 394.798 125.515H395.33C395.551 125.515 395.734 125.589 395.881 125.731C395.952 125.802 396.007 125.888 396.044 125.982C396.081 126.076 396.099 126.176 396.096 126.277V127.795C396.466 127.049 397.073 126.446 397.822 126.079C398.574 125.704 399.505 125.516 400.61 125.516H401.84C402.061 125.516 402.239 125.579 402.372 125.712C402.439 125.783 402.491 125.866 402.525 125.958C402.559 126.049 402.574 126.146 402.569 126.244V126.702C402.574 126.8 402.56 126.897 402.526 126.989C402.492 127.081 402.439 127.164 402.372 127.235C402.301 127.302 402.217 127.355 402.126 127.388C402.035 127.422 401.937 127.437 401.84 127.432H400.413C399.082 127.432 398.032 127.818 397.257 128.588C396.482 129.36 396.096 130.41 396.096 131.731V141.98C396.099 142.079 396.082 142.176 396.045 142.267C396.008 142.358 395.952 142.44 395.881 142.508C395.729 142.642 395.532 142.712 395.33 142.705H394.798ZM380.42 143.036C378.516 143.036 376.914 142.669 375.621 141.93C374.351 141.216 373.322 140.139 372.666 138.838C371.988 137.516 371.621 135.993 371.551 134.277C371.528 133.281 371.52 132.236 371.52 131.134C371.52 130.034 371.528 128.987 371.552 127.992C371.621 126.253 371.988 124.727 372.668 123.413C373.33 122.116 374.365 121.046 375.639 120.34C376.943 119.6 378.54 119.234 380.419 119.234C381.948 119.234 383.255 119.459 384.338 119.914C385.424 120.362 386.311 120.927 386.994 121.597C387.682 122.271 388.191 122.946 388.522 123.628C388.856 124.313 389.031 124.885 389.054 125.349C389.069 125.436 389.062 125.526 389.033 125.609C389.004 125.693 388.955 125.768 388.889 125.827C388.742 125.955 388.551 126.02 388.357 126.01H387.627C387.426 126.01 387.282 125.96 387.196 125.863C387.104 125.762 387.017 125.593 386.93 125.349C386.686 124.628 386.308 123.961 385.814 123.382C385.298 122.753 384.599 122.234 383.724 121.832C382.851 121.423 381.746 121.216 380.42 121.216C378.447 121.216 376.85 121.753 375.621 122.822C374.392 123.89 373.735 125.671 373.644 128.162C373.579 130.145 373.579 132.129 373.644 134.112C373.735 136.58 374.392 138.351 375.621 139.434C376.851 140.512 378.447 141.054 380.42 141.054C381.727 141.054 382.898 140.806 383.939 140.31C384.975 139.821 385.834 139.022 386.398 138.025C386.994 137.003 387.292 135.695 387.292 134.112V132.424H381.516C381.417 132.428 381.318 132.41 381.227 132.373C381.135 132.336 381.052 132.279 380.984 132.208C380.849 132.059 380.778 131.863 380.787 131.662V131.199C380.787 130.96 380.851 130.773 380.984 130.639C381.055 130.571 381.138 130.519 381.23 130.485C381.321 130.451 381.418 130.437 381.516 130.441H388.623C388.866 130.441 389.054 130.506 389.186 130.639C389.32 130.773 389.385 130.96 389.385 131.199V134.112C389.385 135.873 389.036 137.429 388.338 138.774C387.656 140.102 386.592 141.195 385.282 141.911C383.944 142.659 382.323 143.035 380.42 143.035V143.036Z" fill="#545454"/>
<path d="M113.599 8.5415H65.515C65.515 20.5284 75.2191 30.2304 87.2007 30.2304H96.0477V38.791C96.0477 50.7779 105.751 60.481 117.738 60.481V12.6791C117.737 11.5819 117.3 10.53 116.524 9.75425C115.748 8.97851 114.696 8.54235 113.599 8.5415Z" fill="#2684FF"/>
<path d="M89.7721 32.5142H41.6881C41.6881 44.5011 51.3869 54.201 63.3738 54.201H72.2198V62.7637C72.2198 74.7506 81.9228 84.4547 93.9097 84.4547V36.6528C93.9089 35.5556 93.4727 34.5036 92.697 33.7277C91.9213 32.9517 90.8693 32.5153 89.7721 32.5142Z" fill="url(#paint0_linear_91_69)"/>
<path d="M65.9441 56.4839H17.8558C17.8558 68.4708 27.5589 78.1739 39.5448 78.1739H48.3928V86.7376C48.3928 98.7203 58.0948 108.423 70.0817 108.423V60.6226C70.0809 59.5254 69.6447 58.4733 68.869 57.6974C68.0932 56.9214 67.0413 56.485 65.9441 56.4839Z" fill="url(#paint1_linear_91_69)"/>
<path d="M48.9784 113.797H52.6347V131.877C52.6347 136.648 50.4595 139.975 45.4094 139.975C43.5141 139.975 42.0288 139.659 41.0098 139.301V135.837C42.1246 136.286 43.4673 136.511 44.811 136.511C47.9137 136.511 48.9784 134.714 48.9784 132.102V113.797ZM59.3512 112.4C60.7865 112.4 61.8054 113.256 61.8054 114.783C61.8054 116.268 60.7865 117.17 59.3512 117.17C57.917 117.17 56.898 116.313 56.898 114.783C56.898 113.303 57.917 112.4 59.3512 112.4ZM57.5464 120.003H61.0654V139.796H57.5464V120.003ZM69.7697 139.796H66.3444V120.003H69.7708V123.467C70.9772 121.126 73.0151 119.463 76.9951 119.688V123.018C72.504 122.569 69.7708 123.871 69.7708 128.101L69.7697 139.796ZM93.4402 136.24C92.1422 138.852 89.688 140.201 86.5353 140.201C81.121 140.201 78.3878 135.745 78.3878 129.897C78.3878 124.32 81.2573 119.599 86.9558 119.599C89.9169 119.599 92.2338 120.901 93.4402 123.467V120.003H96.9592V139.796H93.4402V136.24ZM87.4637 137.051C90.6122 137.051 93.3901 135.118 93.3901 130.709V129.136C93.3901 124.728 90.8454 122.793 87.8332 122.793C83.8989 122.793 81.86 125.31 81.86 129.897C81.9068 134.667 83.8532 137.051 87.4637 137.051Z" fill="#253858"/>
<defs>
<linearGradient id="paint0_linear_91_69" x1="92.91" y1="32.5681" x2="72.4508" y2="53.6641" gradientUnits="userSpaceOnUse">
<stop offset="0.176" stop-color="#0052CC"/>
<stop offset="1" stop-color="#2684FF"/>
</linearGradient>
<linearGradient id="paint1_linear_91_69" x1="70.4656" y1="56.669" x2="46.8101" y2="79.6836" gradientUnits="userSpaceOnUse">
<stop offset="0.176" stop-color="#0052CC"/>
<stop offset="1" stop-color="#2684FF"/>
</linearGradient>
<clipPath id="clip0_91_69">
<rect width="210.732" height="42.8049" fill="white" transform="translate(0 374)"/>
</clipPath>
<clipPath id="clip1_91_69">
<rect width="248.08" height="49.4222" fill="white" transform="translate(346 229)"/>
</clipPath>
<clipPath id="clip2_91_69">
<rect width="110.658" height="110.658" fill="white" transform="translate(709 19)"/>
</clipPath>
<clipPath id="clip3_91_69">
<rect width="111" height="110" fill="white" transform="translate(554 19)"/>
</clipPath>
<clipPath id="clip4_91_69">
<rect width="136.288" height="136.288" fill="white" transform="translate(180 6)"/>
</clipPath>
</defs>
</svg>
