<svg width="870" height="459" viewBox="0 0 870 459" fill="none" xmlns="http://www.w3.org/2000/svg">
<path d="M339 387.8C344.136 387.8 348.3 383.636 348.3 378.5C348.3 373.364 344.136 369.2 339 369.2C333.864 369.2 329.7 373.364 329.7 378.5C329.7 383.636 333.864 387.8 339 387.8Z" fill="#61DAFB"/>
<path d="M339 412.7C346.3 419.8 353.5 424 359.3 424C361.2 424 363 423.6 364.5 422.7C369.7 419.7 371.6 412.2 369.8 401.5C369.5 399.6 369.1 397.7 368.6 395.7C370.6 395.1 372.4 394.5 374.2 393.9C384.3 390 389.9 384.6 389.9 378.7C389.9 372.7 384.3 367.3 374.2 363.5C372.4 362.8 370.6 362.2 368.6 361.7C369.1 359.7 369.5 357.8 369.8 355.9C371.5 345 369.6 337.4 364.4 334.4C362.9 333.5 361.1 333.1 359.2 333.1C353.5 333.1 346.2 337.3 338.9 344.4C331.7 337.3 324.5 333.1 318.7 333.1C316.8 333.1 315 333.5 313.5 334.4C308.3 337.4 306.4 344.9 308.2 355.6C308.5 357.5 308.9 359.4 309.4 361.4C307.4 362 305.6 362.6 303.8 363.2C293.7 367.1 288.1 372.5 288.1 378.4C288.1 384.4 293.7 389.8 303.8 393.6C305.6 394.3 307.4 394.9 309.4 395.4C308.9 397.4 308.5 399.3 308.2 401.2C306.5 411.9 308.4 419.5 313.5 422.4C315 423.3 316.8 423.7 318.7 423.7C324.5 423.9 331.7 419.7 339 412.7ZM333.4 399.2C335.2 399.3 337.1 399.3 339 399.3C340.9 399.3 342.8 399.3 344.6 399.2C342.8 401.6 340.9 403.8 339 405.9C337.1 403.8 335.2 401.6 333.4 399.2ZM321 388.9C322 390.6 322.9 392.2 324 393.8C320.9 393.4 318 392.9 315.2 392.3C316.1 389.6 317.1 386.8 318.3 384C319.1 385.6 320 387.3 321 388.9ZM315.2 364.8C318 364.2 320.9 363.7 324 363.3C323 364.9 322 366.5 321 368.2C320 369.9 319.1 371.5 318.3 373.2C317 370.3 316 367.5 315.2 364.8ZM320.7 378.5C322 375.8 323.4 373.1 325 370.4C326.5 367.8 328.2 365.2 329.9 362.6C332.9 362.4 335.9 362.3 339 362.3C342.2 362.3 345.2 362.4 348.1 362.6C349.9 365.2 351.5 367.8 353 370.4C354.6 373.1 356 375.8 357.3 378.5C356 381.2 354.6 383.9 353 386.6C351.5 389.2 349.8 391.8 348.1 394.4C345.1 394.6 342.1 394.7 339 394.7C335.8 394.7 332.8 394.6 329.9 394.4C328.1 391.8 326.5 389.2 325 386.6C323.4 383.9 322 381.2 320.7 378.5ZM359.8 373.1L357.1 368.1C356.1 366.4 355.2 364.8 354.1 363.2C357.2 363.6 360.1 364.1 362.9 364.7C362 367.5 361 370.3 359.8 373.1ZM359.8 383.9C361 386.7 362 389.5 362.9 392.2C360.1 392.8 357.2 393.3 354.1 393.7C355.1 392.1 356.1 390.5 357.1 388.8C358 387.3 358.9 385.6 359.8 383.9ZM362.1 418.6C361.3 419.1 360.3 419.3 359.2 419.3C354.3 419.3 348.2 415.3 342.2 409.3C345.1 406.2 347.9 402.7 350.7 398.8C355.4 398.4 359.9 397.7 364.1 396.7C364.6 398.5 364.9 400.3 365.2 402.1C366.6 410.6 365.5 416.7 362.1 418.6ZM367.3 365.9C378.5 369.1 385.2 374 385.2 378.5C385.2 382.4 380.6 386.3 372.5 389.4C370.9 390 369.1 390.6 367.3 391.1C366 387 364.4 382.8 362.4 378.5C364.4 374.2 366.1 370 367.3 365.9ZM359.3 337.7C360.4 337.7 361.3 337.9 362.2 338.4C365.5 340.3 366.7 346.3 365.3 354.9C365 356.6 364.6 358.4 364.2 360.3C360 359.4 355.5 358.7 350.8 358.2C348.1 354.3 345.2 350.8 342.3 347.7C348.3 341.8 354.4 337.7 359.3 337.7ZM344.6 357.8C342.8 357.7 340.9 357.7 339 357.7C337.1 357.7 335.2 357.7 333.4 357.8C335.2 355.4 337.1 353.2 339 351.1C340.9 353.2 342.8 355.5 344.6 357.8ZM315.9 338.4C316.7 337.9 317.7 337.7 318.8 337.7C323.7 337.7 329.8 341.7 335.8 347.7C332.9 350.8 330.1 354.3 327.3 358.2C322.6 358.6 318.1 359.3 313.9 360.3C313.4 358.5 313.1 356.7 312.8 354.9C311.4 346.4 312.5 340.4 315.9 338.4ZM310.7 391.1C299.5 387.9 292.8 383 292.8 378.5C292.8 374.6 297.4 370.7 305.5 367.6C307.1 367 308.9 366.4 310.7 365.9C312 370 313.6 374.2 315.6 378.5C313.6 382.8 311.9 387.1 310.7 391.1ZM312.8 402.1C313.1 400.4 313.5 398.6 313.9 396.7C318.1 397.6 322.6 398.3 327.3 398.8C330 402.7 332.9 406.2 335.8 409.3C329.8 415.2 323.7 419.3 318.8 419.3C317.7 419.3 316.8 419.1 315.9 418.6C312.5 416.7 311.4 410.6 312.8 402.1ZM308.6 443.3C310.8 440.6 310.9 437.6 309.7 434.6C308.5 431.6 306 430.2 302.9 430.1C299.2 430 295.4 430.1 291.7 430.1H291V456H294V446.2H298.7C299.3 446.2 299.8 446.4 300.1 446.9L306.1 456.2C306.2 456.4 306.5 456.7 306.7 456.7H310.6C308.2 453 305.9 449.5 303.5 445.9C305.6 445.6 307.4 444.9 308.6 443.3ZM294 443.1V433.2H295.1C297.4 433.2 299.8 433.1 302.1 433.3C304.8 433.4 306.7 435.5 306.7 438.2C306.7 440.9 304.5 443 301.8 443.1C299.4 443.2 297 443.1 294 443.1ZM332.7 444.4C331.1 437.4 324.7 435.6 319.8 437.8C316 439.5 314.3 442.8 314.2 446.9C314.1 450 315 452.8 317.4 454.9C320.1 457.3 323.4 457.6 326.8 457C328.7 456.6 330.4 455.7 331.7 454.3C331.2 453.6 330.7 452.9 330.2 452.3C327.4 454.7 324.3 455.5 320.9 453.9C318.7 452.8 317.6 450.1 317.4 448.1H332.9V446.8C333 445.9 332.9 445.1 332.7 444.4ZM317.6 446C317.3 443 320.3 439.8 323.6 439.8C327.4 439.7 329.8 442 329.9 446H317.6ZM348.3 437.3C346.8 437 345.2 436.9 343.7 437C341.3 437.2 339.2 438.3 337.5 440.1C338 440.8 338.4 441.5 339 442.3C339.2 442.1 339.4 441.9 339.6 441.8C341.2 440.3 343.1 439.5 345.4 439.7C347.2 439.8 348.9 440.4 349.4 442.2C349.8 443.6 349.7 445.1 349.8 446.6C349.5 446.6 349.4 446.5 349.3 446.4C346.9 444.4 344.2 444 341.3 444.7C338.6 445.4 336.9 447.5 336.7 450.2C336.5 453.3 337.9 455.6 340.6 456.7C342.3 457.4 344.2 457.4 346 457C347.4 456.7 348 455.9 350 454.8V456.1H352.8C352.8 452.1 352.9 447.2 352.8 442.6C352.8 439.7 351.1 437.9 348.3 437.3ZM349.7 449.9C349.6 450.2 349.7 450.5 349.7 450.8C349.7 452.9 349.2 453.6 347.2 454.4C345.8 454.9 344.3 455.1 342.8 454.6C341.1 454.1 339.9 452.6 339.9 450.9C339.8 449.2 340.9 447.5 342.6 447C344.9 446.2 347 446.7 348.9 448.1C349.5 448.6 349.9 449.1 349.7 449.9ZM365.3 440C367.9 439.2 370.3 439.7 372.1 441.9L372.4 442.1C373.1 441.5 373.7 440.9 374.5 440.2C374.2 439.9 374.1 439.7 373.9 439.4C371 436.3 365.3 435.9 361.8 438.4C356.9 442 357 449 359.4 452.7C361.7 456.2 365 457.4 368.9 456.9C371.2 456.6 373.1 455.5 374.6 453.6C373.9 453 373.2 452.4 372.5 451.7C372.3 451.9 372.2 452 372.1 452.2C369.4 455.2 364.9 454.9 362.5 451.7C361.1 449.8 360.8 447.6 361.2 445.4C361.4 442.9 362.7 440.9 365.3 440ZM386.1 453.6C385.9 453.7 385.8 453.8 385.8 453.8C385 454.4 384.2 454.5 383.3 454.2C382.4 453.8 382.3 453 382.2 452.2V440.8C382.2 440.6 382.2 441 382.3 440H386.1V437H382.1V432H379.1V437.4H376.5C376.3 437.4 376 437.6 376 437.8C375.9 438.5 376 439 376 440H379.2V452.8C379.2 454.4 379.6 455.8 381 456.6C382.5 457.5 385.4 457.3 386.7 456.2C386.9 456.1 387 455.7 387 455.6C386.7 455 386.4 454.3 386.1 453.6Z" fill="#61DAFB"/>
<path d="M495.946 358.923V359.653C495.946 361.48 495.398 361.663 495.033 362.759C494.485 364.037 494.667 365.681 495.398 366.778C495.398 366.96 495.581 367.143 495.581 367.143C494.85 362.028 499.052 361.115 499.965 359.653C499.965 358.192 498.869 357.279 497.956 356.731C497.042 356.183 496.311 356 495.581 356C495.033 356 494.485 356.183 493.937 356.365C495.033 357.096 495.581 358.009 495.946 358.923Z" fill="#545454"/>
<path d="M516.953 371.71V372.44C516.953 372.988 516.771 373.354 516.771 373.719C516.588 374.084 516.588 374.632 516.405 374.998C516.223 375.363 516.04 375.911 515.857 376.276C515.674 376.642 515.492 377.19 515.309 377.555C515.126 377.92 514.761 378.286 514.578 378.651C514.396 379.016 514.03 379.382 513.665 379.747C513.3 380.112 513.117 380.478 512.752 380.843L512.204 381.391C512.021 381.574 511.838 381.574 511.656 381.757C511.29 382.122 510.925 382.305 510.56 382.487C510.194 382.67 509.829 383.035 509.281 383.218C508.916 383.401 508.368 383.583 508.002 383.766C507.637 383.949 507.089 384.131 506.724 384.131C506.358 384.314 505.81 384.314 505.445 384.497C504.897 384.497 504.532 384.679 503.984 384.679H501.609C501.061 384.679 500.696 384.497 500.148 384.497C499.6 384.497 499.234 384.314 498.869 384.131C499.234 384.131 499.782 384.131 500.148 383.949C500.696 383.949 501.061 383.766 501.426 383.583C501.792 383.401 502.34 383.401 502.705 383.218C503.07 383.035 503.618 382.853 503.984 382.67C504.349 382.487 504.714 382.305 505.262 381.939C505.628 381.757 505.993 381.391 506.358 381.209C506.724 380.843 507.089 380.66 507.454 380.295L508.368 379.382C508.733 379.016 508.916 378.651 509.281 378.286C509.281 378.286 509.281 378.103 509.464 378.103C509.646 377.738 509.829 377.372 510.012 377.19C510.194 376.824 510.377 376.459 510.56 375.911C510.742 375.546 510.925 374.998 511.108 374.632C511.29 374.267 511.29 373.719 511.473 373.354C511.473 372.806 511.656 372.44 511.656 372.075V369.7C511.656 369.152 511.473 368.787 511.473 368.422C511.473 367.874 511.29 367.508 511.108 367.143C510.925 366.778 510.742 366.23 510.742 365.864C510.56 365.499 510.377 364.951 510.194 364.586C510.012 364.22 509.829 363.855 509.464 363.307C509.281 362.942 508.916 362.576 508.733 362.211C508.368 361.845 508.185 361.48 507.82 361.115L507.272 360.567C506.358 359.836 505.445 359.105 504.349 358.557C504.166 358.557 504.166 358.375 503.984 358.375C503.253 358.009 502.705 357.644 501.974 357.461V358.557C501.974 358.74 501.974 358.923 501.792 359.105C501.792 359.288 501.609 359.471 501.609 359.653C501.609 359.836 501.426 360.019 501.426 360.201L501.244 360.384C501.244 360.384 501.244 360.567 501.061 360.567C500.878 360.749 500.878 360.932 500.696 360.932L500.33 361.297L499.965 361.663C499.6 362.028 499.052 362.211 498.686 362.576C498.504 362.759 498.321 362.759 498.321 362.942L497.956 363.307L497.59 363.672L497.225 364.038C497.042 364.22 497.042 364.403 496.859 364.403C496.859 364.586 496.677 364.768 496.677 364.951C496.677 365.134 496.494 365.316 496.494 365.499C496.494 365.682 496.311 365.864 496.311 366.047V367.874C496.311 368.056 496.311 368.239 496.494 368.422C496.494 368.604 496.677 368.787 496.677 368.97C496.677 369.152 496.859 369.152 496.859 369.335L492.11 367.508C491.379 367.326 490.466 367.143 489.735 366.96C489.37 366.778 488.822 366.778 488.457 366.595C487.178 366.412 485.899 366.23 484.803 366.047H484.621C483.342 365.864 482.246 365.864 480.967 365.864C480.054 365.864 479.141 365.864 478.227 366.047C476.948 366.047 475.67 366.23 474.574 366.412C474.208 366.412 474.026 366.595 473.66 366.595C473.112 366.778 472.382 366.778 471.834 366.96C471.468 366.96 471.286 367.143 470.92 367.143C470.555 367.326 470.372 367.326 470.007 367.508C469.824 367.691 469.642 367.691 469.276 367.874H469.094C468.911 368.056 468.728 368.056 468.546 368.239H468.363C468.18 368.422 467.998 368.422 467.815 368.604C467.632 368.604 467.45 368.787 467.45 368.787C467.45 368.787 467.267 368.787 467.267 368.97C467.084 369.152 466.902 369.152 466.719 369.335C466.536 369.518 466.354 369.518 466.171 369.7C465.988 369.883 465.806 369.883 465.806 370.066C465.623 370.066 465.623 370.248 465.44 370.431C465.258 370.431 465.258 370.614 465.075 370.614H464.892C464.71 370.614 464.71 370.796 464.527 370.796L464.162 371.162L463.796 371.527C463.614 371.162 463.614 371.162 463.431 371.344C463.431 371.344 463.248 371.344 463.248 371.527L462.883 371.892V372.075L462.335 372.623C461.97 372.988 461.604 373.354 461.239 373.536C460.874 373.902 460.508 374.084 460.143 374.45C459.778 374.815 459.412 374.998 458.864 375.18C458.499 375.363 458.133 375.546 457.585 375.728C457.22 375.911 456.672 376.094 456.307 376.276C455.393 376.459 454.48 376.824 453.749 376.824H453.201C453.019 376.824 452.836 376.824 452.653 377.007C452.653 377.19 452.471 377.19 452.288 377.19C452.105 377.19 451.923 377.372 451.74 377.372C451.557 377.555 451.375 377.555 451.375 377.738C451.192 377.92 451.009 377.92 451.009 378.103C450.827 378.286 450.644 378.286 450.644 378.468L450.279 378.834C450.096 379.016 450.096 379.199 449.913 379.382C449.731 379.564 449.731 379.747 449.548 379.93C449.548 380.112 449.365 380.295 449.365 380.478C449.365 380.66 449.183 380.843 449.183 381.026C449.183 381.208 449.183 381.391 449 381.574V383.035C449 383.218 449 383.218 449.183 383.401C449.183 383.583 449.365 383.583 449.365 383.766C449.365 383.949 449.548 383.949 449.548 384.131L449.913 384.497L450.279 384.862C450.827 385.227 450.827 385.41 451.557 385.775C451.74 385.775 451.74 385.958 451.923 385.958V386.141C451.923 386.323 451.923 386.506 452.105 386.689C452.105 386.871 452.288 387.054 452.288 387.237C452.288 387.419 452.471 387.419 452.471 387.602V387.785C452.471 387.967 452.653 388.15 452.653 388.15C452.836 388.333 452.836 388.515 453.019 388.515L453.384 388.881L453.749 389.246L454.115 389.611C454.297 389.794 454.48 389.794 454.48 389.794C454.663 389.794 454.845 389.977 455.028 389.977H455.759V392.534C456.307 393.082 457.22 391.803 458.133 390.342C457.951 391.803 457.951 393.447 458.133 393.813C458.316 394.361 459.595 392.717 460.691 390.89C475.122 387.602 488.457 397.466 489.735 411.714C489.553 409.522 486.813 408.244 485.534 408.609C484.986 410.07 483.89 412.08 482.246 413.176C482.429 411.897 482.246 410.436 482.063 409.157C481.698 410.984 480.785 412.81 479.506 414.272C477.496 414.454 475.67 413.541 474.574 412.08L474.391 411.897C474.391 411.714 474.208 411.532 474.208 411.532C474.208 411.349 474.026 411.166 474.026 411.166V410.436C474.026 410.253 474.026 410.07 474.208 410.07C474.208 409.888 474.208 409.705 474.391 409.705C474.391 409.522 474.574 409.34 474.574 409.34C474.939 408.426 474.939 407.513 474.208 407.148C474.026 407.148 474.026 406.965 473.843 406.965H473.478C473.295 406.965 473.112 406.965 473.112 406.782H471.286C471.103 406.782 470.92 406.782 470.92 406.965C470.738 406.965 470.738 407.148 470.555 407.148C470.372 407.148 470.372 407.33 470.19 407.33C464.892 410.07 467.815 417.377 470.92 419.386C469.642 419.569 468.363 419.934 468.18 420.117C469.094 420.665 470.007 421.031 470.92 421.396C472.199 421.761 473.66 422.127 474.208 422.309C475.852 422.675 477.679 422.857 479.323 422.675C488.457 422.127 495.763 415.185 497.225 406.052C497.225 406.234 497.225 406.417 497.408 406.6C497.408 406.965 497.59 407.33 497.59 407.696V413.358C497.59 413.541 497.59 413.724 497.408 413.906C497.408 414.089 497.408 414.272 497.225 414.454C497.225 414.637 497.225 414.82 497.042 415.002C497.042 415.185 496.859 415.368 496.859 415.55C496.859 415.733 496.677 415.916 496.677 416.098C496.677 416.281 496.494 416.464 496.494 416.646C496.494 416.829 496.311 417.012 496.311 417.194C496.311 417.377 496.129 417.56 496.129 417.742C496.129 417.925 495.946 418.108 495.946 418.29V418.473C494.667 421.213 492.658 423.588 490.283 425.415C490.101 425.597 489.918 425.597 489.735 425.78C489.735 425.78 489.553 425.78 489.553 425.963C489.37 426.145 489.187 426.145 489.187 426.328V426.511C489.553 426.511 489.735 426.511 490.101 426.328C490.649 426.328 491.197 426.145 491.745 425.963C491.927 425.963 492.11 425.963 492.11 425.78H492.841C493.023 425.78 493.023 425.78 493.206 425.597C495.215 425.049 497.225 424.501 499.052 423.588C495.763 427.972 491.379 431.625 486.447 434C488.822 433.817 491.197 433.452 493.389 432.721C501.609 430.347 508.55 424.684 512.752 417.377C511.838 422.127 510.012 426.511 507.272 430.529C509.281 429.251 511.108 427.789 512.752 425.963C517.319 421.213 520.241 415.185 521.337 408.609C522.068 411.897 522.251 415.185 521.885 418.473C536.134 398.745 522.616 377.372 516.953 371.71ZM586.368 408.244C587.098 389.429 585.637 387.785 585.637 387.785C577.417 374.45 563.899 387.785 563.899 387.785V380.112H561.89C559.15 385.045 551.295 385.958 551.295 385.958V387.967C556.41 389.063 555.862 391.438 555.862 391.438C555.862 391.438 556.045 403.677 556.045 407.513C556.045 411.349 554.766 410.618 554.766 410.618L551.295 411.349V413.541C554.949 412.445 567.918 413.541 567.918 413.541L568.101 411.349C564.265 410.801 563.899 408.426 563.899 408.426V390.342C567.37 387.237 570.658 386.141 570.658 386.141C577.417 384.497 577.965 391.073 577.965 391.073L578.148 407.696C579.426 412.08 573.033 411.349 573.033 411.349L573.215 413.541L583.262 412.81L590.021 413.541V411.349C586.733 410.801 586.55 410.801 586.368 408.244ZM610.115 381.209C595.501 381.209 594.771 394.361 594.771 394.361C594.771 394.361 592.213 414.272 610.115 414.272C621.623 414.272 625.094 407.696 625.094 407.696L622.902 405.686C622.902 405.686 605.731 418.108 603.539 394.543H625.276C625.094 394.361 624.728 381.209 610.115 381.209ZM616.874 391.986H603.356V391.073C603.356 387.237 606.461 383.949 610.48 383.949C613.951 383.949 616.874 386.871 616.874 390.342V391.986ZM648.841 394.909C643.909 393.995 640.621 392.717 640.621 392.717C640.621 392.717 632.949 389.611 639.707 385.045C647.197 381.208 651.581 392.169 651.581 392.169C651.581 392.169 653.225 392.534 654.321 391.621C654.686 390.525 653.408 383.949 653.408 383.949C653.408 383.949 651.033 381.026 639.159 381.939C639.159 381.939 632.766 383.401 631.67 389.429C630.574 395.457 634.41 398.745 634.41 398.745C634.41 398.745 636.054 401.12 641.717 401.668C646.649 402.216 648.841 404.225 648.841 404.225C648.841 404.225 651.398 406.6 648.658 409.522C645.918 412.445 642.265 411.349 642.265 411.349C642.265 411.349 638.063 411.532 633.131 402.946L630.756 403.129L631.67 411.714C631.67 411.714 643.361 418.29 652.312 411.714C661.445 403.494 653.773 395.822 648.841 394.909ZM681.173 407.513C675.511 412.262 674.415 406.6 674.415 406.6V387.237H682.087V383.583H674.78V375.728H672.405C669.117 382.67 661.81 385.045 661.81 385.045V386.506C661.81 387.419 662.541 387.419 662.541 387.419H666.194C666.194 387.419 665.829 401.485 666.012 406.417C666.194 411.349 669.665 412.81 669.665 412.81C669.665 412.81 672.04 414.089 675.876 413.724C679.712 413.358 682.452 409.522 682.452 409.522L681.173 407.513Z" fill="#545454"/>
<g clip-path="url(#clip0_100_104)">
<path d="M195.794 374.018V380.792H181.233V416.434H173.952V380.793H159.088V374.018H195.794ZM197.43 412.394C197.943 412.394 198.392 412.578 198.772 412.948C199.157 413.317 199.349 413.76 199.354 414.275C199.353 414.613 199.259 414.944 199.083 415.233C198.909 415.517 198.667 415.753 198.377 415.918C198.091 416.089 197.764 416.178 197.43 416.176C196.897 416.176 196.444 415.991 196.064 415.622C195.684 415.252 195.496 414.805 195.501 414.275C195.496 413.76 195.684 413.317 196.064 412.948C196.444 412.578 196.897 412.394 197.43 412.394ZM53.127 416.434L26.2809 383.066V416.417H19V374H28.1006L62.0177 416.117L62.0181 380.793L62.0152 374.018H98.7204V380.792H69.2986V391.691H92.9598V398.466H69.2986V409.66H98.7208V416.434H53.127ZM122.055 398.402L126.826 404.334L117.049 416.485H107.494L122.055 398.402ZM117.049 374.035L129.368 389.334L141.648 374.082L151.176 374.068L134.138 395.258L151.204 416.452H141.648L107.521 374.035H117.049ZM209.857 398.307H213.083V410.736C213.078 411.879 212.831 412.855 212.348 413.677C211.859 414.498 211.183 415.126 210.316 415.568C209.452 416.005 208.441 416.229 207.291 416.229C206.24 416.229 205.299 416.04 204.46 415.67C203.621 415.301 202.956 414.747 202.467 414.017C201.973 413.288 201.732 412.379 201.732 411.29H204.963C204.968 411.767 205.077 412.179 205.284 412.525C205.487 412.866 205.786 413.141 206.142 413.317C206.512 413.502 206.936 413.595 207.414 413.595C207.933 413.595 208.377 413.487 208.737 413.269C209.096 413.055 209.373 412.734 209.566 412.306C209.753 411.883 209.852 411.358 209.857 410.736V398.307ZM226.357 403.167C226.279 402.414 225.933 401.826 225.331 401.408C224.724 400.985 223.94 400.776 222.978 400.776C222.303 400.776 221.721 400.878 221.237 401.077C220.754 401.282 220.379 401.554 220.122 401.899C219.866 402.244 219.738 402.638 219.727 403.08C219.727 403.449 219.816 403.77 219.989 404.038C220.168 404.318 220.409 404.552 220.694 404.723C221.004 404.918 221.335 405.076 221.681 405.194C222.046 405.321 222.411 405.428 222.776 405.516L224.458 405.929C225.134 406.084 225.79 406.293 226.417 406.561C227.043 406.823 227.61 407.159 228.108 407.562C228.607 407.965 229.002 408.451 229.293 409.02C229.584 409.589 229.732 410.255 229.732 411.023C229.732 412.058 229.465 412.967 228.927 413.755C228.39 414.537 227.615 415.15 226.599 415.592C225.588 416.03 224.364 416.253 222.924 416.253C221.533 416.253 220.32 416.039 219.298 415.612C218.272 415.189 217.473 414.566 216.896 413.75C216.319 412.933 216.008 411.937 215.963 410.765H219.161C219.205 411.378 219.402 411.888 219.738 412.301C220.078 412.71 220.522 413.011 221.065 413.215C221.612 413.415 222.224 413.517 222.899 413.517C223.605 413.517 224.226 413.41 224.764 413.201C225.297 412.992 225.716 412.7 226.017 412.321C226.323 411.946 226.476 411.504 226.481 410.999C226.476 410.537 226.337 410.153 226.071 409.851C225.8 409.55 225.425 409.297 224.946 409.093C224.463 408.889 223.901 408.704 223.26 408.544L221.217 408.029C219.742 407.654 218.573 407.086 217.72 406.322C216.861 405.559 216.437 404.548 216.437 403.279C216.437 402.239 216.723 401.325 217.301 400.542C217.873 399.76 218.657 399.152 219.649 398.72C220.645 398.282 221.77 398.068 223.022 398.068C224.296 398.068 225.41 398.282 226.372 398.72C227.334 399.152 228.089 399.755 228.636 400.523C229.184 401.291 229.47 402.171 229.485 403.167H226.357Z" fill="black"/>
</g>
<path d="M854 389.667V379H843.333V368.333C843.325 365.507 842.198 362.799 840.2 360.8C838.201 358.802 835.493 357.675 832.667 357.667H822V347H811.333V357.667H800.667V347H790V357.667H779.333C776.507 357.675 773.799 358.802 771.8 360.8C769.802 362.799 768.675 365.507 768.667 368.333V379H758V389.667H768.667V400.333H758V411H768.667V421.667C768.675 424.493 769.802 427.201 771.8 429.2C773.799 431.198 776.507 432.325 779.333 432.333H790V443H800.667V432.333H811.333V443H822V432.333H832.667C835.493 432.325 838.201 431.198 840.2 429.2C842.198 427.201 843.325 424.493 843.333 421.667V411H854V400.333H843.333V389.667H854ZM832.667 421.667H779.333V368.333H832.667V421.667Z" fill="#545454"/>
<path d="M802.592 373.667H795.419L784.699 416.333H790.176L792.651 406.333H805.003L807.413 416.333H813.077L802.592 373.667ZM793.371 402.061L798.8 378.733H799.045L804.288 402.061H793.371ZM817.968 373.667H823.301V416.333H817.968V373.667Z" fill="#545454"/>
<g clip-path="url(#clip1_100_104)">
<path d="M266.142 291.732C265.628 291.732 265.147 291.595 264.701 291.356L260.138 288.651C259.451 288.275 259.795 288.138 260.001 288.069C260.927 287.761 261.098 287.693 262.059 287.145C262.162 287.077 262.3 287.111 262.402 287.179L265.902 289.267C266.039 289.336 266.211 289.336 266.314 289.267L280.004 281.36C280.141 281.292 280.21 281.155 280.21 280.984V265.203C280.21 265.032 280.141 264.895 280.004 264.827L266.314 256.954C266.176 256.885 266.005 256.885 265.902 256.954L252.212 264.827C252.075 264.895 252.006 265.066 252.006 265.203V280.983C252.006 281.12 252.075 281.291 252.212 281.36L255.952 283.517C257.976 284.543 259.246 283.345 259.246 282.147V266.572C259.246 266.367 259.417 266.161 259.657 266.161H261.407C261.613 266.161 261.819 266.333 261.819 266.572V282.147C261.819 284.851 260.343 286.426 257.77 286.426C256.981 286.426 256.364 286.426 254.613 285.57L251.011 283.517C250.119 283.003 249.57 282.045 249.57 281.018V265.237C249.57 264.21 250.119 263.252 251.011 262.738L264.701 254.831C265.559 254.352 266.726 254.352 267.583 254.831L281.273 262.738C282.166 263.252 282.715 264.21 282.715 265.237V281.018C282.715 282.045 282.166 283.003 281.273 283.517L267.583 291.424C267.137 291.629 266.622 291.732 266.142 291.732ZM270.362 280.881C264.358 280.881 263.123 278.142 263.123 275.815C263.123 275.609 263.294 275.404 263.535 275.404H265.319C265.525 275.404 265.696 275.541 265.696 275.746C265.971 277.56 266.76 278.45 270.397 278.45C273.279 278.45 274.514 277.8 274.514 276.26C274.514 275.37 274.171 274.719 269.676 274.274C265.936 273.898 263.603 273.076 263.603 270.098C263.603 267.325 265.937 265.682 269.848 265.682C274.24 265.682 276.401 267.189 276.676 270.474C276.676 270.577 276.642 270.68 276.573 270.783C276.504 270.851 276.401 270.92 276.298 270.92H274.514C274.343 270.92 274.171 270.783 274.137 270.611C273.725 268.729 272.661 268.113 269.848 268.113C266.691 268.113 266.314 269.208 266.314 270.029C266.314 271.022 266.76 271.33 271.014 271.878C275.235 272.426 277.225 273.213 277.225 276.157C277.191 279.169 274.72 280.881 270.362 280.881Z" fill="#539E43"/>
<path d="M223.665 230.014C223.665 229.397 223.321 228.815 222.772 228.507L208.224 220.155C207.984 220.018 207.71 219.949 207.435 219.915H207.298C207.024 219.915 206.749 220.018 206.509 220.155L191.961 228.507C191.411 228.815 191.069 229.397 191.069 230.014L191.103 252.469C191.103 252.777 191.275 253.085 191.549 253.222C191.824 253.393 192.166 253.393 192.407 253.222L201.053 248.293C201.602 247.985 201.945 247.403 201.945 246.787V236.278C201.945 235.662 202.288 235.08 202.838 234.772L206.509 232.649C206.783 232.478 207.092 232.409 207.401 232.409C207.71 232.409 208.018 232.478 208.259 232.649L211.93 234.772C212.479 235.08 212.822 235.661 212.822 236.278V246.787C212.822 247.403 213.165 247.985 213.714 248.293L222.361 253.222C222.494 253.306 222.649 253.35 222.807 253.35C222.965 253.35 223.119 253.306 223.253 253.222C223.527 253.085 223.699 252.777 223.699 252.469L223.665 230.014ZM293.591 199.103C293.317 198.966 292.974 198.966 292.733 199.103C292.459 199.274 292.288 199.548 292.288 199.856V222.106C292.288 222.311 292.185 222.517 291.979 222.654C291.773 222.756 291.567 222.756 291.361 222.654L287.724 220.566C287.458 220.414 287.156 220.335 286.849 220.335C286.542 220.335 286.241 220.414 285.974 220.566L271.426 228.952C270.877 229.26 270.534 229.842 270.534 230.458V247.197C270.534 247.813 270.877 248.396 271.426 248.704L285.974 257.09C286.241 257.242 286.542 257.321 286.849 257.321C287.156 257.321 287.458 257.242 287.724 257.09L302.272 248.704C302.821 248.396 303.164 247.814 303.164 247.197V205.47C303.164 204.819 302.821 204.238 302.272 203.929L293.591 199.103ZM292.253 241.686C292.253 241.857 292.185 241.994 292.047 242.063L287.072 244.938C287.003 244.972 286.927 244.989 286.849 244.989C286.772 244.989 286.696 244.972 286.626 244.938L281.651 242.063C281.514 241.994 281.445 241.823 281.445 241.686V235.935C281.445 235.764 281.514 235.627 281.651 235.559L286.626 232.683C286.696 232.649 286.772 232.632 286.849 232.632C286.927 232.632 287.003 232.649 287.072 232.683L292.047 235.559C292.185 235.627 292.253 235.798 292.253 235.935V241.686ZM342.005 235.798C342.554 235.49 342.863 234.908 342.863 234.292V230.219C342.863 229.603 342.52 229.021 342.005 228.713L327.56 220.36C327.293 220.209 326.992 220.129 326.685 220.129C326.378 220.129 326.076 220.209 325.81 220.36L311.262 228.747C310.712 229.055 310.37 229.637 310.37 230.253V246.992C310.37 247.608 310.713 248.19 311.262 248.498L325.707 256.713C326.256 257.021 326.908 257.021 327.423 256.713L336.172 251.853C336.446 251.716 336.618 251.408 336.618 251.1C336.618 250.792 336.446 250.484 336.172 250.347L321.555 241.96C321.281 241.789 321.109 241.515 321.109 241.207V235.97C321.109 235.662 321.281 235.354 321.555 235.217L326.118 232.615C326.252 232.531 326.407 232.487 326.565 232.487C326.722 232.487 326.877 232.531 327.011 232.615L331.574 235.217C331.849 235.388 332.02 235.662 332.02 235.97V240.078C332.02 240.386 332.192 240.694 332.466 240.831C332.6 240.914 332.754 240.959 332.912 240.959C333.07 240.959 333.225 240.914 333.358 240.831L342.005 235.798Z" fill="#333333"/>
<path d="M326.462 235.011C326.513 234.977 326.572 234.959 326.633 234.959C326.694 234.959 326.754 234.977 326.805 235.011L329.584 236.62C329.687 236.688 329.756 236.791 329.756 236.928V240.146C329.756 240.283 329.687 240.385 329.584 240.454L326.805 242.063C326.754 242.096 326.694 242.114 326.633 242.114C326.572 242.114 326.513 242.096 326.462 242.063L323.683 240.454C323.58 240.385 323.511 240.283 323.511 240.146V236.928C323.511 236.791 323.579 236.688 323.683 236.62L326.462 235.011Z" fill="#539E43"/>
<path d="M247.991 220.429C247.725 220.277 247.423 220.198 247.117 220.198C246.81 220.198 246.508 220.277 246.242 220.429L231.797 228.746C231.247 229.054 230.939 229.636 230.939 230.252V246.923C230.939 247.539 231.282 248.121 231.797 248.429L246.242 256.747C246.508 256.899 246.81 256.978 247.117 256.978C247.423 256.978 247.725 256.899 247.991 256.747L262.437 248.429C262.986 248.121 263.295 247.539 263.295 246.923V230.253C263.295 229.637 262.951 229.055 262.437 228.747L247.991 220.429Z" fill="url(#paint0_linear_100_104)"/>
</g>
<path d="M783.555 240.893C779.51 240.893 776.498 242.879 776.498 247.658C776.498 251.259 778.483 253.76 783.337 253.76C787.451 253.76 790.245 251.335 790.245 247.509C790.245 243.173 787.745 240.893 783.555 240.893ZM775.468 274.642C774.511 275.816 773.557 277.065 773.557 278.537C773.557 281.476 777.305 282.36 782.453 282.36C786.716 282.36 792.525 282.061 792.525 278.097C792.525 275.74 789.731 275.595 786.2 275.374L775.468 274.642ZM797.23 241.115C798.551 242.806 799.95 245.159 799.95 248.541C799.95 256.701 793.554 261.479 784.292 261.479C781.937 261.479 779.805 261.186 778.483 260.819L776.056 264.714L783.26 265.155C795.98 265.965 803.476 266.334 803.476 276.108C803.476 284.564 796.053 289.341 783.26 289.341C769.954 289.341 764.881 285.958 764.881 280.151C764.881 276.843 766.351 275.082 768.925 272.651C766.498 271.626 765.69 269.789 765.69 267.802C765.69 266.184 766.498 264.715 767.823 263.316C769.146 261.921 770.616 260.523 772.38 258.906C768.779 257.141 766.057 253.318 766.057 247.877C766.057 239.424 771.645 233.618 782.891 233.618C786.054 233.618 787.966 233.908 789.657 234.353H803.994V240.6L797.23 241.115ZM816.929 227.755C812.737 227.755 810.311 225.327 810.311 221.135C810.311 216.948 812.736 214.667 816.929 214.667C821.192 214.667 823.619 216.948 823.619 221.135C823.619 225.327 821.193 227.755 816.929 227.755ZM807.443 271.936V266.131L811.194 265.618C812.223 265.47 812.369 265.25 812.369 264.145V242.53C812.369 241.724 812.15 241.207 811.412 240.988L807.443 239.59L808.251 233.637H823.471V264.145C823.471 265.323 823.542 265.47 824.648 265.619L828.397 266.132V271.936H807.443ZM857.47 269.086C854.308 270.629 849.676 272.026 845.484 272.026C836.736 272.026 833.429 268.501 833.429 260.189V240.929C833.429 240.488 833.429 240.194 832.839 240.194H827.693V233.649C834.165 232.912 836.736 229.677 837.544 221.664H844.53V232.106C844.53 232.619 844.53 232.841 845.119 232.841H855.484V240.193H844.53V257.763C844.53 262.1 845.56 263.79 849.528 263.79C851.589 263.79 853.719 263.276 855.483 262.615L857.47 269.086Z" fill="#2F2707"/>
<path d="M748.539 249.793L714.923 216.18C714.463 215.72 713.917 215.354 713.315 215.105C712.713 214.856 712.069 214.728 711.417 214.728C710.766 214.728 710.122 214.856 709.52 215.105C708.918 215.354 708.372 215.72 707.912 216.18L700.931 223.161L709.786 232.015C710.827 231.661 711.946 231.606 713.017 231.855C714.087 232.104 715.067 232.649 715.844 233.426C716.626 234.209 717.171 235.195 717.418 236.273C717.666 237.351 717.605 238.476 717.243 239.521L725.776 248.055C727.84 247.344 730.223 247.804 731.871 249.456C732.419 250.003 732.854 250.654 733.151 251.369C733.447 252.085 733.6 252.852 733.6 253.627C733.6 254.402 733.447 255.169 733.151 255.885C732.854 256.601 732.419 257.251 731.871 257.799C730.907 258.764 729.638 259.365 728.281 259.5C726.923 259.634 725.561 259.295 724.426 258.538C723.29 257.782 722.452 256.655 722.054 255.35C721.656 254.045 721.723 252.643 722.243 251.381L714.285 243.423L714.284 264.366C714.861 264.651 715.388 265.028 715.844 265.482C716.392 266.03 716.827 266.68 717.123 267.396C717.42 268.112 717.573 268.879 717.573 269.654C717.573 270.429 717.42 271.196 717.123 271.912C716.827 272.628 716.392 273.279 715.844 273.826C713.539 276.132 709.803 276.132 707.501 273.826C706.813 273.139 706.306 272.293 706.025 271.362C705.743 270.432 705.696 269.446 705.887 268.493C706.078 267.54 706.501 266.649 707.12 265.899C707.738 265.149 708.533 264.564 709.432 264.195V243.057C708.709 242.762 708.052 242.324 707.501 241.769C705.755 240.026 705.335 237.464 706.23 235.32L697.502 226.59L674.453 249.637C673.993 250.097 673.627 250.644 673.378 251.246C673.129 251.848 673.001 252.493 673.001 253.144C673.001 253.795 673.129 254.44 673.378 255.042C673.627 255.644 673.993 256.19 674.453 256.651L708.068 290.265C708.998 291.194 710.259 291.717 711.574 291.717C712.889 291.717 714.15 291.194 715.08 290.265L748.539 256.808C749.468 255.877 749.991 254.616 749.991 253.3C749.991 251.985 749.468 250.723 748.539 249.793Z" fill="#DE4C36"/>
<path d="M72 309C70.4891 309 69.0046 308.603 67.696 307.848L54 299.74C51.956 298.596 52.952 298.192 53.628 297.956C55.8019 297.284 57.8834 296.344 59.824 295.156C59.9864 295.081 60.1654 295.048 60.3438 295.062C60.5223 295.075 60.6945 295.134 60.844 295.232L71.368 301.484C71.564 301.588 71.7823 301.642 72.004 301.642C72.2257 301.642 72.444 301.588 72.64 301.484L113.68 277.796C113.872 277.681 114.031 277.518 114.141 277.323C114.251 277.128 114.309 276.908 114.308 276.684V229.3C114.308 229.072 114.25 228.849 114.138 228.651C114.027 228.452 113.866 228.286 113.672 228.168L72.632 204.5C72.4385 204.391 72.2201 204.334 71.998 204.334C71.7759 204.334 71.5575 204.391 71.364 204.5L30.348 228.176C30.1523 228.292 29.9899 228.456 29.8764 228.653C29.7628 228.85 29.7021 229.073 29.7 229.3V276.664C29.7006 276.887 29.7605 277.106 29.8736 277.299C29.9868 277.492 30.1491 277.651 30.344 277.76L41.6 284.256C47.7 287.304 51.436 283.712 51.436 280.104V233.34C51.436 233.022 51.5624 232.716 51.7875 232.491C52.0125 232.266 52.3177 232.14 52.636 232.14H57.836C58.1543 232.14 58.4595 232.266 58.6845 232.491C58.9096 232.716 59.036 233.022 59.036 233.34V280.108C59.036 288.248 54.604 292.908 46.884 292.908C43.5535 292.966 40.2752 292.075 37.432 290.34L26.644 284.152C25.3343 283.389 24.2477 282.296 23.4924 280.982C22.7372 279.669 22.3398 278.179 22.34 276.664V229.3C22.3361 227.782 22.7318 226.29 23.4873 224.973C24.2428 223.657 25.3315 222.562 26.644 221.8L67.688 198.104C69.0101 197.381 70.4929 197.001 72 197.001C73.507 197.001 74.9899 197.381 76.312 198.104L117.352 221.8C118.661 222.561 119.748 223.652 120.504 224.965C121.26 226.277 121.659 227.765 121.66 229.28V276.664C121.658 278.179 121.259 279.668 120.503 280.982C119.747 282.295 118.661 283.388 117.352 284.152L76.312 307.848C75.0009 308.604 73.5136 309.002 72 309Z" fill="#83CD29"/>
<path d="M64.216 260.812C64.216 260.494 64.3424 260.188 64.5675 259.963C64.7925 259.738 65.0977 259.612 65.416 259.612H70.724C71.0076 259.613 71.2817 259.714 71.4977 259.898C71.7138 260.082 71.8577 260.336 71.904 260.616C72.704 266.02 75.104 268.744 85.956 268.744C94.6 268.744 98.284 266.788 98.284 262.2C98.284 259.556 97.24 257.592 83.804 256.276C72.572 255.164 65.628 252.676 65.628 243.7C65.628 235.42 72.608 230.48 84.308 230.48C97.456 230.48 103.964 235.044 104.788 244.836C104.801 244.999 104.78 245.164 104.726 245.319C104.673 245.474 104.588 245.616 104.478 245.737C104.367 245.858 104.233 245.956 104.083 246.023C103.934 246.09 103.772 246.126 103.608 246.128H98.264C97.9959 246.124 97.7368 246.031 97.528 245.863C97.3192 245.694 97.1728 245.461 97.112 245.2C95.836 239.516 92.712 237.7 84.312 237.7C74.872 237.7 73.776 240.988 73.776 243.452C73.776 246.436 75.072 247.308 87.816 248.992C100.428 250.66 106.42 253.02 106.42 261.884C106.42 270.828 98.964 275.948 85.96 275.948C67.98 275.972 64.216 267.728 64.216 260.812Z" fill="#83CD29"/>
<g clip-path="url(#clip2_100_104)">
<path d="M620.827 266.325L620.827 266.329C620.978 268.04 622.345 270.216 624.715 270.216H626.102C626.64 270.216 627.08 269.775 627.08 269.237V238.742H627.074C627.061 238.493 626.952 238.259 626.772 238.087C626.591 237.915 626.351 237.818 626.102 237.817H621.805C621.556 237.818 621.316 237.915 621.135 238.087C620.954 238.259 620.846 238.493 620.833 238.742H620.827V241.22C618.195 237.975 614.044 236.628 609.882 236.628C600.421 236.628 592.752 244.303 592.752 253.772C592.752 263.241 600.421 270.916 609.882 270.916V270.917C614.044 270.917 618.58 269.301 620.827 266.326V266.325ZM609.899 264.915C603.882 264.915 599.004 259.927 599.004 253.771C599.004 247.618 603.882 242.628 609.899 242.628C615.916 242.628 620.793 247.618 620.793 253.772C620.793 259.865 616.013 264.816 610.079 264.914L609.899 264.915ZM587.32 267.378L587.318 251.598C587.318 242.702 581.711 236.702 572.769 236.702C568.5 236.702 565.002 239.172 563.766 241.293L563.745 241.172L563.722 241.05C563.718 241.03 563.714 241.01 563.71 240.99L563.683 240.868L563.654 240.747L563.623 240.626L563.588 240.506C563.564 240.426 563.538 240.346 563.51 240.267L563.467 240.15C562.992 238.92 561.986 237.891 559.889 237.891H558.498C557.96 237.891 557.52 238.332 557.52 238.869V269.368H557.526C557.539 269.617 557.647 269.851 557.828 270.023C558.009 270.195 558.249 270.292 558.498 270.293H562.795C562.861 270.293 562.925 270.285 562.987 270.273L563.015 270.266L563.07 270.248L563.135 270.23C563.145 270.226 563.155 270.223 563.166 270.219L563.203 270.201L563.326 270.132C563.355 270.113 563.382 270.093 563.408 270.071L563.447 270.037C563.453 270.031 563.461 270.027 563.467 270.021C563.647 269.85 563.754 269.616 563.767 269.368H563.772V251.353C563.772 246.575 567.643 242.702 572.417 242.702C577.191 242.702 581.061 246.576 581.061 251.353L581.065 266.411L581.066 266.406L581.068 266.447V269.368H581.074C581.087 269.617 581.196 269.851 581.376 270.023C581.557 270.195 581.797 270.292 582.046 270.293H586.343C586.409 270.293 586.474 270.285 586.536 270.273C586.561 270.268 586.584 270.258 586.609 270.251L586.68 270.231L586.714 270.219C586.75 270.204 586.782 270.184 586.815 270.165C586.835 270.154 586.856 270.145 586.876 270.132C586.915 270.106 586.952 270.075 586.988 270.043L587.016 270.02C587.042 269.994 587.068 269.967 587.091 269.938L587.133 269.884C587.229 269.751 587.29 269.596 587.309 269.434L587.316 269.368H587.321V267.379L587.32 267.378ZM542.572 266.325V266.329C542.722 268.04 544.09 270.216 546.46 270.216H547.847C548.385 270.216 548.824 269.775 548.824 269.237V238.742H548.819C548.805 238.493 548.697 238.259 548.517 238.087C548.336 237.915 548.096 237.818 547.847 237.817H543.55C543.3 237.818 543.061 237.915 542.88 238.087C542.699 238.259 542.59 238.493 542.577 238.742H542.572V241.22C539.939 237.975 535.789 236.628 531.626 236.628C522.166 236.628 514.497 244.303 514.497 253.772C514.497 263.241 522.166 270.916 531.626 270.916V270.917C535.789 270.917 540.325 269.301 542.572 266.326V266.325ZM531.643 264.915C525.627 264.915 520.749 259.927 520.749 253.771C520.749 247.618 525.627 242.628 531.643 242.628C537.66 242.628 542.537 247.618 542.537 253.772C542.537 259.865 537.757 264.816 531.823 264.914L531.643 264.915ZM489.087 261.962C491.955 263.95 495.087 264.916 498.095 264.916C498.686 264.916 499.281 264.853 499.854 264.73L500.025 264.691C500.11 264.671 500.194 264.649 500.278 264.626L500.445 264.579C500.501 264.562 500.555 264.545 500.61 264.528L500.773 264.473C501.151 264.342 501.509 264.182 501.841 263.994L501.982 263.912C503.137 263.217 503.925 262.175 503.925 260.84C503.925 259.043 502.179 258.036 499.932 257.288L499.671 257.203C499.627 257.189 499.583 257.175 499.538 257.161L499.271 257.079L499.001 256.999L498.727 256.921L498.312 256.805L497.893 256.693L497.33 256.547L495.922 256.188L495.369 256.044L494.96 255.934L494.691 255.859L494.426 255.784L494.295 255.746L494.036 255.668C493.994 255.655 493.951 255.642 493.909 255.629L493.657 255.549C493.574 255.522 493.492 255.495 493.411 255.467C489.353 254.088 485.858 251.235 485.858 246.616C485.858 239.547 492.152 236.627 498.025 236.627C501.747 236.627 505.587 237.856 508.077 239.615C508.547 239.972 508.602 240.358 508.556 240.634L508.545 240.691L508.531 240.744L508.515 240.794L508.499 240.839L508.482 240.88L508.458 240.932L508.436 240.972L508.412 241.011L506.035 244.408C506.021 244.429 506.005 244.451 505.989 244.471L505.939 244.533C505.671 244.845 505.254 245.061 504.686 244.74L504.604 244.691L504.189 244.429L504.041 244.338L503.877 244.241L503.761 244.174L503.637 244.104C503.616 244.092 503.594 244.08 503.573 244.068L503.439 243.996L503.3 243.924L503.154 243.849L503.002 243.774L502.843 243.699L502.679 243.624C502.622 243.599 502.565 243.574 502.508 243.549L502.331 243.475L502.149 243.403C500.834 242.89 499.436 242.627 498.025 242.627C494.442 242.627 492.283 244.284 492.283 246.337C492.283 247.503 492.912 248.291 493.925 248.886L494.062 248.964C494.271 249.08 494.494 249.188 494.731 249.291L494.891 249.358L494.973 249.391L495.137 249.456L495.222 249.488L495.392 249.551L495.566 249.612L495.743 249.672L495.832 249.702L496.014 249.76L496.291 249.846L496.575 249.93L496.863 250.013L497.059 250.067L497.256 250.121L497.657 250.227L498.375 250.412L499.064 250.599L499.582 250.743L499.929 250.841L500.102 250.89L500.447 250.99L500.62 251.041L500.964 251.145L501.307 251.252C506.046 252.738 510.349 255.009 510.349 260.84C510.349 267.069 504.528 270.917 498.095 270.917C493.22 270.917 489.069 269.527 485.588 266.97C485.15 266.531 485.161 266.111 485.239 265.848L485.256 265.795L485.274 265.748L485.292 265.705L485.311 265.668L485.335 265.622L485.369 265.569L487.734 262.189C488.139 261.657 488.634 261.73 488.938 261.875L488.993 261.904L489.042 261.933L489.087 261.962ZM472.569 266.325V266.329C472.719 268.04 474.087 270.216 476.457 270.216H477.844C478.382 270.216 478.823 269.775 478.823 269.237V238.742H478.816C478.803 238.493 478.695 238.259 478.514 238.087C478.334 237.915 478.094 237.818 477.844 237.817H473.548C473.298 237.818 473.058 237.915 472.877 238.087C472.697 238.259 472.588 238.493 472.575 238.742H472.57V241.22C469.937 237.975 465.786 236.628 461.624 236.628C452.164 236.628 444.495 244.303 444.495 253.772C444.495 263.241 452.164 270.916 461.625 270.916V270.917C465.787 270.917 470.322 269.301 472.569 266.326L472.569 266.325ZM461.641 264.915C455.624 264.915 450.746 259.927 450.746 253.771C450.746 247.618 455.624 242.628 461.641 242.628C467.658 242.628 472.535 247.618 472.535 253.772C472.535 259.865 467.755 264.816 461.821 264.914L461.641 264.915Z" fill="#0D0E10"/>
<path d="M420.478 254.938C414.112 254.938 408.95 260.099 408.95 266.466C408.95 272.833 414.112 277.994 420.478 277.994C426.845 277.994 432.006 272.833 432.006 266.466C432.006 260.099 426.845 254.938 420.478 254.938ZM390.528 254.939C384.161 254.939 379 260.099 379 266.466C379 272.833 384.161 277.994 390.528 277.994C396.895 277.994 402.056 272.833 402.056 266.466C402.056 260.099 396.895 254.939 390.528 254.939ZM417.031 240.527C417.031 246.894 411.87 252.056 405.503 252.056C399.136 252.056 393.975 246.894 393.975 240.527C393.975 234.162 399.136 229 405.503 229C411.87 229 417.031 234.161 417.031 240.527Z" fill="#F06A6A"/>
</g>
<g clip-path="url(#clip3_100_104)">
<path d="M821.723 19H762.935C748.612 19 737 30.6117 737 44.9355V103.723C737 118.046 748.612 129.658 762.935 129.658H821.723C836.046 129.658 847.658 118.046 847.658 103.723V44.9355C847.658 30.6117 836.046 19 821.723 19Z" fill="#F0DB4F"/>
<path d="M766.096 111.474L774.564 106.349C776.198 109.245 777.684 111.696 781.249 111.696C784.666 111.696 786.82 110.36 786.82 105.161V69.8028H797.22V105.308C797.22 116.078 790.906 120.981 781.695 120.981C773.376 120.981 768.547 116.673 766.096 111.473M802.868 110.359L811.335 105.457C813.564 109.097 816.461 111.771 821.586 111.771C825.895 111.771 828.643 109.617 828.643 106.645C828.643 103.08 825.82 101.817 821.066 99.738L818.467 98.6232C810.964 95.4296 805.987 91.4183 805.987 82.9504C805.987 75.1507 811.93 69.208 821.215 69.208C827.826 69.208 832.58 71.5111 835.997 77.5277L827.9 82.7273C826.117 79.5334 824.186 78.2707 821.215 78.2707C818.169 78.2707 816.238 80.2021 816.238 82.7273C816.238 85.8469 818.169 87.11 822.626 89.0417L825.226 90.1557C834.065 93.9444 839.042 97.8062 839.042 106.497C839.042 115.857 831.688 120.982 821.809 120.982C812.153 120.982 805.913 116.376 802.868 110.359Z" fill="#323330"/>
</g>
<g clip-path="url(#clip4_100_104)">
<path d="M590.672 19H684.328C689.118 19 693 22.8474 693 27.5938V120.406C693 125.153 689.118 129 684.328 129H590.672C585.882 129 582 125.153 582 120.406V27.5938C582 22.8474 585.882 19 590.672 19Z" fill="#3178C6"/>
<path d="M647.264 105.142V117.01C649.211 117.999 651.515 118.74 654.174 119.235C656.834 119.729 659.636 119.977 662.583 119.977C665.454 119.977 668.182 119.705 670.767 119.161C673.351 118.617 675.617 117.72 677.564 116.472C679.512 115.223 681.054 113.591 682.191 111.576C683.327 109.561 683.895 107.07 683.895 104.103C683.895 101.952 683.57 100.067 682.921 98.4475C682.279 96.839 681.324 95.371 680.111 94.127C678.888 92.8659 677.421 91.7349 675.711 90.7333C674 89.7321 672.071 88.7864 669.924 87.8965C668.351 87.2533 666.94 86.6294 665.691 86.0235C664.443 85.4177 663.382 84.7998 662.508 84.169C661.634 83.5386 660.96 82.8709 660.485 82.1662C660.011 81.4615 659.774 80.6645 659.774 79.7741C659.774 78.9582 659.986 78.223 660.41 77.5677C660.835 76.9124 661.434 76.35 662.208 75.8803C662.982 75.4102 663.931 75.0459 665.055 74.7859C666.178 74.5264 667.427 74.3966 668.8 74.3966C669.799 74.3966 670.854 74.4709 671.965 74.6192C673.076 74.7674 674.194 74.996 675.318 75.3054C676.438 75.6132 677.533 76.0037 678.595 76.4737C679.624 76.9257 680.608 77.4719 681.535 78.1052V67.0163C679.712 66.3241 677.721 65.811 675.561 65.4771C673.401 65.1433 670.923 64.9766 668.126 64.9766C665.279 64.9766 662.583 65.2795 660.036 65.8854C657.489 66.4908 655.248 67.4365 653.313 68.7221C651.378 70.0082 649.848 71.6462 648.724 73.6365C647.601 75.6268 647.039 78.0064 647.039 80.7757C647.039 84.3112 648.069 87.3276 650.129 89.825C652.189 92.3219 655.316 94.4359 659.511 96.1667C661.06 96.7917 662.596 97.4471 664.118 98.1325C665.542 98.7753 666.771 99.4427 667.808 100.135C668.844 100.827 669.662 101.581 670.261 102.397C670.86 103.213 671.16 104.14 671.16 105.179C671.165 105.926 670.971 106.662 670.598 107.312C670.224 107.966 669.655 108.535 668.894 109.017C668.133 109.499 667.183 109.876 666.047 110.148C664.911 110.42 663.582 110.557 662.058 110.557C659.462 110.557 656.89 110.105 654.343 109.203C651.796 108.3 649.436 106.947 647.264 105.142ZM627.303 75.6079H642.703V65.8359H599.777V75.6079H615.103V119.117H627.303V75.6079Z" fill="white"/>
</g>
<g clip-path="url(#clip5_100_104)">
<path d="M312.345 6H239.942C222.301 6 208 20.3011 208 37.9424V110.345C208 127.987 222.301 142.288 239.942 142.288H312.345C329.987 142.288 344.288 127.987 344.288 110.345V37.9424C344.288 20.3011 329.987 6 312.345 6Z" fill="#F4F2ED"/>
<path d="M253.116 65.6052C253.116 66.901 253.256 67.9514 253.501 68.7223C253.812 69.5893 254.187 70.4322 254.622 71.2441C254.797 71.5241 254.867 71.8042 254.867 72.0496C254.867 72.3999 254.657 72.7502 254.202 73.1L251.995 74.5715C251.68 74.7812 251.365 74.8866 251.085 74.8866C250.734 74.8866 250.384 74.7115 250.034 74.3963C249.562 73.8891 249.14 73.3379 248.773 72.7502C248.382 72.0772 248.019 71.3876 247.687 70.6835C244.955 73.906 241.523 75.5169 237.39 75.5169C234.448 75.5169 232.101 74.6763 230.385 72.9951C228.669 71.3139 227.793 69.0726 227.793 66.2707C227.793 63.2931 228.844 60.8767 230.98 59.0554C233.117 57.2342 235.954 56.3233 239.561 56.3233C240.752 56.3233 241.978 56.4287 243.274 56.6038C244.57 56.779 245.901 57.059 247.302 57.3742V54.8172C247.302 52.1553 246.741 50.2989 245.656 49.2134C244.535 48.1274 242.644 47.6024 239.947 47.6024C238.721 47.6024 237.46 47.7425 236.164 48.0576C234.868 48.3728 233.607 48.7582 232.381 49.2485C231.983 49.4267 231.574 49.5788 231.156 49.7037C230.911 49.774 230.735 49.8091 230.595 49.8091C230.105 49.8091 229.859 49.4588 229.859 48.7231V47.0067C229.859 46.4467 229.93 46.0261 230.105 45.7812C230.28 45.5363 230.595 45.2909 231.085 45.0455C232.311 44.4151 233.782 43.8902 235.499 43.4696C237.215 43.0139 239.036 42.8042 240.962 42.8042C245.13 42.8042 248.177 43.7497 250.139 45.6406C252.065 47.5322 253.046 50.4043 253.046 54.2571V65.6052H253.116ZM238.896 70.9289C240.052 70.9289 241.243 70.7187 242.504 70.2981C243.764 69.878 244.885 69.1072 245.831 68.0568C246.391 67.3913 246.812 66.6556 247.021 65.815C247.232 64.9743 247.372 63.9586 247.372 62.7682V61.2967C246.31 61.0384 245.234 60.8397 244.15 60.7015C243.058 60.5628 241.958 60.4926 240.857 60.4912C238.51 60.4912 236.795 60.9469 235.639 61.8924C234.483 62.8379 233.922 64.1689 233.922 65.9204C233.922 67.5665 234.343 68.792 235.218 69.6326C236.059 70.5084 237.285 70.9289 238.896 70.9289ZM267.021 74.7115C266.39 74.7115 265.97 74.6061 265.69 74.3612C265.41 74.1509 265.164 73.6606 264.954 72.9951L256.724 45.9212C256.513 45.2206 256.408 44.7654 256.408 44.52C256.408 43.9599 256.688 43.6442 257.249 43.6442H260.681C261.347 43.6442 261.802 43.7497 262.047 43.9945C262.327 44.2048 262.537 44.6952 262.748 45.3606L268.632 68.5471L274.096 45.3606C274.271 44.66 274.481 44.2054 274.761 43.9945C275.041 43.7848 275.532 43.6448 276.162 43.6448H278.964C279.629 43.6448 280.085 43.7497 280.365 43.9945C280.645 44.2048 280.891 44.6952 281.031 45.3606L286.565 68.8271L292.624 45.3606C292.834 44.66 293.079 44.2054 293.324 43.9945C293.604 43.7848 294.06 43.6448 294.69 43.6448H297.947C298.508 43.6448 298.823 43.9248 298.823 44.52C298.823 44.6957 298.788 44.8703 298.753 45.0806C298.718 45.2909 298.648 45.5704 298.508 45.9563L290.067 73.0302C289.857 73.7308 289.611 74.186 289.331 74.3963C289.051 74.6061 288.596 74.7466 288 74.7466H284.988C284.323 74.7466 283.868 74.6412 283.588 74.3963C283.307 74.1509 283.062 73.6957 282.922 72.9951L277.493 50.4043L272.099 72.96C271.924 73.6606 271.714 74.1157 271.434 74.3612C271.153 74.6061 270.663 74.7115 270.033 74.7115H267.021ZM312.028 75.657C310.206 75.657 308.385 75.4467 306.633 75.0266C304.883 74.6061 303.516 74.1509 302.606 73.6254C302.045 73.3103 301.66 72.96 301.52 72.6448C301.384 72.3357 301.312 72.002 301.31 71.6642V69.878C301.31 69.1423 301.59 68.792 302.115 68.792C302.326 68.792 302.536 68.8271 302.746 68.8974C302.956 68.9672 303.271 69.1072 303.621 69.2477C304.859 69.7916 306.15 70.2024 307.474 70.4732C308.846 70.752 310.242 70.8928 311.642 70.8938C313.849 70.8938 315.565 70.5084 316.756 69.738C317.946 68.9672 318.577 67.8465 318.577 66.4107C318.577 65.4301 318.262 64.624 317.631 63.9586C317.001 63.2931 315.81 62.6979 314.094 62.1373L309.015 60.5615C306.458 59.756 304.567 58.5651 303.411 56.9893C302.255 55.448 301.66 53.7311 301.66 51.9104C301.66 50.4395 301.975 49.1437 302.606 48.0225C303.236 46.9018 304.077 45.9212 305.127 45.1509C306.178 44.3449 307.369 43.7497 308.77 43.3291C310.171 42.9085 311.642 42.7339 313.183 42.7339C313.954 42.7339 314.759 42.769 315.53 42.8739C316.335 42.9788 317.071 43.1188 317.806 43.2593C318.507 43.4345 319.172 43.6096 319.803 43.8199C320.433 44.0297 320.923 44.24 321.274 44.4503C321.764 44.7303 322.114 45.0103 322.325 45.3255C322.534 45.606 322.64 45.991 322.64 46.4818V48.1279C322.64 48.8631 322.36 49.2485 321.834 49.2485C321.554 49.2485 321.099 49.1085 320.503 48.828C318.507 47.9176 316.265 47.4624 313.778 47.4624C311.782 47.4624 310.206 47.7776 309.12 48.4431C308.035 49.1085 307.474 50.1243 307.474 51.5601C307.474 52.5408 307.824 53.3814 308.525 54.0468C309.225 54.7123 310.521 55.3778 312.378 55.973L317.351 57.5488C319.873 58.3548 321.694 59.4755 322.78 60.9118C323.865 62.3476 324.391 63.9937 324.391 65.815C324.391 67.3211 324.076 68.6871 323.48 69.878C322.85 71.069 322.01 72.1193 320.923 72.96C319.838 73.8357 318.542 74.466 317.036 74.9218C315.46 75.4121 313.814 75.657 312.028 75.657Z" fill="#252F3E"/>
<path fill-rule="evenodd" clip-rule="evenodd" d="M318.647 92.6792C307.124 101.19 290.382 105.709 275.987 105.709C255.813 105.709 237.635 98.2478 223.905 85.8494C222.819 84.8687 223.8 83.5378 225.096 84.3082C239.947 92.9241 258.265 98.143 277.213 98.143C289.997 98.143 304.042 95.4811 316.966 90.0173C318.892 89.1416 320.538 91.278 318.647 92.6792Z" fill="#FF9900"/>
<path fill-rule="evenodd" clip-rule="evenodd" d="M323.445 87.2151C321.974 85.3236 313.709 86.3042 309.961 86.7594C308.84 86.8999 308.665 85.9188 309.681 85.1836C316.265 80.5604 327.088 81.8914 328.349 83.4321C329.61 85.0084 327.999 95.831 321.834 101.015C320.888 101.82 319.978 101.4 320.398 100.349C321.799 96.8819 324.916 89.071 323.445 87.2151Z" fill="#FF9900"/>
</g>
<path d="M429.56 84.3139L426.17 82.3619L463.931 17.2622L467.316 19.2071L429.56 84.3139Z" fill="#545454"/>
<path d="M425.394 77.1611H500.912V81.0603H425.394V77.1611Z" fill="#545454"/>
<path d="M464.66 101.061L426.89 79.3526L428.844 75.9761L466.619 97.6858L464.66 101.061ZM497.476 44.4773L459.7 22.7688L461.659 19.397L499.431 41.1055L497.476 44.4773Z" fill="#545454"/>
<path d="M428.853 44.4648L426.899 41.0918L464.674 19.3833L466.628 22.7551L428.853 44.4648Z" fill="#545454"/>
<path d="M496.779 84.3139L459.019 19.2071L462.408 17.2622L500.17 82.3619L496.779 84.3139ZM428.389 38.5103H432.304V81.9274H428.389V38.5103Z" fill="#545454"/>
<path d="M494.026 38.5103H497.939V81.9273H494.026V38.5103Z" fill="#545454"/>
<path d="M463.995 99.4113L462.284 96.4658L495.137 77.583L496.848 80.5274L463.995 99.4113Z" fill="#545454"/>
<path d="M503.128 83.1933C500.867 87.116 495.82 88.4513 491.884 86.1987C490.948 85.6639 490.128 84.9496 489.469 84.0967C488.811 83.2438 488.327 82.2691 488.047 81.2288C487.767 80.1885 487.694 79.103 487.835 78.0347C487.975 76.9664 488.325 75.9364 488.865 75.0039C491.127 71.0812 496.173 69.747 500.109 71.9996C504.073 74.2745 505.418 79.2765 503.128 83.1933ZM437.442 45.4324C435.18 49.3503 430.133 50.6892 426.197 48.4366C425.261 47.9013 424.441 47.1865 423.783 46.3332C423.124 45.48 422.641 44.5051 422.361 43.4646C422.08 42.424 422.008 41.3384 422.148 40.2699C422.289 39.2014 422.639 38.1711 423.178 37.2383C425.44 33.3203 430.487 31.9802 434.422 34.2328C438.359 36.5136 439.704 41.5097 437.442 45.4324ZM423.202 83.1933C420.935 79.2753 422.28 74.2745 426.22 71.9996C430.157 69.747 435.18 71.0812 437.464 75.0039C439.731 78.9218 438.386 83.9226 434.446 86.1987C430.487 88.4513 425.463 87.116 423.202 83.1933ZM488.888 45.4324C486.627 41.5097 487.971 36.5136 491.906 34.2328C495.843 31.9802 500.867 33.3203 503.151 37.2383C505.418 41.1609 504.073 46.157 500.133 48.4366C496.196 50.6892 491.15 49.3503 488.888 45.4324ZM463.165 106.173C458.614 106.173 454.934 102.512 454.934 97.9796C454.934 93.4509 458.614 89.7902 463.165 89.7902C467.716 89.7902 471.395 93.4509 471.395 97.9796C471.395 102.485 467.716 106.173 463.165 106.173ZM463.165 30.6461C458.614 30.6461 454.934 26.9853 454.934 22.4519C454.934 17.9244 458.614 14.2637 463.165 14.2637C467.716 14.2637 471.395 17.9244 471.395 22.4519C471.395 26.9853 467.716 30.6461 463.165 30.6461ZM513.226 142.705C513.129 142.71 513.032 142.695 512.941 142.661C512.85 142.627 512.767 142.575 512.697 142.508C512.629 142.438 512.577 142.355 512.542 142.264C512.507 142.173 512.492 142.076 512.496 141.979V120.294C512.496 120.073 512.564 119.895 512.698 119.762C512.768 119.695 512.851 119.643 512.942 119.609C513.032 119.575 513.129 119.56 513.226 119.565H513.86C514.08 119.565 514.258 119.628 514.391 119.762C514.458 119.833 514.51 119.916 514.544 120.008C514.578 120.099 514.593 120.197 514.588 120.294V140.723H526.048C526.291 140.723 526.479 140.787 526.612 140.92C526.746 141.054 526.809 141.242 526.809 141.48V141.98C526.814 142.077 526.799 142.174 526.765 142.264C526.731 142.355 526.679 142.438 526.612 142.508C526.479 142.64 526.291 142.705 526.048 142.705H513.226ZM505.555 144.852C505.437 144.853 505.319 144.829 505.211 144.781C505.102 144.732 505.006 144.661 504.927 144.572C504.778 144.418 504.634 144.258 504.495 144.094L503.031 142.077C501.706 142.714 500.155 143.035 498.384 143.035C496.545 143.035 494.985 142.71 493.7 142.063C492.416 141.411 491.429 140.407 490.746 139.052C490.057 137.695 489.681 135.984 489.618 133.911C489.595 132.919 489.58 131.993 489.58 131.134C489.58 130.277 489.595 129.349 489.617 128.359C489.681 126.309 490.081 124.607 490.81 123.248C491.539 121.895 492.553 120.886 493.852 120.225C495.145 119.565 496.655 119.234 498.385 119.234C500.109 119.234 501.619 119.565 502.918 120.225C504.211 120.886 505.229 121.895 505.972 123.248C506.712 124.607 507.106 126.309 507.151 128.359C507.192 129.284 507.214 130.209 507.216 131.134C507.216 131.992 507.193 132.919 507.151 133.911C507.041 137.062 506.229 139.379 504.725 140.856L506.853 143.828C506.88 143.863 506.902 143.902 506.918 143.944C506.944 144.024 506.954 144.107 506.949 144.191C506.95 144.277 506.933 144.363 506.899 144.443C506.865 144.523 506.815 144.595 506.752 144.655C506.692 144.717 506.621 144.767 506.541 144.801C506.462 144.835 506.376 144.852 506.289 144.852H505.555ZM498.384 141.054C500.288 141.054 501.852 140.479 503.082 139.333C504.312 138.186 504.968 136.323 505.06 133.745C505.101 132.754 505.124 131.882 505.124 131.134C505.124 130.387 505.101 129.515 505.06 128.525C505.013 126.804 504.697 125.404 504.11 124.326C503.522 123.244 502.738 122.459 501.751 121.96C500.771 121.464 499.646 121.216 498.384 121.216C497.142 121.216 496.031 121.463 495.045 121.96C494.059 122.46 493.274 123.244 492.687 124.326C492.1 125.404 491.773 126.804 491.71 128.525C491.686 129.515 491.672 130.387 491.672 131.134C491.672 131.882 491.686 132.755 491.71 133.745C491.797 136.323 492.461 138.186 493.7 139.333C494.94 140.479 496.499 141.054 498.384 141.054ZM471.216 142.705C471.119 142.71 471.022 142.695 470.932 142.661C470.841 142.627 470.758 142.575 470.688 142.508C470.62 142.438 470.567 142.355 470.533 142.264C470.498 142.173 470.482 142.076 470.486 141.979V119.958C470.482 119.861 470.498 119.765 470.533 119.674C470.568 119.583 470.621 119.501 470.688 119.431C470.758 119.364 470.841 119.311 470.932 119.277C471.023 119.244 471.12 119.229 471.217 119.234H471.781C472.005 119.234 472.18 119.298 472.313 119.431C472.381 119.501 472.434 119.583 472.468 119.674C472.503 119.765 472.519 119.862 472.515 119.959V127.794C473.106 127.028 473.846 126.388 474.69 125.914C475.542 125.428 476.674 125.185 478.093 125.185C479.598 125.185 480.856 125.51 481.86 126.162C482.87 126.808 483.621 127.688 484.122 128.804C484.617 129.92 484.869 131.18 484.869 132.589V141.98C484.873 142.077 484.857 142.174 484.823 142.265C484.788 142.355 484.735 142.438 484.668 142.508C484.597 142.575 484.513 142.628 484.422 142.662C484.33 142.696 484.232 142.71 484.135 142.705H483.571C483.473 142.71 483.376 142.695 483.285 142.661C483.193 142.627 483.109 142.575 483.039 142.508C482.972 142.438 482.919 142.355 482.885 142.264C482.851 142.173 482.836 142.076 482.841 141.979V132.754C482.841 130.992 482.41 129.606 481.547 128.607C480.681 127.602 479.419 127.102 477.758 127.102C476.189 127.102 474.923 127.602 473.959 128.606C472.996 129.606 472.515 130.992 472.515 132.754V141.98C472.519 142.077 472.503 142.174 472.468 142.265C472.433 142.356 472.38 142.438 472.313 142.508C472.242 142.575 472.159 142.628 472.067 142.662C471.976 142.696 471.878 142.71 471.781 142.705H471.216ZM451.925 148.985C451.828 148.99 451.73 148.975 451.639 148.941C451.547 148.907 451.464 148.855 451.393 148.787C451.325 148.718 451.272 148.635 451.238 148.545C451.203 148.454 451.187 148.357 451.191 148.26V126.244C451.191 126.024 451.259 125.845 451.393 125.712C451.464 125.644 451.547 125.592 451.639 125.558C451.73 125.524 451.828 125.509 451.925 125.515H452.489C452.71 125.515 452.888 125.579 453.021 125.712C453.088 125.783 453.14 125.866 453.174 125.958C453.208 126.049 453.223 126.146 453.218 126.244V127.794C453.774 127.047 454.499 126.424 455.393 125.927C456.292 125.432 457.425 125.185 458.797 125.185C460.105 125.185 461.201 125.409 462.087 125.863C462.937 126.284 463.676 126.9 464.243 127.661C464.798 128.413 465.206 129.249 465.473 130.175C465.737 131.101 465.882 132.057 465.904 133.02C465.927 133.351 465.935 133.713 465.935 134.113C465.935 134.506 465.927 134.869 465.904 135.199C465.883 136.162 465.738 137.118 465.473 138.044C465.206 138.971 464.798 139.805 464.243 140.557C463.676 141.319 462.937 141.935 462.087 142.356C461.201 142.811 460.105 143.035 458.798 143.035C457.425 143.035 456.292 142.783 455.392 142.274C454.5 141.769 453.774 141.15 453.22 140.424V148.26C453.224 148.357 453.209 148.454 453.175 148.545C453.141 148.636 453.089 148.719 453.021 148.789C452.95 148.856 452.867 148.908 452.775 148.941C452.684 148.975 452.586 148.99 452.489 148.985H451.925ZM458.6 141.117C459.903 141.117 460.936 140.833 461.688 140.26C462.44 139.687 463.006 138.905 463.316 138.012C463.646 137.084 463.834 136.094 463.88 135.035C463.898 134.418 463.898 133.801 463.88 133.185C463.843 132.17 463.653 131.166 463.316 130.208C463.005 129.315 462.438 128.534 461.687 127.96C460.936 127.387 459.902 127.102 458.6 127.102C457.338 127.102 456.32 127.401 455.545 127.992C454.784 128.569 454.193 129.341 453.834 130.226C453.476 131.082 453.268 131.993 453.218 132.919C453.195 133.25 453.187 133.681 453.187 134.208C453.187 134.736 453.196 135.167 453.218 135.497C453.245 136.4 453.455 137.288 453.834 138.108C454.219 138.97 454.827 139.712 455.595 140.26C456.38 140.833 457.381 141.117 458.6 141.117ZM438.01 143.036C436.992 143.047 435.985 142.82 435.07 142.375C434.215 141.966 433.469 141.359 432.896 140.604C432.348 139.888 432.056 139.009 432.065 138.108C432.065 136.612 432.676 135.41 433.89 134.506C435.106 133.602 436.689 133.02 438.639 132.754L443.887 132.029V130.869C443.887 129.703 443.524 128.781 442.809 128.111C442.089 127.437 440.942 127.101 439.368 127.101C438.217 127.101 437.289 127.327 436.579 127.781C435.873 128.231 435.387 128.822 435.12 129.548C435.01 129.876 434.799 130.043 434.487 130.043H433.959C433.693 130.043 433.505 129.974 433.39 129.827C433.279 129.681 433.221 129.501 433.226 129.317C433.226 129.006 433.344 128.621 433.575 128.162C433.808 127.698 434.166 127.24 434.657 126.785C435.144 126.336 435.772 125.955 436.547 125.647C437.322 125.341 438.262 125.185 439.368 125.185C440.676 125.185 441.755 125.358 442.607 125.713C443.461 126.065 444.126 126.523 444.604 127.084C445.076 127.647 445.414 128.272 445.613 128.951C445.815 129.635 445.911 130.309 445.911 130.97V141.98C445.916 142.077 445.901 142.174 445.867 142.264C445.833 142.355 445.781 142.438 445.714 142.508C445.643 142.575 445.559 142.627 445.468 142.661C445.376 142.695 445.279 142.71 445.182 142.705H444.617C444.519 142.71 444.422 142.695 444.33 142.661C444.239 142.627 444.155 142.575 444.085 142.508C444.017 142.438 443.965 142.355 443.931 142.264C443.897 142.173 443.882 142.076 443.887 141.979V140.424C443.571 140.874 443.191 141.274 442.759 141.613C442.272 142.012 441.643 142.347 440.882 142.623C440.116 142.898 439.161 143.035 438.01 143.035V143.036ZM438.34 141.117C439.359 141.117 440.29 140.898 441.13 140.457C441.969 140.017 442.639 139.338 443.139 138.425C443.64 137.512 443.887 136.359 443.887 134.97V133.846L439.603 134.443C437.786 134.681 436.414 135.103 435.483 135.695C434.555 136.291 434.088 137.039 434.088 137.943C434.088 138.672 434.299 139.269 434.722 139.732C435.144 140.191 435.68 140.539 436.331 140.768C436.983 141.003 437.652 141.117 438.34 141.117ZM422.798 142.705C422.7 142.71 422.603 142.695 422.511 142.661C422.42 142.627 422.336 142.575 422.266 142.508C422.199 142.437 422.148 142.354 422.114 142.263C422.08 142.173 422.065 142.076 422.068 141.979V126.277C422.068 126.056 422.137 125.873 422.266 125.731C422.334 125.659 422.417 125.603 422.508 125.565C422.6 125.528 422.699 125.511 422.798 125.515H423.33C423.551 125.515 423.734 125.589 423.881 125.731C423.952 125.802 424.007 125.888 424.044 125.982C424.081 126.076 424.099 126.176 424.096 126.277V127.795C424.466 127.049 425.073 126.446 425.822 126.079C426.574 125.704 427.505 125.516 428.61 125.516H429.84C430.061 125.516 430.239 125.579 430.372 125.712C430.439 125.783 430.491 125.866 430.525 125.958C430.559 126.049 430.574 126.146 430.569 126.244V126.702C430.574 126.8 430.56 126.897 430.526 126.989C430.492 127.081 430.439 127.164 430.372 127.235C430.301 127.302 430.217 127.355 430.126 127.388C430.035 127.422 429.937 127.437 429.84 127.432H428.413C427.082 127.432 426.032 127.818 425.257 128.588C424.482 129.36 424.096 130.41 424.096 131.731V141.98C424.099 142.079 424.082 142.176 424.045 142.267C424.008 142.358 423.952 142.44 423.881 142.508C423.729 142.642 423.532 142.712 423.33 142.705H422.798ZM408.42 143.036C406.516 143.036 404.914 142.669 403.621 141.93C402.351 141.216 401.322 140.139 400.666 138.838C399.988 137.516 399.621 135.993 399.551 134.277C399.528 133.281 399.52 132.236 399.52 131.134C399.52 130.034 399.528 128.987 399.552 127.992C399.621 126.253 399.988 124.727 400.668 123.413C401.33 122.116 402.365 121.046 403.639 120.34C404.943 119.6 406.54 119.234 408.419 119.234C409.948 119.234 411.255 119.459 412.338 119.914C413.424 120.362 414.311 120.927 414.994 121.597C415.682 122.271 416.191 122.946 416.522 123.628C416.856 124.313 417.031 124.885 417.054 125.349C417.069 125.436 417.062 125.526 417.033 125.609C417.004 125.693 416.955 125.768 416.889 125.827C416.742 125.955 416.551 126.02 416.357 126.01H415.627C415.426 126.01 415.282 125.96 415.196 125.863C415.104 125.762 415.017 125.593 414.93 125.349C414.686 124.628 414.308 123.961 413.814 123.382C413.298 122.753 412.599 122.234 411.724 121.832C410.851 121.423 409.746 121.216 408.42 121.216C406.447 121.216 404.85 121.753 403.621 122.822C402.392 123.89 401.735 125.671 401.644 128.162C401.579 130.145 401.579 132.129 401.644 134.112C401.735 136.58 402.392 138.351 403.621 139.434C404.851 140.512 406.447 141.054 408.42 141.054C409.727 141.054 410.898 140.806 411.939 140.31C412.975 139.821 413.834 139.022 414.398 138.025C414.994 137.003 415.292 135.695 415.292 134.112V132.424H409.516C409.417 132.428 409.318 132.41 409.227 132.373C409.135 132.336 409.052 132.279 408.984 132.208C408.849 132.059 408.778 131.863 408.787 131.662V131.199C408.787 130.96 408.851 130.773 408.984 130.639C409.055 130.571 409.138 130.519 409.23 130.485C409.321 130.451 409.418 130.437 409.516 130.441H416.623C416.866 130.441 417.054 130.506 417.186 130.639C417.32 130.773 417.385 130.96 417.385 131.199V134.112C417.385 135.873 417.036 137.429 416.338 138.774C415.656 140.102 414.592 141.195 413.282 141.911C411.944 142.659 410.323 143.035 408.42 143.035V143.036Z" fill="#545454"/>
<path d="M113.599 8.5415H65.515C65.515 20.5284 75.2191 30.2304 87.2007 30.2304H96.0477V38.791C96.0477 50.7779 105.751 60.481 117.738 60.481V12.6791C117.737 11.5819 117.3 10.53 116.524 9.75425C115.748 8.97851 114.696 8.54235 113.599 8.5415Z" fill="#2684FF"/>
<path d="M89.7721 32.5142H41.6881C41.6881 44.5011 51.3869 54.201 63.3738 54.201H72.2198V62.7637C72.2198 74.7506 81.9228 84.4547 93.9097 84.4547V36.6528C93.9089 35.5556 93.4727 34.5036 92.697 33.7277C91.9213 32.9517 90.8693 32.5153 89.7721 32.5142Z" fill="url(#paint1_linear_100_104)"/>
<path d="M65.9441 56.4839H17.8558C17.8558 68.4708 27.5589 78.1739 39.5448 78.1739H48.3928V86.7376C48.3928 98.7203 58.0948 108.423 70.0817 108.423V60.6226C70.0809 59.5254 69.6447 58.4733 68.869 57.6974C68.0932 56.9214 67.0413 56.485 65.9441 56.4839Z" fill="url(#paint2_linear_100_104)"/>
<path d="M48.9784 113.797H52.6347V131.877C52.6347 136.648 50.4595 139.975 45.4094 139.975C43.5141 139.975 42.0288 139.659 41.0098 139.301V135.837C42.1246 136.286 43.4673 136.511 44.811 136.511C47.9137 136.511 48.9784 134.714 48.9784 132.102V113.797ZM59.3512 112.4C60.7865 112.4 61.8054 113.256 61.8054 114.783C61.8054 116.268 60.7865 117.17 59.3512 117.17C57.917 117.17 56.898 116.313 56.898 114.783C56.898 113.303 57.917 112.4 59.3512 112.4ZM57.5464 120.003H61.0654V139.796H57.5464V120.003ZM69.7697 139.796H66.3444V120.003H69.7708V123.467C70.9772 121.126 73.0151 119.463 76.9951 119.688V123.018C72.504 122.569 69.7708 123.871 69.7708 128.101L69.7697 139.796ZM93.4402 136.24C92.1422 138.852 89.688 140.201 86.5353 140.201C81.121 140.201 78.3878 135.745 78.3878 129.897C78.3878 124.32 81.2573 119.599 86.9558 119.599C89.9169 119.599 92.2338 120.901 93.4402 123.467V120.003H96.9592V139.796H93.4402V136.24ZM87.4637 137.051C90.6122 137.051 93.3901 135.118 93.3901 130.709V129.136C93.3901 124.728 90.8454 122.793 87.8332 122.793C83.8989 122.793 81.86 125.31 81.86 129.897C81.9068 134.667 83.8532 137.051 87.4637 137.051Z" fill="#253858"/>
<defs>
<linearGradient id="paint0_linear_100_104" x1="2437.24" y1="863.381" x2="859.209" y2="3348.76" gradientUnits="userSpaceOnUse">
<stop stop-color="#41873F"/>
<stop offset="0.3288" stop-color="#418B3D"/>
<stop offset="0.6352" stop-color="#419637"/>
<stop offset="0.9319" stop-color="#3FA92D"/>
<stop offset="1" stop-color="#3FAE2A"/>
</linearGradient>
<linearGradient id="paint1_linear_100_104" x1="92.91" y1="32.5681" x2="72.4508" y2="53.6641" gradientUnits="userSpaceOnUse">
<stop offset="0.176" stop-color="#0052CC"/>
<stop offset="1" stop-color="#2684FF"/>
</linearGradient>
<linearGradient id="paint2_linear_100_104" x1="70.4656" y1="56.669" x2="46.8101" y2="79.6836" gradientUnits="userSpaceOnUse">
<stop offset="0.176" stop-color="#0052CC"/>
<stop offset="1" stop-color="#2684FF"/>
</linearGradient>
<clipPath id="clip0_100_104">
<rect width="210.732" height="42.8049" fill="white" transform="translate(19 374)"/>
</clipPath>
<clipPath id="clip1_100_104">
<rect width="152" height="93" fill="white" transform="translate(191 199)"/>
</clipPath>
<clipPath id="clip2_100_104">
<rect width="248.08" height="49.4222" fill="white" transform="translate(379 229)"/>
</clipPath>
<clipPath id="clip3_100_104">
<rect width="110.658" height="110.658" fill="white" transform="translate(737 19)"/>
</clipPath>
<clipPath id="clip4_100_104">
<rect width="111" height="110" fill="white" transform="translate(582 19)"/>
</clipPath>
<clipPath id="clip5_100_104">
<rect width="136.288" height="136.288" fill="white" transform="translate(208 6)"/>
</clipPath>
</defs>
</svg>
