<svg width="151" height="151" viewBox="0 0 151 151" fill="none" xmlns="http://www.w3.org/2000/svg">
<path d="M42.2307 84.4574L38.8401 82.5055L76.601 17.4058L79.9869 19.3507L42.2307 84.4574Z" fill="#545454"/>
<path d="M38.0649 77.3047H113.582V81.2039H38.0649V77.3047Z" fill="#545454"/>
<path d="M77.3303 101.205L39.56 79.4962L41.5143 76.1196L79.2893 97.8293L77.3303 101.205ZM110.147 44.6209L72.3706 22.9124L74.3296 19.5405L112.101 41.2491L110.147 44.6209Z" fill="#545454"/>
<path d="M41.5237 44.6084L39.5694 41.2354L77.3444 19.5269L79.2986 22.8987L41.5237 44.6084Z" fill="#545454"/>
<path d="M109.449 84.4574L71.6894 19.3507L75.0789 17.4058L112.841 82.5055L109.449 84.4574ZM41.0598 38.6539H44.9742V82.071H41.0598V38.6539Z" fill="#545454"/>
<path d="M106.696 38.6538H110.609V82.0709H106.696V38.6538Z" fill="#545454"/>
<path d="M76.6656 99.5549L74.9544 96.6094L107.807 77.7266L109.518 80.6709L76.6656 99.5549Z" fill="#545454"/>
<path d="M115.798 83.3368C113.537 87.2595 108.491 88.5949 104.554 86.3423C103.619 85.8075 102.798 85.0931 102.14 84.2402C101.481 83.3873 100.998 82.4127 100.717 81.3724C100.437 80.332 100.365 79.2465 100.505 78.1782C100.646 77.1099 100.996 76.0799 101.536 75.1474C103.798 71.2247 108.843 69.8906 112.78 72.1432C116.744 74.4181 118.088 79.4201 115.798 83.3368ZM50.1124 45.5759C47.8504 49.4939 42.8038 50.8328 38.8671 48.5802C37.9318 48.0449 37.1114 47.3301 36.4531 46.4768C35.7948 45.6235 35.3116 44.6487 35.0311 43.6081C34.7507 42.5676 34.6785 41.4819 34.8188 40.4134C34.9591 39.3449 35.3091 38.3147 35.8487 37.3818C38.1107 33.4638 43.1573 32.1238 47.0929 34.3764C51.0297 36.6572 52.3744 41.6533 50.1124 45.5759ZM35.8722 83.3368C33.6055 79.4189 34.9503 74.4181 38.8905 72.1432C42.8273 69.8906 47.8504 71.2247 50.1347 75.1474C52.4014 79.0654 51.0567 84.0662 47.1164 86.3423C43.1573 88.5949 38.133 87.2595 35.8722 83.3368ZM101.558 45.5759C99.2972 41.6533 100.642 36.6572 104.576 34.3764C108.513 32.1238 113.537 33.4638 115.822 37.3818C118.088 41.3045 116.744 46.3006 112.803 48.5802C108.867 50.8328 103.82 49.4939 101.558 45.5759ZM75.8352 106.316C71.2842 106.316 67.6047 102.655 67.6047 98.1232C67.6047 93.5945 71.2842 89.9337 75.8352 89.9337C80.3862 89.9337 84.0658 93.5945 84.0658 98.1232C84.0658 102.628 80.3862 106.316 75.8352 106.316ZM75.8352 30.7896C71.2842 30.7896 67.6047 27.1289 67.6047 22.5955C67.6047 18.068 71.2842 14.4072 75.8352 14.4072C80.3862 14.4072 84.0658 18.068 84.0658 22.5955C84.0658 27.1289 80.3862 30.7896 75.8352 30.7896ZM125.896 142.849C125.799 142.854 125.702 142.839 125.611 142.805C125.521 142.771 125.438 142.719 125.368 142.651C125.3 142.582 125.247 142.499 125.212 142.408C125.178 142.317 125.162 142.22 125.167 142.123V120.438C125.167 120.217 125.235 120.038 125.369 119.906C125.439 119.839 125.521 119.786 125.612 119.752C125.703 119.719 125.799 119.704 125.896 119.708H126.53C126.75 119.708 126.928 119.772 127.061 119.906C127.128 119.976 127.181 120.06 127.214 120.151C127.248 120.243 127.263 120.34 127.258 120.438V140.866H138.719C138.962 140.866 139.15 140.931 139.283 141.063C139.416 141.197 139.48 141.385 139.48 141.624V142.124C139.485 142.221 139.47 142.317 139.436 142.408C139.402 142.499 139.35 142.581 139.283 142.651C139.15 142.784 138.962 142.849 138.719 142.849H125.896ZM118.226 144.995C118.107 144.997 117.99 144.972 117.881 144.924C117.773 144.876 117.676 144.805 117.597 144.716C117.448 144.561 117.304 144.402 117.165 144.238L115.702 142.22C114.376 142.858 112.826 143.179 111.055 143.179C109.215 143.179 107.656 142.853 106.371 142.206C105.086 141.554 104.1 140.55 103.416 139.196C102.728 137.838 102.352 136.127 102.289 134.054C102.265 133.063 102.251 132.136 102.251 131.278C102.251 130.421 102.265 129.493 102.287 128.503C102.352 126.452 102.751 124.75 103.481 123.391C104.21 122.038 105.223 121.03 106.522 120.368C107.815 119.708 109.326 119.377 111.056 119.377C112.78 119.377 114.289 119.708 115.588 120.368C116.881 121.03 117.899 122.038 118.643 123.391C119.383 124.75 119.776 126.452 119.822 128.503C119.863 129.427 119.884 130.352 119.886 131.278C119.886 132.135 119.863 133.063 119.822 134.054C119.711 137.205 118.9 139.523 117.395 141L119.524 143.971C119.55 144.007 119.572 144.046 119.588 144.088C119.614 144.167 119.625 144.251 119.62 144.334C119.621 144.421 119.604 144.507 119.57 144.587C119.536 144.667 119.486 144.739 119.423 144.798C119.363 144.861 119.291 144.911 119.212 144.945C119.132 144.978 119.046 144.996 118.96 144.995H118.226ZM111.055 141.197C112.958 141.197 114.523 140.623 115.752 139.477C116.982 138.329 117.639 136.467 117.73 133.889C117.771 132.897 117.795 132.026 117.795 131.278C117.795 130.531 117.771 129.658 117.73 128.668C117.683 126.948 117.367 125.548 116.78 124.47C116.193 123.388 115.408 122.602 114.422 122.103C113.441 121.607 112.316 121.36 111.055 121.36C109.812 121.36 108.701 121.606 107.716 122.103C106.729 122.603 105.945 123.388 105.357 124.47C104.77 125.548 104.444 126.948 104.38 128.668C104.357 129.658 104.343 130.531 104.343 131.278C104.343 132.026 104.357 132.899 104.38 133.889C104.467 136.467 105.132 138.329 106.371 139.477C107.61 140.623 109.17 141.197 111.055 141.197ZM83.8861 142.849C83.7894 142.853 83.6927 142.838 83.602 142.804C83.5113 142.771 83.4285 142.718 83.3587 142.651C83.2907 142.582 83.2377 142.499 83.203 142.408C83.1682 142.317 83.1525 142.22 83.1567 142.123V120.102C83.1529 120.005 83.1689 119.908 83.2036 119.817C83.2383 119.727 83.2911 119.644 83.3587 119.574C83.4286 119.507 83.5116 119.455 83.6025 119.421C83.6934 119.387 83.7903 119.372 83.8872 119.377H84.451C84.6753 119.377 84.8503 119.442 84.983 119.574C85.051 119.644 85.104 119.727 85.1388 119.818C85.1735 119.909 85.1893 120.006 85.185 120.103V127.938C85.7762 127.171 86.516 126.532 87.3601 126.057C88.2127 125.571 89.3449 125.328 90.7636 125.328C92.2681 125.328 93.5259 125.653 94.5301 126.305C95.5401 126.951 96.2918 127.832 96.7921 128.948C97.2877 130.063 97.539 131.324 97.539 132.733V142.124C97.5433 142.221 97.5276 142.318 97.4931 142.408C97.4586 142.499 97.4059 142.582 97.3382 142.651C97.2676 142.719 97.1839 142.771 97.0921 142.805C97.0004 142.839 96.9027 142.854 96.805 142.849H96.2413C96.1439 142.853 96.0465 142.838 95.955 142.805C95.8635 142.771 95.7799 142.718 95.7092 142.651C95.642 142.581 95.5897 142.498 95.5558 142.407C95.5219 142.317 95.5069 142.22 95.5119 142.123V132.897C95.5119 131.136 95.0809 129.75 94.2177 128.75C93.351 127.745 92.0896 127.246 90.4289 127.246C88.8599 127.246 87.5938 127.745 86.6296 128.749C85.6665 129.75 85.185 131.136 85.185 132.897V142.124C85.1891 142.221 85.1733 142.318 85.1385 142.408C85.1038 142.499 85.0509 142.582 84.983 142.651C84.9126 142.719 84.829 142.771 84.7375 142.805C84.6459 142.839 84.5484 142.854 84.451 142.849H83.8861ZM64.5957 149.128C64.4983 149.134 64.4008 149.119 64.3092 149.085C64.2177 149.051 64.1341 148.999 64.0637 148.931C63.9958 148.862 63.9429 148.779 63.9082 148.688C63.8734 148.598 63.8576 148.501 63.8617 148.404V126.387C63.8617 126.168 63.9298 125.988 64.0637 125.855C64.1341 125.788 64.2177 125.736 64.3092 125.702C64.4008 125.668 64.4983 125.653 64.5957 125.658H65.1595C65.3803 125.658 65.5588 125.723 65.6915 125.855C65.7587 125.926 65.8108 126.01 65.8448 126.101C65.8787 126.193 65.8937 126.29 65.8888 126.387V127.938C66.4443 127.191 67.1689 126.567 68.0639 126.07C68.9623 125.576 70.0957 125.328 71.4674 125.328C72.7758 125.328 73.8715 125.552 74.7571 126.007C75.6078 126.428 76.3467 127.044 76.9134 127.805C77.4689 128.557 77.8764 129.393 78.143 130.318C78.4077 131.245 78.5525 132.201 78.574 133.164C78.5975 133.494 78.6057 133.857 78.6057 134.256C78.6057 134.65 78.5975 135.013 78.574 135.343C78.5532 136.305 78.4083 137.261 78.143 138.187C77.8764 139.115 77.4689 139.949 76.9134 140.7C76.3469 141.462 75.6079 142.079 74.7571 142.5C73.8715 142.954 72.7758 143.179 71.4686 143.179C70.0957 143.179 68.9623 142.926 68.0627 142.418C67.1701 141.913 66.4443 141.294 65.89 140.568V148.404C65.8948 148.501 65.8797 148.598 65.8456 148.689C65.8114 148.779 65.759 148.862 65.6915 148.932C65.6207 148.999 65.5371 149.051 65.4456 149.085C65.3541 149.119 65.2568 149.133 65.1595 149.128H64.5957ZM71.2701 141.261C72.5738 141.261 73.6061 140.976 74.3589 140.403C75.1105 139.83 75.6767 139.048 75.9867 138.155C76.3167 137.228 76.5046 136.238 76.5505 135.178C76.5688 134.562 76.5688 133.945 76.5505 133.328C76.5131 132.313 76.323 131.31 75.9867 130.351C75.6751 129.459 75.1088 128.677 74.3577 128.103C73.6061 127.53 72.5726 127.246 71.2701 127.246C70.0088 127.246 68.9905 127.544 68.2154 128.135C67.4546 128.713 66.8635 129.485 66.5042 130.37C66.1464 131.226 65.9383 132.137 65.8888 133.063C65.8653 133.393 65.8571 133.824 65.8571 134.351C65.8571 134.88 65.8665 135.311 65.8888 135.641C65.9157 136.544 66.125 137.432 66.5042 138.252C66.8892 139.113 67.4974 139.856 68.2659 140.403C69.0504 140.976 70.051 141.261 71.2701 141.261ZM50.6809 143.18C49.6626 143.19 48.6558 142.964 47.74 142.519C46.885 142.109 46.1397 141.502 45.5661 140.747C45.0184 140.032 44.7261 139.153 44.7358 138.252C44.7358 136.756 45.3465 135.554 46.5609 134.65C47.7764 133.745 49.3596 133.164 51.3092 132.897L56.5578 132.173V131.012C56.5578 129.846 56.1949 128.924 55.4797 128.255C54.7597 127.581 53.6123 127.245 52.0385 127.245C50.8876 127.245 49.9597 127.47 49.2492 127.925C48.5433 128.375 48.0571 128.965 47.7905 129.691C47.6801 130.02 47.4699 130.187 47.1575 130.187H46.629C46.3636 130.187 46.1757 130.118 46.0606 129.971C45.9493 129.824 45.8913 129.645 45.8961 129.461C45.8961 129.15 46.0148 128.765 46.245 128.305C46.4787 127.841 46.8369 127.383 47.3278 126.929C47.814 126.479 48.4423 126.099 49.2175 125.791C49.9926 125.484 50.9322 125.328 52.0385 125.328C53.3468 125.328 54.425 125.502 55.2776 125.857C56.1315 126.209 56.7962 126.667 57.2742 127.227C57.7463 127.791 58.0846 128.416 58.2831 129.095C58.4851 129.778 58.5814 130.452 58.5814 131.113V142.124C58.5862 142.221 58.5712 142.317 58.5373 142.408C58.5033 142.499 58.4512 142.581 58.3841 142.651C58.3134 142.718 58.2298 142.771 58.1383 142.805C58.0469 142.838 57.9495 142.853 57.852 142.849H57.2871C57.1897 142.853 57.0923 142.838 57.0009 142.805C56.9094 142.771 56.8258 142.718 56.7551 142.651C56.6878 142.581 56.6356 142.498 56.6017 142.407C56.5677 142.317 56.5528 142.22 56.5578 142.123V140.568C56.2418 141.017 55.8615 141.418 55.4292 141.756C54.9429 142.156 54.3134 142.49 53.5524 142.766C52.7866 143.041 51.8318 143.179 50.6809 143.179V143.18ZM51.0109 141.261C52.0291 141.261 52.9605 141.041 53.8002 140.601C54.6399 140.16 55.3094 139.481 55.8097 138.569C56.31 137.655 56.5578 136.503 56.5578 135.114V133.99L52.2734 134.586C50.4565 134.825 49.0848 135.246 48.1534 135.838C47.2256 136.435 46.7582 137.183 46.7582 138.086C46.7582 138.815 46.9696 139.412 47.3924 139.876C47.814 140.334 48.3507 140.683 49.0014 140.912C49.6532 141.147 50.3226 141.261 51.0109 141.261ZM35.4682 142.849C35.3708 142.853 35.2734 142.838 35.1819 142.805C35.0905 142.771 35.0069 142.718 34.9362 142.651C34.8698 142.581 34.8181 142.498 34.7843 142.407C34.7504 142.316 34.735 142.22 34.7389 142.123V126.42C34.7389 126.2 34.807 126.016 34.9362 125.874C35.0044 125.803 35.0872 125.746 35.1789 125.709C35.2707 125.672 35.3693 125.654 35.4682 125.658H36.0002C36.221 125.658 36.4042 125.732 36.551 125.874C36.6221 125.946 36.6777 126.031 36.7147 126.125C36.7516 126.219 36.7691 126.32 36.766 126.42V127.939C37.1369 127.193 37.7438 126.589 38.4924 126.223C39.2441 125.847 40.1754 125.659 41.2806 125.659H42.5102C42.731 125.659 42.9095 125.723 43.0422 125.855C43.1094 125.926 43.1616 126.01 43.1955 126.101C43.2294 126.193 43.2444 126.29 43.2395 126.387V126.846C43.2448 126.943 43.23 127.041 43.196 127.133C43.1621 127.224 43.1098 127.308 43.0422 127.379C42.9715 127.446 42.8879 127.498 42.7965 127.532C42.705 127.566 42.6076 127.581 42.5102 127.576H41.0832C39.7526 127.576 38.7026 127.961 37.9275 128.732C37.1524 129.503 36.766 130.553 36.766 131.874V142.124C36.7698 142.222 36.7527 142.32 36.7156 142.411C36.6785 142.502 36.6224 142.584 36.551 142.651C36.3996 142.785 36.2024 142.856 36.0002 142.849H35.4682ZM21.0906 143.18C19.1868 143.18 17.5849 142.812 16.2918 142.073C15.0212 141.359 13.9924 140.283 13.3369 138.981C12.658 137.66 12.2916 136.137 12.2211 134.421C12.1988 133.425 12.1906 132.38 12.1906 131.278C12.1906 130.177 12.1988 129.131 12.2223 128.135C12.2916 126.397 12.658 124.87 13.3381 123.557C14.0009 122.26 15.0354 121.19 16.3094 120.484C17.613 119.744 19.2103 119.377 21.0894 119.377C22.6186 119.377 23.9257 119.603 25.0086 120.057C26.0949 120.506 26.9816 121.071 27.664 121.74C28.3522 122.414 28.8619 123.09 29.1919 123.772C29.5267 124.457 29.7017 125.029 29.724 125.493C29.7391 125.58 29.732 125.669 29.7032 125.753C29.6745 125.836 29.6251 125.911 29.5595 125.971C29.4126 126.098 29.2219 126.164 29.0275 126.154H28.297C28.0962 126.154 27.9529 126.103 27.866 126.007C27.7744 125.906 27.6875 125.737 27.6006 125.493C27.3568 124.772 26.9781 124.104 26.4848 123.525C25.9681 122.897 25.2693 122.378 24.3943 121.975C23.5217 121.566 22.4165 121.36 21.0906 121.36C19.1175 121.36 17.5203 121.896 16.2918 122.965C15.0621 124.034 14.4056 125.814 14.314 128.305C14.2498 130.288 14.2498 132.272 14.314 134.255C14.4056 136.724 15.0621 138.495 16.2918 139.578C17.5214 140.656 19.1175 141.197 21.0906 141.197C22.3978 141.197 23.5687 140.949 24.6092 140.454C25.6453 139.964 26.5044 139.166 27.0685 138.168C27.664 137.147 27.9623 135.838 27.9623 134.255V132.567H22.1864C22.0874 132.571 21.9888 132.554 21.8971 132.517C21.8053 132.479 21.7226 132.423 21.6543 132.351C21.5196 132.202 21.4488 132.006 21.457 131.805V131.342C21.457 131.104 21.5216 130.916 21.6543 130.782C21.725 130.715 21.8086 130.663 21.9001 130.629C21.9915 130.595 22.0889 130.58 22.1864 130.585H29.2929C29.5361 130.585 29.724 130.65 29.8567 130.782C29.9906 130.916 30.0552 131.104 30.0552 131.342V134.255C30.0552 136.017 29.7064 137.573 29.0087 138.918C28.3268 140.245 27.2623 141.338 25.9528 142.055C24.6139 142.803 22.9932 143.179 21.0906 143.179V143.18Z" fill="#545454"/>
</svg>
