<svg width="137" height="137" viewBox="0 0 137 137" fill="none" xmlns="http://www.w3.org/2000/svg">
<path d="M113.75 2.5415H65.6661C65.6661 14.5284 75.3702 24.2304 87.3518 24.2304H96.1988V32.791C96.1988 44.7779 105.902 54.481 117.889 54.481V6.67911C117.888 5.58191 117.451 4.52999 116.675 3.75425C115.899 2.97851 114.847 2.54235 113.75 2.5415Z" fill="#2684FF"/>
<path d="M89.9232 26.5142H41.8392C41.8392 38.5011 51.538 48.201 63.5249 48.201H72.3708V56.7637C72.3708 68.7506 82.0739 78.4547 94.0608 78.4547V30.6528C94.06 29.5556 93.6238 28.5036 92.8481 27.7277C92.0723 26.9517 91.0204 26.5153 89.9232 26.5142Z" fill="url(#paint0_linear_90_49)"/>
<path d="M66.0952 50.4839H18.0069C18.0069 62.4708 27.7099 72.1739 39.6958 72.1739H48.5439V80.7376C48.5439 92.7203 58.2459 102.423 70.2328 102.423V54.6226C70.2319 53.5254 69.7958 52.4733 69.02 51.6974C68.2443 50.9214 67.1924 50.485 66.0952 50.4839Z" fill="url(#paint1_linear_90_49)"/>
<path d="M49.1295 107.797H52.7858V125.877C52.7858 130.648 50.6105 133.975 45.5604 133.975C43.6652 133.975 42.1799 133.659 41.1609 133.301V129.837C42.2757 130.286 43.6183 130.511 44.962 130.511C48.0647 130.511 49.1295 128.714 49.1295 126.102V107.797ZM59.5022 106.4C60.9375 106.4 61.9565 107.256 61.9565 108.783C61.9565 110.268 60.9375 111.17 59.5022 111.17C58.068 111.17 57.0491 110.313 57.0491 108.783C57.0491 107.303 58.068 106.4 59.5022 106.4ZM57.6975 114.003H61.2165V133.796H57.6975V114.003ZM69.9208 133.796H66.4955V114.003H69.9219V117.467C71.1282 115.126 73.1662 113.463 77.1462 113.688V117.018C72.6551 116.569 69.9219 117.871 69.9219 122.101L69.9208 133.796ZM93.5912 130.24C92.2933 132.852 89.839 134.201 86.6863 134.201C81.2721 134.201 78.5389 129.745 78.5389 123.897C78.5389 118.32 81.4084 113.599 87.1069 113.599C90.068 113.599 92.3849 114.901 93.5912 117.467V114.003H97.1102V133.796H93.5912V130.24ZM87.6148 131.051C90.7632 131.051 93.5412 129.118 93.5412 124.709V123.136C93.5412 118.728 90.9964 116.793 87.9843 116.793C84.05 116.793 82.011 119.31 82.011 123.897C82.0579 128.667 84.0042 131.051 87.6148 131.051Z" fill="#253858"/>
<defs>
<linearGradient id="paint0_linear_90_49" x1="93.0611" y1="26.5681" x2="72.6018" y2="47.6641" gradientUnits="userSpaceOnUse">
<stop offset="0.176" stop-color="#0052CC"/>
<stop offset="1" stop-color="#2684FF"/>
</linearGradient>
<linearGradient id="paint1_linear_90_49" x1="70.6166" y1="50.669" x2="46.9611" y2="73.6836" gradientUnits="userSpaceOnUse">
<stop offset="0.176" stop-color="#0052CC"/>
<stop offset="1" stop-color="#2684FF"/>
</linearGradient>
</defs>
</svg>
