<svg width="111" height="111" viewBox="0 0 111 111" fill="none" xmlns="http://www.w3.org/2000/svg">
<g clip-path="url(#clip0_90_54)">
<path d="M84.7226 0H25.9355C11.6117 0 0 11.6117 0 25.9355V84.7226C0 99.0464 11.6117 110.658 25.9355 110.658H84.7226C99.0464 110.658 110.658 99.0464 110.658 84.7226V25.9355C110.658 11.6117 99.0464 0 84.7226 0Z" fill="#F0DB4F"/>
<path d="M29.0962 92.4738L37.5641 87.3489C39.198 90.2455 40.6841 92.6964 44.249 92.6964C47.666 92.6964 49.8203 91.3598 49.8203 86.1606V50.8028H60.2196V86.3076C60.2196 97.0782 53.906 101.981 44.6946 101.981C36.3758 101.981 31.5471 97.6725 29.0957 92.4729M65.8679 91.3594L74.335 86.4572C76.5641 90.0972 79.4611 92.7712 84.586 92.7712C88.8952 92.7712 91.6426 90.6168 91.6426 87.6454C91.6426 84.0802 88.82 82.8171 84.066 80.738L81.4668 79.6232C73.9641 76.4296 68.9871 72.4183 68.9871 63.9504C68.9871 56.1507 74.9298 50.208 84.2151 50.208C90.8261 50.208 95.58 52.5111 98.9966 58.5277L90.9 63.7273C89.1169 60.5334 87.1865 59.2707 84.2151 59.2707C81.1694 59.2707 79.2381 61.2021 79.2381 63.7273C79.2381 66.8469 81.1694 68.11 85.626 70.0417L88.2256 71.1557C97.0648 74.9444 102.042 78.8062 102.042 87.4967C102.042 96.8569 94.6883 101.982 84.809 101.982C75.1528 101.982 68.9132 97.3764 65.8679 91.3594Z" fill="#323330"/>
</g>
<defs>
<clipPath id="clip0_90_54">
<rect width="110.658" height="110.658" fill="white"/>
</clipPath>
</defs>
</svg>
