<svg width="241" height="44" viewBox="0 0 241 44" fill="none" xmlns="http://www.w3.org/2000/svg">
<path d="M62.84 14.006H53.082V10.726H76.493V14.006H66.735V40H62.84V14.006ZM89.3215 27.372C89.2668 26.552 89.0755 25.773 88.7475 25.035C88.4468 24.297 88.0232 23.6683 87.4765 23.149C86.9572 22.6023 86.3285 22.1787 85.5905 21.878C84.8798 21.55 84.0872 21.386 83.2125 21.386C82.3105 21.386 81.4905 21.55 80.7525 21.878C80.0418 22.1787 79.4268 22.6023 78.9075 23.149C78.3882 23.6957 77.9782 24.338 77.6775 25.076C77.3768 25.7867 77.1992 26.552 77.1445 27.372H89.3215ZM92.6835 33.276C92.2188 35.654 91.1939 37.4443 89.6085 38.647C88.0232 39.8497 86.0278 40.451 83.6225 40.451C81.9278 40.451 80.4518 40.1777 79.1945 39.631C77.9645 39.0843 76.9258 38.319 76.0785 37.335C75.2312 36.351 74.5888 35.1757 74.1515 33.809C73.7415 32.4423 73.5092 30.9527 73.4545 29.34C73.4545 27.7273 73.7005 26.2513 74.1925 24.912C74.6845 23.5727 75.3678 22.411 76.2425 21.427C77.1445 20.443 78.1968 19.6777 79.3995 19.131C80.6295 18.5843 81.9688 18.311 83.4175 18.311C85.3035 18.311 86.8615 18.7073 88.0915 19.5C89.3488 20.2653 90.3465 21.2493 91.0845 22.452C91.8498 23.6547 92.3692 24.9667 92.6425 26.388C92.9432 27.8093 93.0662 29.1623 93.0115 30.447H77.1445C77.1172 31.3763 77.2265 32.2647 77.4725 33.112C77.7185 33.932 78.1148 34.67 78.6615 35.326C79.2082 35.9547 79.9052 36.4603 80.7525 36.843C81.5998 37.2257 82.5975 37.417 83.7455 37.417C85.2215 37.417 86.4242 37.0753 87.3535 36.392C88.3102 35.7087 88.9389 34.67 89.2395 33.276H92.6835ZM115.402 39.918C114.801 40.2733 113.967 40.451 112.901 40.451C111.999 40.451 111.275 40.205 110.728 39.713C110.209 39.1937 109.949 38.36 109.949 37.212C108.992 38.36 107.872 39.1937 106.587 39.713C105.33 40.205 103.963 40.451 102.487 40.451C101.53 40.451 100.615 40.3417 99.74 40.123C98.8927 39.9043 98.1547 39.5627 97.526 39.098C96.8973 38.6333 96.3917 38.032 96.009 37.294C95.6537 36.5287 95.476 35.613 95.476 34.547C95.476 33.3443 95.681 32.3603 96.091 31.595C96.501 30.8297 97.034 30.2147 97.69 29.75C98.3733 29.258 99.1387 28.889 99.986 28.643C100.861 28.397 101.749 28.192 102.651 28.028C103.608 27.8367 104.51 27.7 105.357 27.618C106.232 27.5087 106.997 27.372 107.653 27.208C108.309 27.0167 108.828 26.757 109.211 26.429C109.594 26.0737 109.785 25.568 109.785 24.912C109.785 24.1467 109.635 23.5317 109.334 23.067C109.061 22.6023 108.692 22.247 108.227 22.001C107.79 21.755 107.284 21.591 106.71 21.509C106.163 21.427 105.617 21.386 105.07 21.386C103.594 21.386 102.364 21.673 101.38 22.247C100.396 22.7937 99.863 23.846 99.781 25.404H96.296C96.3507 24.092 96.624 22.985 97.116 22.083C97.608 21.181 98.264 20.4567 99.084 19.91C99.904 19.336 100.833 18.926 101.872 18.68C102.938 18.434 104.072 18.311 105.275 18.311C106.232 18.311 107.175 18.3793 108.104 18.516C109.061 18.6527 109.922 18.9397 110.687 19.377C111.452 19.787 112.067 20.3747 112.532 21.14C112.997 21.9053 113.229 22.903 113.229 24.133V35.039C113.229 35.859 113.27 36.4603 113.352 36.843C113.461 37.2257 113.789 37.417 114.336 37.417C114.637 37.417 114.992 37.3487 115.402 37.212V39.918ZM109.744 29.053C109.307 29.381 108.733 29.627 108.022 29.791C107.311 29.9277 106.56 30.0507 105.767 30.16C105.002 30.242 104.223 30.3513 103.43 30.488C102.637 30.5973 101.927 30.7887 101.298 31.062C100.669 31.3353 100.15 31.7317 99.74 32.251C99.3573 32.743 99.166 33.4263 99.166 34.301C99.166 34.875 99.2753 35.367 99.494 35.777C99.74 36.1597 100.041 36.474 100.396 36.72C100.779 36.966 101.216 37.1437 101.708 37.253C102.2 37.3623 102.719 37.417 103.266 37.417C104.414 37.417 105.398 37.2667 106.218 36.966C107.038 36.638 107.708 36.2417 108.227 35.777C108.746 35.285 109.129 34.7657 109.375 34.219C109.621 33.645 109.744 33.112 109.744 32.62V29.053ZM118.645 18.803H121.925V21.919H122.007C123.593 19.5137 125.875 18.311 128.854 18.311C130.166 18.311 131.355 18.5843 132.421 19.131C133.487 19.6777 134.239 20.607 134.676 21.919C135.387 20.771 136.316 19.8827 137.464 19.254C138.64 18.6253 139.924 18.311 141.318 18.311C142.384 18.311 143.341 18.434 144.188 18.68C145.063 18.8987 145.801 19.254 146.402 19.746C147.031 20.238 147.509 20.8803 147.837 21.673C148.193 22.4383 148.37 23.3677 148.37 24.461V40H144.885V26.101C144.885 25.445 144.831 24.83 144.721 24.256C144.612 23.682 144.407 23.19 144.106 22.78C143.806 22.3427 143.382 22.001 142.835 21.755C142.316 21.509 141.633 21.386 140.785 21.386C139.063 21.386 137.71 21.878 136.726 22.862C135.742 23.846 135.25 25.158 135.25 26.798V40H131.765V26.101C131.765 25.4177 131.697 24.789 131.56 24.215C131.451 23.641 131.246 23.149 130.945 22.739C130.645 22.3017 130.235 21.9737 129.715 21.755C129.223 21.509 128.581 21.386 127.788 21.386C126.777 21.386 125.902 21.591 125.164 22.001C124.454 22.411 123.866 22.903 123.401 23.477C122.964 24.051 122.636 24.6523 122.417 25.281C122.226 25.8823 122.13 26.388 122.13 26.798V40H118.645V18.803ZM165.585 10.726H184.814V14.006H169.48V23.313H182.928V26.593H169.48V40H165.585V10.726ZM207.332 39.918C206.73 40.2733 205.897 40.451 204.831 40.451C203.929 40.451 203.204 40.205 202.658 39.713C202.138 39.1937 201.879 38.36 201.879 37.212C200.922 38.36 199.801 39.1937 198.517 39.713C197.259 40.205 195.893 40.451 194.417 40.451C193.46 40.451 192.544 40.3417 191.67 40.123C190.822 39.9043 190.084 39.5627 189.456 39.098C188.827 38.6333 188.321 38.032 187.939 37.294C187.583 36.5287 187.406 35.613 187.406 34.547C187.406 33.3443 187.611 32.3603 188.021 31.595C188.431 30.8297 188.964 30.2147 189.62 29.75C190.303 29.258 191.068 28.889 191.916 28.643C192.79 28.397 193.679 28.192 194.581 28.028C195.537 27.8367 196.439 27.7 197.287 27.618C198.161 27.5087 198.927 27.372 199.583 27.208C200.239 27.0167 200.758 26.757 201.141 26.429C201.523 26.0737 201.715 25.568 201.715 24.912C201.715 24.1467 201.564 23.5317 201.264 23.067C200.99 22.6023 200.621 22.247 200.157 22.001C199.719 21.755 199.214 21.591 198.64 21.509C198.093 21.427 197.546 21.386 197 21.386C195.524 21.386 194.294 21.673 193.31 22.247C192.326 22.7937 191.793 23.846 191.711 25.404H188.226C188.28 24.092 188.554 22.985 189.046 22.083C189.538 21.181 190.194 20.4567 191.014 19.91C191.834 19.336 192.763 18.926 193.802 18.68C194.868 18.434 196.002 18.311 197.205 18.311C198.161 18.311 199.104 18.3793 200.034 18.516C200.99 18.6527 201.851 18.9397 202.617 19.377C203.382 19.787 203.997 20.3747 204.462 21.14C204.926 21.9053 205.159 22.903 205.159 24.133V35.039C205.159 35.859 205.2 36.4603 205.282 36.843C205.391 37.2257 205.719 37.417 206.266 37.417C206.566 37.417 206.922 37.3487 207.332 37.212V39.918ZM201.674 29.053C201.236 29.381 200.662 29.627 199.952 29.791C199.241 29.9277 198.489 30.0507 197.697 30.16C196.931 30.242 196.152 30.3513 195.36 30.488C194.567 30.5973 193.856 30.7887 193.228 31.062C192.599 31.3353 192.08 31.7317 191.67 32.251C191.287 32.743 191.096 33.4263 191.096 34.301C191.096 34.875 191.205 35.367 191.424 35.777C191.67 36.1597 191.97 36.474 192.326 36.72C192.708 36.966 193.146 37.1437 193.638 37.253C194.13 37.3623 194.649 37.417 195.196 37.417C196.344 37.417 197.328 37.2667 198.148 36.966C198.968 36.638 199.637 36.2417 200.157 35.777C200.676 35.285 201.059 34.7657 201.305 34.219C201.551 33.645 201.674 33.112 201.674 32.62V29.053ZM210.698 10.726H214.183V21.673H214.265C214.839 20.4977 215.741 19.6503 216.971 19.131C218.201 18.5843 219.554 18.311 221.03 18.311C222.67 18.311 224.092 18.6117 225.294 19.213C226.524 19.8143 227.536 20.6343 228.328 21.673C229.148 22.6843 229.763 23.8597 230.173 25.199C230.583 26.5383 230.788 27.9597 230.788 29.463C230.788 30.9663 230.583 32.3877 230.173 33.727C229.791 35.0663 229.189 36.2417 228.369 37.253C227.577 38.237 226.565 39.016 225.335 39.59C224.133 40.164 222.725 40.451 221.112 40.451C220.593 40.451 220.005 40.3963 219.349 40.287C218.721 40.1777 218.092 40 217.463 39.754C216.835 39.508 216.233 39.18 215.659 38.77C215.113 38.3327 214.648 37.7997 214.265 37.171H214.183V40H210.698V10.726ZM227.098 29.217C227.098 28.233 226.962 27.2763 226.688 26.347C226.442 25.3903 226.046 24.543 225.499 23.805C224.98 23.067 224.297 22.4793 223.449 22.042C222.629 21.6047 221.659 21.386 220.538 21.386C219.363 21.386 218.365 21.6183 217.545 22.083C216.725 22.5477 216.056 23.1627 215.536 23.928C215.017 24.666 214.634 25.5133 214.388 26.47C214.17 27.4267 214.06 28.397 214.06 29.381C214.06 30.4197 214.183 31.431 214.429 32.415C214.675 33.3717 215.058 34.219 215.577 34.957C216.124 35.695 216.821 36.2963 217.668 36.761C218.516 37.1983 219.541 37.417 220.743 37.417C221.946 37.417 222.944 37.1847 223.736 36.72C224.556 36.2553 225.212 35.6403 225.704 34.875C226.196 34.1097 226.552 33.235 226.77 32.251C226.989 31.267 227.098 30.2557 227.098 29.217Z" fill="black"/>
<rect y="4" width="40" height="40" rx="6" fill="#00AED5"/>
<path fill-rule="evenodd" clip-rule="evenodd" d="M13.0296 11.5102C14.001 12.75 14.3083 14.0841 14.0926 15.5461C14.895 14.438 16.502 13.041 17.9038 11.8224C21.0289 9.10581 23.134 7.27588 13.0296 11.5102ZM6.76078 15.1054C7.06358 16.6602 8.56945 17.6752 10.1242 17.3724C11.679 17.0696 12.694 15.5637 12.3912 14.0089C12.0884 12.4541 10.5825 11.4391 9.02771 11.742C7.47291 12.0448 6.45797 13.5506 6.76078 15.1054ZM32.904 31.9597C32.1612 31.003 31.0216 30.474 29.3244 30.5456C29.9237 29.4883 30.4069 27.1966 30.8194 25.2405C31.687 21.1262 32.2416 18.4966 32.904 31.9597ZM6.4989 31.0166C7.90202 30.3001 9.27008 30.2538 10.6638 30.7447C9.7652 29.9278 8.59532 28.0069 7.55225 26.2942C5.3203 22.6294 3.669 19.918 6.4989 31.0166ZM11.6981 34.9891C11.6981 36.5731 10.414 37.8572 8.83002 37.8572C7.24602 37.8572 5.96193 36.5731 5.96193 34.9891C5.96193 33.4051 7.24602 32.1211 8.83002 32.1211C10.414 32.1211 11.6981 33.4051 11.6981 34.9891ZM13.3754 33.8741C13.7279 35.5359 13.3953 36.7475 12.5756 37.6393C25.2677 34.9719 22.9616 34.8334 18.9266 34.591C16.983 34.4742 14.6383 34.3333 13.3754 33.8741ZM29.6202 32.0624C31.2024 31.9888 32.5449 33.2117 32.6185 34.794C32.6922 36.3763 31.4692 37.7187 29.887 37.7924C28.3047 37.8661 26.9623 36.6431 26.8886 35.0608C26.8149 33.4785 28.0379 32.1361 29.6202 32.0624ZM25.5951 33.5842C25.169 34.9993 25.2791 36.3636 26.06 37.7317C15.5066 40.5961 17.439 39.3521 20.8038 37.1858C22.5151 36.0841 24.5969 34.7438 25.5951 33.5842ZM10.8293 18.9692C9.16075 19.2867 7.95635 18.9285 7.0819 18.0902C9.31267 30.5401 9.5478 28.205 9.94706 24.2397C10.1329 22.3938 10.3544 20.1945 10.8293 18.9692ZM27.3547 12.765C27.1699 11.1919 28.2954 9.76671 29.8685 9.58188C31.4417 9.39705 32.8669 10.5225 33.0517 12.0957C33.2365 13.6689 32.111 15.094 30.5379 15.2789C28.9647 15.4637 27.5395 14.3382 27.3547 12.765ZM29.1807 16.6189C30.5899 17.0635 31.9557 16.9715 33.3339 16.2086C36.483 26.8042 34.6346 24.1233 32.1807 20.5641C31.1824 19.1161 30.0838 17.5227 29.1807 16.6189ZM26.4065 10.0829C25.6965 11.0641 25.5079 12.3062 26.0521 13.9156C24.9735 13.6611 23.4024 13.5533 21.9741 13.4554C18.0738 13.1879 15.2384 12.9934 26.4065 10.0829Z" fill="white"/>
<path d="M14.0926 15.5461L14.009 15.5337L14.1611 15.5957L14.0926 15.5461ZM13.0296 11.5102L12.9969 11.4322L12.8947 11.475L12.963 11.5623L13.0296 11.5102ZM17.9038 11.8224L17.9593 11.8863L17.9038 11.8224ZM10.1242 17.3724L10.1081 17.2894L10.1081 17.2894L10.1242 17.3724ZM6.76078 15.1054L6.67779 15.1216L6.67779 15.1216L6.76078 15.1054ZM12.3912 14.0089L12.3082 14.025L12.3082 14.025L12.3912 14.0089ZM9.02771 11.742L9.04387 11.8249L9.04387 11.8249L9.02771 11.742ZM29.3244 30.5456L29.2508 30.5039L29.1757 30.6365L29.3279 30.6301L29.3244 30.5456ZM32.904 31.9597L32.8372 32.0115L33.0016 32.2232L32.9885 31.9555L32.904 31.9597ZM30.8194 25.2405L30.7367 25.2231L30.7367 25.2231L30.8194 25.2405ZM10.6638 30.7447L10.6357 30.8245L10.7206 30.6822L10.6638 30.7447ZM6.4989 31.0166L6.41698 31.0375L6.44312 31.14L6.53734 31.0919L6.4989 31.0166ZM7.55225 26.2942L7.48004 26.3382L7.48004 26.3382L7.55225 26.2942ZM12.5756 37.6393L12.5133 37.5821L12.3348 37.7763L12.593 37.722L12.5756 37.6393ZM13.3754 33.8741L13.4042 33.7947L13.261 33.7426L13.2927 33.8917L13.3754 33.8741ZM18.9266 34.591L18.9317 34.5066L18.9317 34.5066L18.9266 34.591ZM32.6185 34.794L32.703 34.7901L32.703 34.7901L32.6185 34.794ZM29.6202 32.0624L29.6241 32.1469L29.6241 32.1469L29.6202 32.0624ZM26.06 37.7317L26.0822 37.8132L26.1876 37.7846L26.1334 37.6897L26.06 37.7317ZM25.5951 33.5842L25.676 33.6085L25.531 33.529L25.5951 33.5842ZM20.8038 37.1858L20.758 37.1147L20.758 37.1147L20.8038 37.1858ZM7.0819 18.0902L7.1404 18.0292L6.95286 17.8494L6.99868 18.1051L7.0819 18.0902ZM10.8293 18.9692L10.9082 18.9998L10.9632 18.8577L10.8135 18.8862L10.8293 18.9692ZM9.94706 24.2397L9.86295 24.2313L9.86295 24.2313L9.94706 24.2397ZM29.8685 9.58188L29.8784 9.66584L29.8784 9.66584L29.8685 9.58188ZM27.3547 12.765L27.2707 12.7749L27.2707 12.7749L27.3547 12.765ZM33.0517 12.0957L33.1357 12.0858L33.1357 12.0858L33.0517 12.0957ZM30.5379 15.2789L30.528 15.1949L30.528 15.1949L30.5379 15.2789ZM33.3339 16.2086L33.4149 16.1845L33.385 16.0837L33.2929 16.1347L33.3339 16.2086ZM29.1807 16.6189L29.2062 16.5383L29.1209 16.6786L29.1807 16.6189ZM32.1807 20.5641L32.1111 20.6121L32.1111 20.6121L32.1807 20.5641ZM26.0521 13.9156L26.0327 13.9979L26.181 14.0329L26.1322 13.8885L26.0521 13.9156ZM26.4065 10.0829L26.475 10.1325L26.6131 9.94175L26.3852 10.0011L26.4065 10.0829ZM21.9741 13.4554L21.9799 13.371L21.9741 13.4554ZM14.1762 15.5584C14.3951 14.0747 14.0825 12.717 13.0961 11.458L12.963 11.5623C13.9194 12.783 14.2214 14.0936 14.009 15.5337L14.1762 15.5584ZM17.8483 11.7586C16.4499 12.9743 14.8336 14.3786 14.0241 15.4965L14.1611 15.5957C14.9564 14.4973 16.5542 13.1077 17.9593 11.8863L17.8483 11.7586ZM13.0623 11.5881C15.5879 10.5298 17.3483 9.85132 18.5196 9.471C19.1056 9.28072 19.5412 9.16607 19.85 9.11533C20.0045 9.08993 20.1241 9.0811 20.2134 9.08571C20.3047 9.09044 20.353 9.10877 20.3761 9.12658C20.3926 9.13935 20.402 9.15592 20.3986 9.19154C20.3947 9.23256 20.3733 9.29148 20.3265 9.37015C20.2337 9.52629 20.06 9.72986 19.8213 9.97287C19.3452 10.4574 18.6307 11.0786 17.8483 11.7586L17.9593 11.8863C18.7395 11.208 19.46 10.5817 19.9419 10.0914C20.182 9.84697 20.368 9.63127 20.4718 9.45653C20.5234 9.36977 20.5595 9.28534 20.567 9.20764C20.5749 9.12454 20.5495 9.04701 20.4795 8.99284C20.416 8.94371 20.3261 8.92224 20.2221 8.91686C20.116 8.91136 19.9831 8.9221 19.8225 8.94848C19.5012 9.00129 19.0561 9.11902 18.4674 9.31019C17.2891 9.69276 15.5235 10.3734 12.9969 11.4322L13.0623 11.5881ZM10.1081 17.2894C8.59912 17.5832 7.13763 16.5982 6.84376 15.0893L6.67779 15.1216C6.98952 16.7222 8.53979 17.7671 10.1404 17.4553L10.1081 17.2894ZM12.3082 14.025C12.6021 15.534 11.617 16.9955 10.1081 17.2894L10.1404 17.4553C11.741 17.1436 12.7859 15.5933 12.4742 13.9927L12.3082 14.025ZM9.04387 11.8249C10.5528 11.5311 12.0143 12.5161 12.3082 14.025L12.4742 13.9927C12.1624 12.3921 10.6122 11.3472 9.01155 11.659L9.04387 11.8249ZM6.84376 15.0893C6.54988 13.5803 7.53491 12.1188 9.04387 11.8249L9.01155 11.659C7.41092 11.9707 6.36607 13.521 6.67779 15.1216L6.84376 15.0893ZM29.3279 30.6301C31.0036 30.5594 32.1144 31.0807 32.8372 32.0115L32.9708 31.9078C32.2079 30.9254 31.0397 30.3886 29.3208 30.4612L29.3279 30.6301ZM30.7367 25.2231C30.5304 26.2015 30.3068 27.2614 30.0601 28.2088C29.8129 29.1582 29.5445 29.9858 29.2508 30.5039L29.3979 30.5873C29.7036 30.048 29.9764 29.2011 30.2238 28.2514C30.4716 27.2995 30.696 26.2356 30.9022 25.258L30.7367 25.2231ZM32.9885 31.9555C32.8228 28.5894 32.6639 26.2277 32.505 24.6431C32.4255 23.8509 32.3459 23.2514 32.2652 22.8171C32.2249 22.5999 32.184 22.4227 32.1423 22.2827C32.101 22.1439 32.0574 22.0367 32.0097 21.9628C31.964 21.892 31.8994 21.8293 31.8112 21.8318C31.7275 21.8342 31.6637 21.8954 31.6174 21.9587C31.5212 22.0903 31.4289 22.3308 31.337 22.6371C31.1514 23.2561 30.9533 24.1961 30.7367 25.2231L30.9022 25.258C31.1194 24.2278 31.3159 23.2962 31.499 22.6857C31.5915 22.3773 31.677 22.1636 31.7539 22.0585C31.794 22.0036 31.8155 22.0009 31.816 22.0008C31.8161 22.0008 31.8164 22.0008 31.8177 22.0012C31.819 22.0017 31.822 22.003 31.8266 22.0063C31.8363 22.0134 31.8504 22.0277 31.8676 22.0544C31.9024 22.1083 31.9405 22.1975 31.9802 22.331C32.0196 22.4633 32.0592 22.6341 32.099 22.8479C32.1784 23.2755 32.2575 23.8697 32.3367 24.66C32.4952 26.2402 32.654 28.5984 32.8196 31.9638L32.9885 31.9555ZM10.6919 30.665C9.2774 30.1667 7.88521 30.2138 6.46045 30.9413L6.53734 31.0919C7.91884 30.3865 9.26276 30.3408 10.6357 30.8245L10.6919 30.665ZM7.48004 26.3382C8.00135 27.1942 8.5556 28.1042 9.09202 28.9025C9.62742 29.6993 10.1494 30.3913 10.6069 30.8073L10.7206 30.6822C10.2796 30.2812 9.76731 29.6043 9.23236 28.8082C8.69844 28.0137 8.14621 27.1069 7.62445 26.2502L7.48004 26.3382ZM6.58082 30.9957C5.87346 28.2215 5.4468 26.3128 5.23914 25.0672C5.13524 24.444 5.08676 23.9901 5.08462 23.6782C5.08354 23.522 5.09415 23.4053 5.11354 23.3222C5.13348 23.2368 5.15962 23.2005 5.17783 23.187C5.18986 23.178 5.20934 23.1708 5.25295 23.1873C5.29923 23.2048 5.35987 23.2452 5.43489 23.3139C5.58394 23.4502 5.7676 23.677 5.97924 23.9743C6.40152 24.5674 6.92141 25.4209 7.48004 26.3382L7.62445 26.2502C7.06711 25.3351 6.54361 24.4754 6.11697 23.8762C5.90416 23.5773 5.71197 23.3382 5.54903 23.1891C5.46806 23.115 5.38867 23.0579 5.31279 23.0291C5.23424 22.9994 5.14943 22.9974 5.07694 23.0513C5.01063 23.1006 4.97201 23.1848 4.94889 23.2838C4.9252 23.3852 4.91442 23.5169 4.91554 23.6794C4.91777 24.0047 4.968 24.469 5.07236 25.095C5.28125 26.348 5.70939 28.2624 6.41698 31.0375L6.58082 30.9957ZM8.83002 37.9418C10.4607 37.9418 11.7826 36.6198 11.7826 34.9891H11.6136C11.6136 36.5264 10.3673 37.7727 8.83002 37.7727V37.9418ZM5.87739 34.9891C5.87739 36.6198 7.19933 37.9418 8.83002 37.9418V37.7727C7.29271 37.7727 6.04648 36.5264 6.04648 34.9891H5.87739ZM8.83002 32.0365C7.19933 32.0365 5.87739 33.3585 5.87739 34.9891H6.04648C6.04648 33.4518 7.29271 32.2056 8.83002 32.2056V32.0365ZM11.7826 34.9891C11.7826 33.3585 10.4607 32.0365 8.83002 32.0365V32.2056C10.3673 32.2056 11.6136 33.4518 11.6136 34.9891H11.7826ZM12.6378 37.6965C13.4797 36.7807 13.8151 35.5395 13.4581 33.8566L13.2927 33.8917C13.6407 35.5323 13.311 36.7143 12.5133 37.5821L12.6378 37.6965ZM18.9216 34.6754C19.9322 34.7361 20.8281 34.79 21.4087 34.878C21.5534 34.9 21.6768 34.9238 21.7765 34.9499C21.8775 34.9764 21.9488 35.0039 21.9927 35.0308C22.0144 35.0441 22.0255 35.0549 22.0307 35.0619C22.0331 35.0651 22.0339 35.067 22.034 35.0675C22.0341 35.0678 22.0341 35.0678 22.0341 35.0678C22.0341 35.0677 22.0341 35.0676 22.0341 35.0677C22.0341 35.0687 22.0307 35.0927 21.9714 35.1394C21.8576 35.2291 21.6133 35.3438 21.199 35.4866C20.7883 35.6282 20.2204 35.7943 19.4685 35.99C17.9649 36.3813 15.7309 36.8898 12.5582 37.5565L12.593 37.722C15.7663 37.0551 18.0035 36.546 19.5111 36.1536C20.2648 35.9574 20.8375 35.7901 21.2541 35.6464C21.6672 35.504 21.9371 35.3817 22.0761 35.2722C22.1432 35.2193 22.2009 35.1531 22.2031 35.0722C22.2055 34.9849 22.1437 34.925 22.081 34.8866C22.0159 34.8467 21.9257 34.8142 21.8194 34.7864C21.7118 34.7582 21.582 34.7333 21.434 34.7109C20.844 34.6214 19.9386 34.5671 18.9317 34.5066L18.9216 34.6754ZM13.3465 33.9536C13.9882 34.1869 14.8988 34.3377 15.8866 34.445C16.876 34.5525 17.9502 34.617 18.9216 34.6754L18.9317 34.5066C17.9595 34.4482 16.8895 34.3839 15.9049 34.2769C14.9187 34.1698 14.0254 34.0206 13.4042 33.7947L13.3465 33.9536ZM32.703 34.7901C32.6271 33.1612 31.2452 31.9021 29.6162 31.978L29.6241 32.1469C31.1597 32.0754 32.4626 33.2623 32.5341 34.7979L32.703 34.7901ZM29.8909 37.8768C31.5198 37.801 32.7788 36.419 32.703 34.7901L32.5341 34.7979C32.6056 36.3336 31.4187 37.6364 29.883 37.7079L29.8909 37.8768ZM26.8041 35.0647C26.88 36.6937 28.262 37.9527 29.8909 37.8768L29.883 37.7079C28.3474 37.7795 27.0445 36.5925 26.973 35.0569L26.8041 35.0647ZM29.6162 31.978C27.9873 32.0538 26.7283 33.4358 26.8041 35.0647L26.973 35.0569C26.9015 33.5212 28.0884 32.2184 29.6241 32.1469L29.6162 31.978ZM26.1334 37.6897C25.3645 36.3428 25.2563 35.0026 25.676 33.6085L25.5141 33.5598C25.0817 34.9961 25.1936 36.3844 25.9866 37.7736L26.1334 37.6897ZM20.758 37.1147C19.9182 37.6554 19.1629 38.1416 18.6699 38.5208C18.425 38.7092 18.2368 38.8771 18.1369 39.0165C18.0877 39.0851 18.0507 39.1591 18.0511 39.2331C18.0516 39.3176 18.0998 39.3805 18.1725 39.4197C18.2403 39.4562 18.3337 39.4754 18.4468 39.4832C18.5617 39.4912 18.7053 39.4878 18.8791 39.4732C19.2268 39.4439 19.7037 39.3687 20.3301 39.2423C21.5833 38.9894 23.4434 38.5295 26.0822 37.8132L26.0379 37.6501C23.3999 38.3661 21.5441 38.8248 20.2966 39.0766C19.6726 39.2025 19.2031 39.2762 18.8649 39.3047C18.6958 39.3189 18.5616 39.3217 18.4585 39.3146C18.3536 39.3073 18.2888 39.2903 18.2527 39.2708C18.2215 39.2541 18.2202 39.2414 18.2202 39.2322C18.2201 39.2125 18.2315 39.1748 18.2743 39.115C18.3584 38.9978 18.5285 38.8429 18.773 38.6548C19.259 38.281 20.007 37.7993 20.8495 37.2569L20.758 37.1147ZM25.531 33.529C25.0387 34.1009 24.2756 34.7211 23.4175 35.338C22.5604 35.9543 21.614 36.5636 20.758 37.1147L20.8495 37.2569C21.7048 36.7062 22.655 36.0946 23.5162 35.4753C24.3764 34.8568 25.1532 34.2271 25.6591 33.6393L25.531 33.529ZM7.0234 18.1513C7.92139 19.0121 9.1553 19.3738 10.8451 19.0523L10.8135 18.8862C9.1662 19.1996 7.99131 18.8449 7.1404 18.0292L7.0234 18.1513ZM9.86295 24.2313C9.76294 25.2244 9.67377 26.1091 9.56165 26.6863C9.50486 26.9788 9.44468 27.1772 9.38234 27.2731C9.36756 27.2959 9.35508 27.3089 9.34599 27.3158C9.33765 27.3221 9.33396 27.322 9.33377 27.322C9.33281 27.322 9.3107 27.3212 9.2669 27.2673C9.1812 27.1619 9.07393 26.9288 8.94394 26.5266C8.81528 26.1285 8.66765 25.5758 8.49688 24.8418C8.15541 23.3741 7.72275 21.1874 7.16512 18.0753L6.99868 18.1051C7.55644 21.2179 7.98971 23.4081 8.3322 24.8801C8.50341 25.616 8.65228 26.174 8.78305 26.5786C8.9125 26.9792 9.02762 27.241 9.13569 27.374C9.18878 27.4393 9.2564 27.4936 9.33906 27.491C9.42331 27.4883 9.48321 27.4283 9.52414 27.3653C9.60678 27.238 9.67138 27.0082 9.72763 26.7186C9.8416 26.1318 9.93155 25.2377 10.0312 24.2482L9.86295 24.2313ZM10.7505 18.9387C10.5094 19.5606 10.3343 20.4246 10.1962 21.3593C10.0579 22.2954 9.95585 23.3087 9.86295 24.2313L10.0312 24.2482C10.1242 23.3248 10.2258 22.3155 10.3634 21.3841C10.5013 20.4513 10.6743 19.6031 10.9082 18.9998L10.7505 18.9387ZM29.8587 9.49791C28.2391 9.68819 27.0805 11.1553 27.2707 12.7749L27.4387 12.7552C27.2593 11.2284 28.3516 9.84522 29.8784 9.66584L29.8587 9.49791ZM33.1357 12.0858C32.9454 10.4663 31.4782 9.30764 29.8587 9.49791L29.8784 9.66584C31.4052 9.48646 32.7883 10.5788 32.9677 12.1056L33.1357 12.0858ZM30.5477 15.3628C32.1673 15.1726 33.3259 13.7054 33.1357 12.0858L32.9677 12.1056C33.1471 13.6324 32.0548 15.0155 30.528 15.1949L30.5477 15.3628ZM27.2707 12.7749C27.461 14.3945 28.9282 15.5531 30.5477 15.3628L30.528 15.1949C29.0012 15.3743 27.618 14.282 27.4387 12.7552L27.2707 12.7749ZM33.2929 16.1347C31.936 16.8857 30.5943 16.9762 29.2062 16.5383L29.1553 16.6995C30.5854 17.1507 31.9753 17.0572 33.3748 16.2826L33.2929 16.1347ZM32.1111 20.6121C32.7239 21.5009 33.3015 22.3387 33.773 22.9279C34.0083 23.222 34.2205 23.4584 34.4 23.6087C34.4895 23.6836 34.5753 23.7409 34.6556 23.7719C34.7362 23.803 34.8226 23.8112 34.8996 23.7682C34.9746 23.7264 35.0198 23.6474 35.0466 23.553C35.0736 23.4575 35.0857 23.3333 35.0845 23.1808C35.0821 22.8751 35.0262 22.4365 34.9103 21.8435C34.6783 20.6562 34.2023 18.8339 33.4149 16.1845L33.2528 16.2327C34.04 18.8811 34.5139 20.697 34.7443 21.8759C34.8597 22.4659 34.9131 22.8923 34.9154 23.1821C34.9165 23.3273 34.9047 23.4334 34.8839 23.5069C34.8627 23.5815 34.836 23.6101 34.8172 23.6206C34.8005 23.6299 34.7711 23.6352 34.7164 23.6141C34.6612 23.5928 34.5919 23.5488 34.5086 23.479C34.3425 23.34 34.1388 23.1145 33.905 22.8223C33.4381 22.2389 32.8645 21.4069 32.2503 20.5162L32.1111 20.6121ZM29.1209 16.6786C30.0172 17.5757 31.1108 19.1613 32.1111 20.6121L32.2503 20.5162C31.2539 19.0709 30.1503 17.4697 29.2405 16.5591L29.1209 16.6786ZM26.1322 13.8885C25.5949 12.2996 25.7841 11.0872 26.475 10.1325L26.338 10.0334C25.6088 11.041 25.4209 12.3128 25.972 13.9427L26.1322 13.8885ZM21.9684 13.5397C23.3994 13.6379 24.9624 13.7453 26.0327 13.9979L26.0715 13.8333C24.9846 13.5769 23.4055 13.4688 21.9799 13.371L21.9684 13.5397ZM26.3852 10.0011C23.5927 10.7289 21.6732 11.2874 20.4262 11.7203C19.803 11.9366 19.3451 12.1224 19.0294 12.2832C18.8716 12.3635 18.7471 12.4388 18.6545 12.5099C18.5633 12.5799 18.4959 12.6511 18.4625 12.7258C18.4262 12.8067 18.4319 12.8882 18.4796 12.9596C18.523 13.0246 18.5964 13.0744 18.6817 13.1147C18.8537 13.1958 19.1168 13.2576 19.4375 13.3084C20.0819 13.4104 20.9949 13.473 21.9684 13.5397L21.9799 13.371C21.0032 13.3041 20.0992 13.242 19.4639 13.1414C19.1448 13.0909 18.9025 13.0318 18.7539 12.9617C18.679 12.9264 18.6384 12.8929 18.6202 12.8658C18.6064 12.845 18.6031 12.8254 18.6168 12.7948C18.6333 12.758 18.6747 12.7075 18.7574 12.644C18.8387 12.5816 18.9533 12.5117 19.1062 12.4338C19.4117 12.2782 19.8611 12.0954 20.4816 11.88C21.7221 11.4494 23.6363 10.8922 26.4278 10.1647L26.3852 10.0011Z" fill="white"/>
</svg>
