<svg width="165" height="166" viewBox="0 0 165 166" fill="none" xmlns="http://www.w3.org/2000/svg">
<path d="M33.1289 57.5308V58.0464C33.1289 59.3354 32.7422 59.4644 32.4844 60.2378C32.0977 61.1401 32.2266 62.3003 32.7422 63.0737C32.7422 63.2026 32.8711 63.3315 32.8711 63.3315C32.3555 59.7222 35.3203 59.0776 35.9648 58.0464C35.9648 57.0151 35.1914 56.3706 34.5469 55.9839C33.9023 55.5972 33.3867 55.4683 32.8711 55.4683C32.4844 55.4683 32.0977 55.5972 31.7109 55.7261C32.4844 56.2417 32.8711 56.8862 33.1289 57.5308Z" fill="#545454"/>
<path d="M47.9531 66.5542V67.0698C47.9531 67.4565 47.8242 67.7144 47.8242 67.9722C47.6953 68.23 47.6953 68.6167 47.5664 68.8745C47.4375 69.1323 47.3086 69.519 47.1797 69.7769C47.0508 70.0347 46.9219 70.4214 46.793 70.6792C46.6641 70.937 46.4063 71.1948 46.2773 71.4526C46.1484 71.7104 45.8906 71.9683 45.6328 72.2261C45.375 72.4839 45.2461 72.7417 44.9883 72.9995L44.6016 73.3862C44.4727 73.5151 44.3438 73.5151 44.2148 73.644C43.957 73.9019 43.6992 74.0308 43.4414 74.1597C43.1836 74.2886 42.9258 74.5464 42.5391 74.6753C42.2813 74.8042 41.8945 74.9331 41.6367 75.062C41.3789 75.1909 40.9922 75.3198 40.7344 75.3198C40.4766 75.4487 40.0898 75.4487 39.832 75.5776C39.4453 75.5776 39.1875 75.7065 38.8008 75.7065H37.125C36.7383 75.7065 36.4805 75.5776 36.0938 75.5776C35.707 75.5776 35.4492 75.4487 35.1914 75.3198C35.4492 75.3198 35.8359 75.3198 36.0938 75.1909C36.4805 75.1909 36.7383 75.062 36.9961 74.9331C37.2539 74.8042 37.6406 74.8042 37.8984 74.6753C38.1563 74.5464 38.543 74.4175 38.8008 74.2886C39.0586 74.1597 39.3164 74.0308 39.7031 73.7729C39.9609 73.644 40.2188 73.3862 40.4766 73.2573C40.7344 72.9995 40.9922 72.8706 41.25 72.6128L41.8945 71.9683C42.1523 71.7104 42.2813 71.4526 42.5391 71.1948C42.5391 71.1948 42.5391 71.0659 42.668 71.0659C42.7969 70.8081 42.9258 70.5503 43.0547 70.4214C43.1836 70.1636 43.3125 69.9058 43.4414 69.519C43.5703 69.2612 43.6992 68.8745 43.8281 68.6167C43.957 68.3589 43.957 67.9722 44.0859 67.7144C44.0859 67.3276 44.2148 67.0698 44.2148 66.812V65.1362C44.2148 64.7495 44.0859 64.4917 44.0859 64.2339C44.0859 63.8472 43.957 63.5894 43.8281 63.3315C43.6992 63.0737 43.5703 62.687 43.5703 62.4292C43.4414 62.1714 43.3125 61.7847 43.1836 61.5269C43.0547 61.269 42.9258 61.0112 42.668 60.6245C42.5391 60.3667 42.2813 60.1089 42.1523 59.8511C41.8945 59.5933 41.7656 59.3354 41.5078 59.0776L41.1211 58.6909C40.4766 58.1753 39.832 57.6597 39.0586 57.2729C38.9297 57.2729 38.9297 57.144 38.8008 57.144C38.2852 56.8862 37.8984 56.6284 37.3828 56.4995V57.2729C37.3828 57.4019 37.3828 57.5308 37.2539 57.6597C37.2539 57.7886 37.125 57.9175 37.125 58.0464C37.125 58.1753 36.9961 58.3042 36.9961 58.4331L36.8672 58.562C36.8672 58.562 36.8672 58.6909 36.7383 58.6909C36.6094 58.8198 36.6094 58.9487 36.4805 58.9487L36.2227 59.2065L35.9648 59.4644C35.707 59.7222 35.3203 59.8511 35.0625 60.1089C34.9336 60.2378 34.8047 60.2378 34.8047 60.3667L34.5469 60.6245L34.2891 60.8823L34.0313 61.1401C33.9023 61.269 33.9023 61.3979 33.7734 61.3979C33.7734 61.5269 33.6445 61.6558 33.6445 61.7847C33.6445 61.9136 33.5156 62.0425 33.5156 62.1714C33.5156 62.3003 33.3867 62.4292 33.3867 62.5581V63.8472C33.3867 63.9761 33.3867 64.105 33.5156 64.2339C33.5156 64.3628 33.6445 64.4917 33.6445 64.6206C33.6445 64.7495 33.7734 64.7495 33.7734 64.8784L30.4219 63.5894C29.9063 63.4604 29.2617 63.3315 28.7461 63.2026C28.4883 63.0737 28.1016 63.0737 27.8438 62.9448C26.9414 62.8159 26.0391 62.687 25.2656 62.5581H25.1367C24.2344 62.4292 23.4609 62.4292 22.5586 62.4292C21.9141 62.4292 21.2695 62.4292 20.625 62.5581C19.7227 62.5581 18.8203 62.687 18.0469 62.8159C17.7891 62.8159 17.6602 62.9448 17.4023 62.9448C17.0156 63.0737 16.5 63.0737 16.1133 63.2026C15.8555 63.2026 15.7266 63.3315 15.4688 63.3315C15.2109 63.4604 15.082 63.4604 14.8242 63.5894C14.6953 63.7183 14.5664 63.7183 14.3086 63.8472H14.1797C14.0508 63.9761 13.9219 63.9761 13.793 64.105H13.6641C13.5352 64.2339 13.4063 64.2339 13.2773 64.3628C13.1484 64.3628 13.0195 64.4917 13.0195 64.4917C13.0195 64.4917 12.8906 64.4917 12.8906 64.6206C12.7617 64.7495 12.6328 64.7495 12.5039 64.8784C12.375 65.0073 12.2461 65.0073 12.1172 65.1362C11.9883 65.2651 11.8594 65.2651 11.8594 65.394C11.7305 65.394 11.7305 65.5229 11.6016 65.6519C11.4727 65.6519 11.4727 65.7808 11.3438 65.7808H11.2148C11.0859 65.7808 11.0859 65.9097 10.957 65.9097L10.6992 66.1675L10.4414 66.4253C10.3125 66.1675 10.3125 66.1675 10.1836 66.2964C10.1836 66.2964 10.0547 66.2964 10.0547 66.4253L9.79688 66.6831V66.812L9.41016 67.1987C9.15234 67.4565 8.89453 67.7144 8.63672 67.8433C8.37891 68.1011 8.12109 68.23 7.86328 68.4878C7.60547 68.7456 7.34766 68.8745 6.96094 69.0034C6.70313 69.1323 6.44531 69.2612 6.05859 69.3901C5.80078 69.519 5.41406 69.6479 5.15625 69.7769C4.51172 69.9058 3.86719 70.1636 3.35156 70.1636H2.96484C2.83594 70.1636 2.70703 70.1636 2.57813 70.2925C2.57813 70.4214 2.44922 70.4214 2.32031 70.4214C2.19141 70.4214 2.0625 70.5503 1.93359 70.5503C1.80469 70.6792 1.67578 70.6792 1.67578 70.8081C1.54688 70.937 1.41797 70.937 1.41797 71.0659C1.28906 71.1948 1.16016 71.1948 1.16016 71.3237L0.902344 71.5815C0.773438 71.7105 0.773438 71.8394 0.644531 71.9683C0.515625 72.0972 0.515625 72.2261 0.386719 72.355C0.386719 72.4839 0.257813 72.6128 0.257813 72.7417C0.257813 72.8706 0.128906 72.9995 0.128906 73.1284C0.128906 73.2573 0.128906 73.3862 0 73.5151V74.5464C0 74.6753 0 74.6753 0.128906 74.8042C0.128906 74.9331 0.257813 74.9331 0.257813 75.062C0.257813 75.1909 0.386719 75.1909 0.386719 75.3198L0.644531 75.5776L0.902344 75.8354C1.28906 76.0933 1.28906 76.2222 1.80469 76.48C1.93359 76.48 1.93359 76.6089 2.0625 76.6089V76.7378C2.0625 76.8667 2.0625 76.9956 2.19141 77.1245C2.19141 77.2534 2.32031 77.3823 2.32031 77.5112C2.32031 77.6401 2.44922 77.6401 2.44922 77.769V77.8979C2.44922 78.0269 2.57813 78.1558 2.57813 78.1558C2.70703 78.2847 2.70703 78.4136 2.83594 78.4136L3.09375 78.6714L3.35156 78.9292L3.60938 79.187C3.73828 79.3159 3.86719 79.3159 3.86719 79.3159C3.99609 79.3159 4.125 79.4448 4.25391 79.4448H4.76953V81.2495C5.15625 81.6362 5.80078 80.7339 6.44531 79.7026C6.31641 80.7339 6.31641 81.894 6.44531 82.1519C6.57422 82.5386 7.47656 81.3784 8.25 80.0894C18.4336 77.769 27.8438 84.73 28.7461 94.7847C28.6172 93.2378 26.6836 92.3354 25.7813 92.5933C25.3945 93.6245 24.6211 95.0425 23.4609 95.8159C23.5898 94.9136 23.4609 93.8823 23.332 92.98C23.0742 94.269 22.4297 95.5581 21.5273 96.5894C20.1094 96.7183 18.8203 96.0737 18.0469 95.0425L17.918 94.9136C17.918 94.7847 17.7891 94.6558 17.7891 94.6558C17.7891 94.5269 17.6602 94.3979 17.6602 94.3979V93.8823C17.6602 93.7534 17.6602 93.6245 17.7891 93.6245C17.7891 93.4956 17.7891 93.3667 17.918 93.3667C17.918 93.2378 18.0469 93.1089 18.0469 93.1089C18.3047 92.4644 18.3047 91.8198 17.7891 91.562C17.6602 91.562 17.6602 91.4331 17.5313 91.4331H17.2734C17.1445 91.4331 17.0156 91.4331 17.0156 91.3042H15.7266C15.5977 91.3042 15.4688 91.3042 15.4688 91.4331C15.3398 91.4331 15.3398 91.562 15.2109 91.562C15.082 91.562 15.082 91.6909 14.9531 91.6909C11.2148 93.6245 13.2773 98.7808 15.4688 100.199C14.5664 100.328 13.6641 100.585 13.5352 100.714C14.1797 101.101 14.8242 101.359 15.4688 101.617C16.3711 101.875 17.4023 102.132 17.7891 102.261C18.9492 102.519 20.2383 102.648 21.3984 102.519C27.8438 102.132 33 97.2339 34.0313 90.7886C34.0313 90.9175 34.0313 91.0464 34.1602 91.1753C34.1602 91.4331 34.2891 91.6909 34.2891 91.9487V95.9448C34.2891 96.0737 34.2891 96.2026 34.1602 96.3315C34.1602 96.4604 34.1602 96.5894 34.0313 96.7183C34.0313 96.8472 34.0313 96.9761 33.9023 97.105C33.9023 97.2339 33.7734 97.3628 33.7734 97.4917C33.7734 97.6206 33.6445 97.7495 33.6445 97.8784C33.6445 98.0073 33.5156 98.1362 33.5156 98.2651C33.5156 98.394 33.3867 98.523 33.3867 98.6519C33.3867 98.7808 33.2578 98.9097 33.2578 99.0386C33.2578 99.1675 33.1289 99.2964 33.1289 99.4253V99.5542C32.2266 101.488 30.8086 103.164 29.1328 104.453C29.0039 104.582 28.875 104.582 28.7461 104.71C28.7461 104.71 28.6172 104.71 28.6172 104.839C28.4883 104.968 28.3594 104.968 28.3594 105.097V105.226C28.6172 105.226 28.7461 105.226 29.0039 105.097C29.3906 105.097 29.7773 104.968 30.1641 104.839C30.293 104.839 30.4219 104.839 30.4219 104.71H30.9375C31.0664 104.71 31.0664 104.71 31.1953 104.582C32.6133 104.195 34.0313 103.808 35.3203 103.164C33 106.257 29.9063 108.835 26.4258 110.511C28.1016 110.382 29.7773 110.125 31.3242 109.609C37.125 107.933 42.0234 103.937 44.9883 98.7808C44.3438 102.132 43.0547 105.226 41.1211 108.062C42.5391 107.16 43.8281 106.128 44.9883 104.839C48.2109 101.488 50.2734 97.2339 51.0469 92.5933C51.5625 94.9136 51.6914 97.2339 51.4336 99.5542C61.4883 85.6323 51.9492 70.5503 47.9531 66.5542ZM96.9375 92.3354C97.4531 79.0581 96.4219 77.8979 96.4219 77.8979C90.6211 68.4878 81.082 77.8979 81.082 77.8979V72.4839H79.6641C77.7305 75.9644 72.1875 76.6089 72.1875 76.6089V78.0269C75.7969 78.8003 75.4102 80.4761 75.4102 80.4761C75.4102 80.4761 75.5391 89.1128 75.5391 91.8198C75.5391 94.5269 74.6367 94.0112 74.6367 94.0112L72.1875 94.5269V96.0737C74.7656 95.3003 83.918 96.0737 83.918 96.0737L84.0469 94.5269C81.3398 94.1401 81.082 92.4644 81.082 92.4644V79.7026C83.5313 77.5112 85.8516 76.7378 85.8516 76.7378C90.6211 75.5776 91.0078 80.2183 91.0078 80.2183L91.1367 91.9487C92.0391 95.0425 87.5274 94.5269 87.5274 94.5269L87.6563 96.0737L94.7461 95.5581L99.5156 96.0737V94.5269C97.1953 94.1401 97.0664 94.1401 96.9375 92.3354ZM113.695 73.2573C103.383 73.2573 102.867 82.5386 102.867 82.5386C102.867 82.5386 101.063 96.5894 113.695 96.5894C121.816 96.5894 124.266 91.9487 124.266 91.9487L122.719 90.5308C122.719 90.5308 110.602 99.2964 109.055 82.6675H124.395C124.266 82.5386 124.008 73.2573 113.695 73.2573ZM118.465 80.8628H108.926V80.2183C108.926 77.5112 111.117 75.1909 113.953 75.1909C116.402 75.1909 118.465 77.2534 118.465 79.7026V80.8628ZM141.023 82.9253C137.543 82.2808 135.223 81.3784 135.223 81.3784C135.223 81.3784 129.809 79.187 134.578 75.9644C139.863 73.2573 142.957 80.9917 142.957 80.9917C142.957 80.9917 144.117 81.2495 144.891 80.605C145.148 79.8315 144.246 75.1909 144.246 75.1909C144.246 75.1909 142.57 73.1284 134.191 73.7729C134.191 73.7729 129.68 74.8042 128.906 79.0581C128.133 83.312 130.84 85.6323 130.84 85.6323C130.84 85.6323 132 87.3081 135.996 87.6948C139.477 88.0815 141.023 89.4995 141.023 89.4995C141.023 89.4995 142.828 91.1753 140.895 93.2378C138.961 95.3003 136.383 94.5269 136.383 94.5269C136.383 94.5269 133.418 94.6558 129.938 88.5972L128.262 88.7261L128.906 94.7847C128.906 94.7847 137.156 99.4253 143.473 94.7847C149.918 88.9839 144.504 83.5698 141.023 82.9253ZM163.84 91.8198C159.844 95.1714 159.07 91.1753 159.07 91.1753V77.5112H164.484V74.9331H159.328V69.3901H157.652C155.332 74.2886 150.176 75.9644 150.176 75.9644V76.9956C150.176 77.6401 150.691 77.6401 150.691 77.6401H153.27C153.27 77.6401 153.012 87.5659 153.141 91.0464C153.27 94.5269 155.719 95.5581 155.719 95.5581C155.719 95.5581 157.395 96.4604 160.102 96.2026C162.809 95.9448 164.742 93.2378 164.742 93.2378L163.84 91.8198Z" fill="#545454"/>
</svg>
