<svg width="222" height="45" viewBox="0 0 222 45" fill="none" xmlns="http://www.w3.org/2000/svg">
<g clip-path="url(#clip0_90_57)">
<path d="M185.86 0.0186058V7.14072H170.553V44.6106H162.898V7.14115H147.272V0.0186058H185.86ZM187.581 40.3628C188.12 40.3628 188.592 40.5567 188.991 40.9452C189.396 41.3334 189.598 41.7985 189.603 42.3402C189.602 42.6957 189.503 43.0441 189.318 43.3471C189.135 43.6462 188.88 43.8941 188.576 44.0675C188.275 44.2472 187.931 44.3409 187.581 44.3384C187.02 44.3384 186.543 44.1441 186.144 43.756C185.745 43.3675 185.547 42.8971 185.552 42.3402C185.548 41.7985 185.745 41.3334 186.144 40.9452C186.543 40.5567 187.02 40.3628 187.581 40.3628ZM35.8771 44.6106L7.65433 9.53135V44.5924H0V0H9.56726L45.2237 44.277L45.2241 7.14115L45.2211 0.0186058H83.8086V7.14072H52.878V18.5984H77.7527V25.721H52.878V37.4885H83.809V44.6106H35.8771ZM108.34 25.653L113.356 31.8894L103.077 44.6634H93.0323L108.34 25.653ZM103.077 0.0372115L116.028 16.1204L128.938 0.0865385L138.954 0.0713942L121.043 22.3486L138.983 44.6292H128.938L93.0609 0.0372115H103.077ZM200.644 25.5531H204.036V38.6204C204.031 39.8211 203.771 40.8479 203.263 41.712C202.75 42.5752 202.039 43.2346 201.127 43.6998C200.219 44.1593 199.156 44.3947 197.947 44.3947C196.843 44.3947 195.853 44.1956 194.971 43.8071C194.089 43.4185 193.389 42.8361 192.876 42.0694C192.356 41.3031 192.102 40.3473 192.102 39.2028H195.5C195.505 39.7034 195.619 40.1374 195.837 40.5009C196.051 40.8596 196.364 41.1487 196.739 41.3334C197.128 41.5281 197.574 41.625 198.077 41.625C198.622 41.625 199.088 41.5125 199.467 41.2823C199.845 41.0573 200.136 40.7202 200.338 40.2707C200.535 39.8259 200.639 39.2742 200.644 38.6199V25.5531ZM217.991 30.6632C217.909 29.8713 217.545 29.2526 216.913 28.8134C216.274 28.3686 215.45 28.1492 214.438 28.1492C213.729 28.1492 213.117 28.2565 212.608 28.466C212.1 28.6806 211.706 28.9666 211.436 29.3296C211.167 29.6922 211.032 30.1063 211.021 30.5714C211.021 30.9596 211.114 31.2971 211.296 31.5779C211.484 31.8723 211.738 32.1191 212.037 32.2988C212.363 32.5034 212.711 32.6697 213.075 32.7942C213.458 32.927 213.843 33.0395 214.226 33.1317L215.994 33.5661C216.705 33.7297 217.395 33.949 218.054 34.2303C218.712 34.5063 219.308 34.859 219.832 35.283C220.356 35.7071 220.771 36.2181 221.077 36.8161C221.383 37.414 221.538 38.1141 221.538 38.9215C221.538 40.0098 221.259 40.9656 220.693 41.7933C220.128 42.6163 219.314 43.2601 218.245 43.7253C217.182 44.1852 215.896 44.4202 214.382 44.4202C212.919 44.4202 211.644 44.1952 210.57 43.7456C209.491 43.3012 208.651 42.6466 208.044 41.7881C207.437 40.9297 207.111 39.8821 207.064 38.6507H210.425C210.472 39.2945 210.679 39.8311 211.032 40.2655C211.389 40.6947 211.856 41.0114 212.427 41.2261C213.002 41.4359 213.645 41.5432 214.356 41.5432C215.097 41.5432 215.751 41.4307 216.316 41.2109C216.876 40.9911 217.317 40.6848 217.633 40.2858C217.955 39.8921 218.116 39.4274 218.121 38.896C218.116 38.4105 217.97 38.0068 217.69 37.6897C217.405 37.3729 217.011 37.1073 216.508 36.8926C216 36.678 215.409 36.4837 214.734 36.3154L212.587 35.7737C211.037 35.38 209.808 34.7824 208.91 33.9798C208.008 33.1775 207.562 32.1149 207.562 30.7809C207.562 29.6875 207.863 28.7264 208.47 27.9035C209.071 27.0813 209.896 26.4423 210.938 25.9875C211.986 25.5275 213.168 25.3025 214.485 25.3025C215.823 25.3025 216.995 25.5275 218.007 25.9875C219.018 26.4423 219.812 27.0757 220.387 27.8831C220.963 28.691 221.264 29.6156 221.279 30.6632H217.991Z" fill="black"/>
</g>
<defs>
<clipPath id="clip0_90_57">
<rect width="221.538" height="45" fill="white"/>
</clipPath>
</defs>
</svg>
