<svg width="128" height="128" viewBox="0 0 128 128" fill="none" xmlns="http://www.w3.org/2000/svg">
<path d="M64 120C62.4891 120 61.0046 119.603 59.696 118.848L46 110.74C43.956 109.596 44.952 109.192 45.628 108.956C47.8019 108.284 49.8834 107.344 51.824 106.156C51.9864 106.081 52.1654 106.048 52.3438 106.062C52.5223 106.075 52.6945 106.134 52.844 106.232L63.368 112.484C63.564 112.588 63.7823 112.642 64.004 112.642C64.2257 112.642 64.444 112.588 64.64 112.484L105.68 88.7959C105.872 88.6808 106.031 88.5179 106.141 88.3229C106.251 88.128 106.309 87.9078 106.308 87.6839V40.2999C106.308 40.0725 106.25 39.8489 106.138 39.6506C106.027 39.4523 105.866 39.2861 105.672 39.1679L64.632 15.4999C64.4385 15.3909 64.2201 15.3337 63.998 15.3337C63.7759 15.3337 63.5575 15.3909 63.364 15.4999L22.348 39.1759C22.1523 39.2916 21.9899 39.4559 21.8764 39.6528C21.7628 39.8497 21.7021 40.0726 21.7 40.2999V87.6639C21.7006 87.8873 21.7605 88.1065 21.8736 88.2991C21.9868 88.4917 22.1491 88.6507 22.344 88.7599L33.6 95.2559C39.7 98.3039 43.436 94.7119 43.436 91.1039V44.3399C43.436 44.0216 43.5624 43.7164 43.7875 43.4914C44.0125 43.2663 44.3177 43.1399 44.636 43.1399H49.836C50.1543 43.1399 50.4595 43.2663 50.6845 43.4914C50.9096 43.7164 51.036 44.0216 51.036 44.3399V91.1079C51.036 99.2479 46.604 103.908 38.884 103.908C35.5535 103.966 32.2752 103.075 29.432 101.34L18.644 95.1519C17.3343 94.3892 16.2477 93.2964 15.4924 91.9824C14.7372 90.6685 14.3398 89.1794 14.34 87.6639V40.2999C14.3361 38.782 14.7318 37.2899 15.4873 35.9733C16.2428 34.6568 17.3315 33.5624 18.644 32.7999L59.688 9.10391C61.0101 8.38058 62.4929 8.00146 64 8.00146C65.507 8.00146 66.9899 8.38058 68.312 9.10391L109.352 32.7999C110.661 33.5611 111.748 34.6524 112.504 35.9649C113.26 37.2774 113.659 38.7653 113.66 40.2799V87.6639C113.658 89.1794 113.259 90.668 112.503 91.9816C111.747 93.2952 110.661 94.3882 109.352 95.1519L68.312 118.848C67.0009 119.604 65.5136 120.002 64 120Z" fill="#83CD29"/>
<path d="M56.216 71.812C56.216 71.4937 56.3424 71.1885 56.5675 70.9635C56.7925 70.7384 57.0977 70.612 57.416 70.612H62.724C63.0076 70.6129 63.2817 70.7142 63.4977 70.898C63.7138 71.0818 63.8577 71.3362 63.904 71.616C64.704 77.02 67.104 79.744 77.956 79.744C86.6 79.744 90.284 77.788 90.284 73.2C90.284 70.556 89.24 68.592 75.804 67.276C64.572 66.164 57.628 63.676 57.628 54.7C57.628 46.42 64.608 41.48 76.308 41.48C89.456 41.48 95.964 46.044 96.788 55.836C96.8006 55.9995 96.7795 56.1638 96.7262 56.3188C96.6728 56.4738 96.5882 56.6163 96.4776 56.7373C96.367 56.8584 96.2328 56.9555 96.0833 57.0227C95.9337 57.0899 95.772 57.1257 95.608 57.128H90.264C89.9959 57.1242 89.7368 57.0308 89.528 56.8626C89.3192 56.6944 89.1728 56.4611 89.112 56.2C87.836 50.516 84.712 48.7 76.312 48.7C66.872 48.7 65.776 51.988 65.776 54.452C65.776 57.436 67.072 58.308 79.816 59.992C92.428 61.66 98.42 64.02 98.42 72.884C98.42 81.828 90.964 86.948 77.96 86.948C59.98 86.972 56.216 78.728 56.216 71.812Z" fill="#83CD29"/>
</svg>
