<svg width="36" height="10" viewBox="0 0 36 10" fill="none" xmlns="http://www.w3.org/2000/svg">
<path d="M1.09859 8.643C1.51812 8.643 1.85822 8.3029 1.85822 7.88337C1.85822 7.46384 1.51812 7.12374 1.09859 7.12374C0.67906 7.12374 0.338963 7.46384 0.338963 7.88337C0.338963 8.3029 0.67906 8.643 1.09859 8.643Z" fill="#A146B0" stroke="#A146B0" stroke-width="0.169084"/>
<path fill-rule="evenodd" clip-rule="evenodd" d="M1.58427 6.75921C1.21514 6.62918 0.852806 6.64147 0.48118 6.83122C-0.61861 2.51794 0.837024 6.07988 1.58427 6.75921Z" fill="#A146B0" stroke="#A146B0" stroke-width="0.169084"/>
<path fill-rule="evenodd" clip-rule="evenodd" d="M2.30245 7.58805C2.39583 8.02819 2.30774 8.34908 2.09062 8.58528C7.07144 7.53852 3.33133 7.96218 2.30245 7.58805Z" fill="#A146B0" stroke="#A146B0" stroke-width="0.169084"/>
<path d="M7.39912 7.83169C7.3796 7.41261 7.02406 7.0887 6.60498 7.10822C6.1859 7.12773 5.86199 7.48328 5.8815 7.90236C5.90102 8.32143 6.25656 8.64534 6.67564 8.62583C7.09472 8.60632 7.41863 8.25077 7.39912 7.83169Z" fill="#0CA148" stroke="#0CA248" stroke-width="0.0460292"/>
<path fill-rule="evenodd" clip-rule="evenodd" d="M5.53891 7.51125C5.42605 7.88607 5.45522 8.24741 5.66205 8.60974C1.44535 9.75427 4.75471 8.42228 5.53891 7.51125Z" fill="#0CA148" stroke="#0CA248" stroke-width="0.169084"/>
<path fill-rule="evenodd" clip-rule="evenodd" d="M6.52664 6.70648C6.97617 6.68751 7.27798 6.82763 7.47473 7.081C7.21586 1.81994 7.01921 5.83739 6.52664 6.70648Z" fill="#0CA148" stroke="#0CA248" stroke-width="0.169084"/>
<path d="M0.550538 2.61706C0.630737 3.02885 1.02958 3.29766 1.44137 3.21747C1.85317 3.13727 2.12198 2.73843 2.04178 2.32663C1.96158 1.91484 1.56274 1.64602 1.15095 1.72622C0.739152 1.80642 0.470339 2.20526 0.550538 2.61706Z" fill="#F91B1B" stroke="#F91B1B" stroke-width="0.0460293"/>
<path fill-rule="evenodd" clip-rule="evenodd" d="M2.49241 2.73376C2.54954 2.34656 2.46814 1.99321 2.21087 1.66483C6.08751 0.0403138 3.17873 1.78598 2.49241 2.73376Z" fill="#F91B1B" stroke="#F91B1B" stroke-width="0.169084"/>
<path fill-rule="evenodd" clip-rule="evenodd" d="M1.62812 3.6404C1.18619 3.72449 0.867195 3.62962 0.635592 3.4076C1.50148 8.24011 1.23213 4.66199 1.62812 3.6404Z" fill="#F91B1B" stroke="#F91B1B" stroke-width="0.169084"/>
<path d="M6.67076 1.15411C6.2541 1.20307 5.95601 1.58052 6.00496 1.99719C6.05391 2.41386 6.43137 2.71195 6.84804 2.66299C7.2647 2.61404 7.56279 2.23658 7.51384 1.81992C7.46489 1.40325 7.08743 1.10516 6.67076 1.15411Z" fill="#3C72FF" stroke="#3C72FF" stroke-width="0.0460292"/>
<path fill-rule="evenodd" clip-rule="evenodd" d="M6.48859 3.01791C6.86181 3.13565 7.22355 3.11129 7.58858 2.90924C8.76198 6.85729 7.31563 3.84565 6.48859 3.01791Z" fill="#3C72FF" stroke="#3C72FF" stroke-width="0.169084"/>
<path fill-rule="evenodd" clip-rule="evenodd" d="M5.65995 2.30192C5.51583 1.87567 5.56577 1.54669 5.75383 1.28682C1.7127 2.33997 4.59421 2.05045 5.65995 2.30192Z" fill="#3C72FF" stroke="#3C72FF" stroke-width="0.169084"/>
<path d="M11.04 3.43H13.93V3.97H12.795V7H12.17V3.97H11.04V3.43ZM15.4822 5.48C15.4756 5.39 15.4556 5.30333 15.4222 5.22C15.3922 5.13667 15.3489 5.065 15.2922 5.005C15.2389 4.94167 15.1722 4.89167 15.0922 4.855C15.0156 4.815 14.9289 4.795 14.8322 4.795C14.7322 4.795 14.6406 4.81333 14.5572 4.85C14.4772 4.88333 14.4072 4.93167 14.3472 4.995C14.2906 5.055 14.2439 5.12667 14.2072 5.21C14.1739 5.29333 14.1556 5.38333 14.1522 5.48H15.4822ZM14.1522 5.855C14.1522 5.955 14.1656 6.05167 14.1922 6.145C14.2222 6.23833 14.2656 6.32 14.3222 6.39C14.3789 6.46 14.4506 6.51667 14.5372 6.56C14.6239 6.6 14.7272 6.62 14.8472 6.62C15.0139 6.62 15.1472 6.585 15.2472 6.515C15.3506 6.44167 15.4272 6.33333 15.4772 6.19H16.0172C15.9872 6.33 15.9356 6.455 15.8622 6.565C15.7889 6.675 15.7006 6.76833 15.5972 6.845C15.4939 6.91833 15.3772 6.97333 15.2472 7.01C15.1206 7.05 14.9872 7.07 14.8472 7.07C14.6439 7.07 14.4639 7.03667 14.3072 6.97C14.1506 6.90333 14.0172 6.81 13.9072 6.69C13.8006 6.57 13.7189 6.42667 13.6622 6.26C13.6089 6.09333 13.5822 5.91 13.5822 5.71C13.5822 5.52667 13.6106 5.35333 13.6672 5.19C13.7272 5.02333 13.8106 4.87833 13.9172 4.755C14.0272 4.62833 14.1589 4.52833 14.3122 4.455C14.4656 4.38167 14.6389 4.345 14.8322 4.345C15.0356 4.345 15.2172 4.38833 15.3772 4.475C15.5406 4.55833 15.6756 4.67 15.7822 4.81C15.8889 4.95 15.9656 5.11167 16.0122 5.295C16.0622 5.475 16.0756 5.66167 16.0522 5.855H14.1522ZM18.6505 6.425C18.6505 6.495 18.6589 6.545 18.6755 6.575C18.6955 6.605 18.7322 6.62 18.7855 6.62C18.8022 6.62 18.8222 6.62 18.8455 6.62C18.8689 6.62 18.8955 6.61667 18.9255 6.61V7.005C18.9055 7.01167 18.8789 7.01833 18.8455 7.025C18.8155 7.035 18.7839 7.04333 18.7505 7.05C18.7172 7.05667 18.6839 7.06167 18.6505 7.065C18.6172 7.06833 18.5889 7.07 18.5655 7.07C18.4489 7.07 18.3522 7.04667 18.2755 7C18.1989 6.95333 18.1489 6.87167 18.1255 6.755C18.0122 6.865 17.8722 6.945 17.7055 6.995C17.5422 7.045 17.3839 7.07 17.2305 7.07C17.1139 7.07 17.0022 7.05333 16.8955 7.02C16.7889 6.99 16.6939 6.945 16.6105 6.885C16.5305 6.82167 16.4655 6.74333 16.4155 6.65C16.3689 6.55333 16.3455 6.44167 16.3455 6.315C16.3455 6.155 16.3739 6.025 16.4305 5.925C16.4905 5.825 16.5672 5.74667 16.6605 5.69C16.7572 5.63333 16.8639 5.59333 16.9805 5.57C17.1005 5.54333 17.2205 5.52333 17.3405 5.51C17.4439 5.49 17.5422 5.47667 17.6355 5.47C17.7289 5.46 17.8105 5.445 17.8805 5.425C17.9539 5.405 18.0105 5.375 18.0505 5.335C18.0939 5.29167 18.1155 5.22833 18.1155 5.145C18.1155 5.07167 18.0972 5.01167 18.0605 4.965C18.0272 4.91833 17.9839 4.88333 17.9305 4.86C17.8805 4.83333 17.8239 4.81667 17.7605 4.81C17.6972 4.8 17.6372 4.795 17.5805 4.795C17.4205 4.795 17.2889 4.82833 17.1855 4.895C17.0822 4.96167 17.0239 5.065 17.0105 5.205H16.4405C16.4505 5.03833 16.4905 4.9 16.5605 4.79C16.6305 4.68 16.7189 4.59167 16.8255 4.525C16.9355 4.45833 17.0589 4.41167 17.1955 4.385C17.3322 4.35833 17.4722 4.345 17.6155 4.345C17.7422 4.345 17.8672 4.35833 17.9905 4.385C18.1139 4.41167 18.2239 4.455 18.3205 4.515C18.4205 4.575 18.5005 4.65333 18.5605 4.75C18.6205 4.84333 18.6505 4.95833 18.6505 5.095V6.425ZM18.0805 5.705C17.9939 5.76167 17.8872 5.79667 17.7605 5.81C17.6339 5.82 17.5072 5.83667 17.3805 5.86C17.3205 5.87 17.2622 5.885 17.2055 5.905C17.1489 5.92167 17.0989 5.94667 17.0555 5.98C17.0122 6.01 16.9772 6.05167 16.9505 6.105C16.9272 6.155 16.9155 6.21667 16.9155 6.29C16.9155 6.35333 16.9339 6.40667 16.9705 6.45C17.0072 6.49333 17.0505 6.52833 17.1005 6.555C17.1539 6.57833 17.2105 6.595 17.2705 6.605C17.3339 6.615 17.3905 6.62 17.4405 6.62C17.5039 6.62 17.5722 6.61167 17.6455 6.595C17.7189 6.57833 17.7872 6.55 17.8505 6.51C17.9172 6.47 17.9722 6.42 18.0155 6.36C18.0589 6.29667 18.0805 6.22 18.0805 6.13V5.705ZM19.2639 4.415H19.8039V4.775H19.8189C19.8622 4.71167 19.9089 4.65333 19.9589 4.6C20.0089 4.54667 20.0639 4.50167 20.1239 4.465C20.1872 4.42833 20.2589 4.4 20.3389 4.38C20.4189 4.35667 20.5105 4.345 20.6139 4.345C20.7705 4.345 20.9155 4.38 21.0489 4.45C21.1855 4.52 21.2822 4.62833 21.3389 4.775C21.4355 4.64167 21.5472 4.53667 21.6739 4.46C21.8005 4.38333 21.9589 4.345 22.1489 4.345C22.4222 4.345 22.6339 4.41167 22.7839 4.545C22.9372 4.67833 23.0139 4.90167 23.0139 5.215V7H22.4439V5.49C22.4439 5.38667 22.4405 5.29333 22.4339 5.21C22.4272 5.12333 22.4072 5.05 22.3739 4.99C22.3439 4.92667 22.2972 4.87833 22.2339 4.845C22.1705 4.81167 22.0839 4.795 21.9739 4.795C21.7805 4.795 21.6405 4.855 21.5539 4.975C21.4672 5.095 21.4239 5.265 21.4239 5.485V7H20.8539V5.34C20.8539 5.16 20.8205 5.025 20.7539 4.935C20.6905 4.84167 20.5722 4.795 20.3989 4.795C20.3255 4.795 20.2539 4.81 20.1839 4.84C20.1172 4.87 20.0572 4.91333 20.0039 4.97C19.9539 5.02667 19.9122 5.09667 19.8789 5.18C19.8489 5.26333 19.8339 5.35833 19.8339 5.465V7H19.2639V4.415ZM25.0861 3.43H27.5511V3.97H25.7111V4.905H27.3261V5.415H25.7111V7H25.0861V3.43ZM30.1349 6.425C30.1349 6.495 30.1433 6.545 30.1599 6.575C30.1799 6.605 30.2166 6.62 30.2699 6.62C30.2866 6.62 30.3066 6.62 30.3299 6.62C30.3533 6.62 30.3799 6.61667 30.4099 6.61V7.005C30.3899 7.01167 30.3633 7.01833 30.3299 7.025C30.2999 7.035 30.2683 7.04333 30.2349 7.05C30.2016 7.05667 30.1683 7.06167 30.1349 7.065C30.1016 7.06833 30.0733 7.07 30.0499 7.07C29.9333 7.07 29.8366 7.04667 29.7599 7C29.6833 6.95333 29.6333 6.87167 29.6099 6.755C29.4966 6.865 29.3566 6.945 29.1899 6.995C29.0266 7.045 28.8683 7.07 28.7149 7.07C28.5983 7.07 28.4866 7.05333 28.3799 7.02C28.2733 6.99 28.1783 6.945 28.0949 6.885C28.0149 6.82167 27.9499 6.74333 27.8999 6.65C27.8533 6.55333 27.8299 6.44167 27.8299 6.315C27.8299 6.155 27.8583 6.025 27.9149 5.925C27.9749 5.825 28.0516 5.74667 28.1449 5.69C28.2416 5.63333 28.3483 5.59333 28.4649 5.57C28.5849 5.54333 28.7049 5.52333 28.8249 5.51C28.9283 5.49 29.0266 5.47667 29.1199 5.47C29.2133 5.46 29.2949 5.445 29.3649 5.425C29.4383 5.405 29.4949 5.375 29.5349 5.335C29.5783 5.29167 29.5999 5.22833 29.5999 5.145C29.5999 5.07167 29.5816 5.01167 29.5449 4.965C29.5116 4.91833 29.4683 4.88333 29.4149 4.86C29.3649 4.83333 29.3083 4.81667 29.2449 4.81C29.1816 4.8 29.1216 4.795 29.0649 4.795C28.9049 4.795 28.7733 4.82833 28.6699 4.895C28.5666 4.96167 28.5083 5.065 28.4949 5.205H27.9249C27.9349 5.03833 27.9749 4.9 28.0449 4.79C28.1149 4.68 28.2033 4.59167 28.3099 4.525C28.4199 4.45833 28.5433 4.41167 28.6799 4.385C28.8166 4.35833 28.9566 4.345 29.0999 4.345C29.2266 4.345 29.3516 4.35833 29.4749 4.385C29.5983 4.41167 29.7083 4.455 29.8049 4.515C29.9049 4.575 29.9849 4.65333 30.0449 4.75C30.1049 4.84333 30.1349 4.95833 30.1349 5.095V6.425ZM29.5649 5.705C29.4783 5.76167 29.3716 5.79667 29.2449 5.81C29.1183 5.82 28.9916 5.83667 28.8649 5.86C28.8049 5.87 28.7466 5.885 28.6899 5.905C28.6333 5.92167 28.5833 5.94667 28.5399 5.98C28.4966 6.01 28.4616 6.05167 28.4349 6.105C28.4116 6.155 28.3999 6.21667 28.3999 6.29C28.3999 6.35333 28.4183 6.40667 28.4549 6.45C28.4916 6.49333 28.5349 6.52833 28.5849 6.555C28.6383 6.57833 28.6949 6.595 28.7549 6.605C28.8183 6.615 28.8749 6.62 28.9249 6.62C28.9883 6.62 29.0566 6.61167 29.1299 6.595C29.2033 6.57833 29.2716 6.55 29.3349 6.51C29.4016 6.47 29.4566 6.42 29.4999 6.36C29.5433 6.29667 29.5649 6.22 29.5649 6.13V5.705ZM30.7632 3.43H31.3332V4.75H31.3432C31.3832 4.68667 31.4316 4.63 31.4882 4.58C31.5449 4.53 31.6066 4.48833 31.6732 4.455C31.7432 4.41833 31.8149 4.39167 31.8882 4.375C31.9649 4.355 32.0399 4.345 32.1132 4.345C32.3166 4.345 32.4932 4.38167 32.6432 4.455C32.7966 4.525 32.9232 4.62333 33.0232 4.75C33.1232 4.87333 33.1982 5.01833 33.2482 5.185C33.2982 5.35167 33.3232 5.53 33.3232 5.72C33.3232 5.89333 33.2999 6.06167 33.2532 6.225C33.2099 6.38833 33.1416 6.53333 33.0482 6.66C32.9582 6.78333 32.8432 6.88333 32.7032 6.96C32.5632 7.03333 32.3982 7.07 32.2082 7.07C32.1216 7.07 32.0332 7.06333 31.9432 7.05C31.8566 7.04 31.7732 7.01833 31.6932 6.985C31.6132 6.95167 31.5399 6.90833 31.4732 6.855C31.4099 6.80167 31.3566 6.73167 31.3132 6.645H31.3032V7H30.7632V3.43ZM32.7532 5.71C32.7532 5.59333 32.7382 5.48 32.7082 5.37C32.6782 5.26 32.6332 5.16333 32.5732 5.08C32.5132 4.99333 32.4382 4.925 32.3482 4.875C32.2582 4.82167 32.1549 4.795 32.0382 4.795C31.7982 4.795 31.6166 4.87833 31.4932 5.045C31.3732 5.21167 31.3132 5.43333 31.3132 5.71C31.3132 5.84 31.3282 5.96167 31.3582 6.075C31.3916 6.185 31.4399 6.28 31.5032 6.36C31.5666 6.44 31.6416 6.50333 31.7282 6.55C31.8182 6.59667 31.9216 6.62 32.0382 6.62C32.1682 6.62 32.2782 6.59333 32.3682 6.54C32.4582 6.48667 32.5316 6.41833 32.5882 6.335C32.6482 6.24833 32.6899 6.15167 32.7132 6.045C32.7399 5.935 32.7532 5.82333 32.7532 5.71Z" fill="black"/>
</svg>
