<svg width="142" height="30" viewBox="0 0 142 30" fill="none" xmlns="http://www.w3.org/2000/svg">
<circle cx="14.6097" cy="15.3631" r="14.6097" fill="#52B3D0"/>
<path d="M13.0224 4.40578C18.1973 4.40578 14.6096 9.31151 14.6096 15.363C14.6096 21.4146 18.1973 26.3203 13.0224 26.3203C7.84745 26.3203 3.65234 21.4146 3.65234 15.363C3.65234 9.31151 7.84745 4.40578 13.0224 4.40578Z" fill="white"/>
<path d="M40.8266 8.0661C40.8266 7.43012 41.2924 7.11214 42.2242 7.11214C42.6235 7.11214 43.3852 7.12693 44.5093 7.15651C45.7516 7.21567 46.6908 7.24525 47.3268 7.24525C47.8444 7.24525 48.473 7.21567 49.2125 7.15651C49.7154 7.12693 50.0334 7.11214 50.1665 7.11214C50.9799 7.14172 51.6677 7.28962 52.2297 7.55584C52.3924 7.62979 52.5255 7.71853 52.629 7.82206C52.7325 7.92559 52.7843 8.09568 52.7843 8.33232C52.7843 8.6577 52.6808 8.93871 52.4737 9.17535C52.2667 9.3972 52.0152 9.50813 51.7194 9.50813C51.394 9.50813 50.9208 9.46376 50.2996 9.37502C49.7524 9.27149 49.2717 9.21972 48.8576 9.21972C48.4582 9.21972 48.155 9.22712 47.948 9.24191C47.9036 9.72998 47.8814 10.8984 47.8814 12.7471C47.8814 14.9509 47.948 17.1842 48.0811 19.447L48.1254 20.0904C48.1254 20.6968 47.7779 21 47.0827 21C46.5355 21 46.1658 20.8743 45.9735 20.6229C45.7812 20.3566 45.6851 19.9573 45.6851 19.4249C45.6851 18.3748 45.6555 17.0658 45.5963 15.4981C45.5372 14.1966 45.5076 13.2722 45.5076 12.725C45.5076 12.3552 45.552 11.2238 45.6407 9.33065L43.0451 9.35283C42.2168 9.35283 41.64 9.27888 41.3146 9.13098C40.9892 8.96829 40.8266 8.61333 40.8266 8.0661ZM51.8284 16.2968C51.8284 15.7347 51.932 15.1727 52.139 14.6107C52.3461 14.0339 52.6197 13.5088 52.9599 13.0356C53.3001 12.5623 53.8399 12.1777 54.5794 11.8819C55.3189 11.5713 55.9771 11.416 56.5539 11.416C57.1455 11.416 57.7445 11.4974 58.3509 11.6601C58.972 11.8228 59.401 12.0742 59.6376 12.4144C60.1848 13.1835 60.4584 13.9377 60.4584 14.6773C60.4584 15.0766 60.3697 15.4168 60.1922 15.6978C60.0295 15.9788 59.7929 16.282 59.4823 16.6074C59.2309 16.8736 58.8315 17.0511 58.2843 17.1398C57.7519 17.2285 57.2194 17.2729 56.687 17.2729C56.3468 17.2729 55.9327 17.2433 55.4446 17.1842C54.9565 17.1102 54.4833 17.0215 54.0248 16.9179C54.0544 17.2137 54.1283 17.5022 54.2466 17.7832C54.3649 18.0642 54.5054 18.2786 54.6681 18.4265C54.9639 18.7075 55.2671 18.885 55.5777 18.959C55.9031 19.0329 56.3172 19.0699 56.8201 19.0699C57.3525 19.0699 57.848 18.9812 58.3065 18.8037C58.6762 18.6706 58.9794 18.604 59.2161 18.604C59.4971 18.604 59.7115 18.6928 59.8594 18.8702C60.0074 19.0329 60.0813 19.2474 60.0813 19.5136C60.0813 19.8834 59.8668 20.1865 59.4379 20.4232C59.009 20.6598 58.5136 20.8373 57.9515 20.9556C57.4043 21.0592 56.9606 21.1109 56.6204 21.1109C55.9253 21.1109 55.2523 20.9852 54.6016 20.7338C53.9508 20.4823 53.411 20.1274 52.9821 19.6689C52.6271 19.2548 52.3461 18.7593 52.139 18.1825C51.932 17.5909 51.8284 16.9623 51.8284 16.2968ZM56.6648 13.3018C56.3394 13.3018 56.014 13.3683 55.6887 13.5014C55.3633 13.6198 55.0971 13.7898 54.89 14.0117C54.6238 14.2927 54.4389 14.522 54.3354 14.6994C54.2466 14.8621 54.1875 15.0914 54.1579 15.3872C54.5276 15.5055 55.2967 15.5647 56.4651 15.5647C57.1011 15.5647 57.5892 15.4685 57.9293 15.2762C58.2843 15.084 58.4618 14.8325 58.4618 14.522C58.4618 14.2114 58.2695 13.9304 57.885 13.6789C57.5004 13.4275 57.0937 13.3018 56.6648 13.3018ZM71.0088 21.0887C70.506 21.0887 70.1214 21.0148 69.8552 20.8669C69.589 20.7042 69.3006 20.4084 68.99 19.9795C68.6055 20.3197 68.0286 20.5933 67.2596 20.8003C66.5053 21.0074 65.8545 21.1109 65.3073 21.1109C64.4051 21.1109 63.673 20.8669 63.1109 20.3788C62.5637 19.876 62.2901 19.1438 62.2901 18.1825C62.2901 17.7684 62.401 17.3912 62.6229 17.0511C62.8595 16.6961 63.1627 16.3855 63.5325 16.1193C63.9466 15.8383 64.4347 15.6164 64.9967 15.4537C65.5735 15.291 66.0985 15.2097 66.5718 15.2097C67.3705 15.2097 68.0804 15.2836 68.7016 15.4315V15.4094C68.7016 14.6107 68.5019 14.0635 68.1026 13.7677C67.7181 13.4571 67.0969 13.3018 66.239 13.3018C65.6918 13.3018 65.2185 13.5458 64.8192 14.0339C64.6713 14.2262 64.3607 14.3223 63.8874 14.3223C63.6508 14.3223 63.4733 14.2262 63.355 14.0339C63.2515 13.8268 63.1997 13.6198 63.1997 13.4127C63.1997 12.9838 63.3772 12.614 63.7321 12.3034C64.1019 11.9929 64.5456 11.7636 65.0632 11.6157C65.5809 11.453 66.0616 11.3717 66.5053 11.3717C66.9342 11.3717 67.4444 11.4604 68.036 11.6379C68.6276 11.8154 69.1083 12.052 69.4781 12.3478C69.9218 12.7324 70.2619 13.1835 70.4986 13.7011C70.75 14.204 70.8757 14.7586 70.8757 15.365C70.8757 15.5573 70.8609 15.8457 70.8314 16.2302C70.8018 16.6739 70.787 17.0363 70.787 17.3173C70.787 17.4504 70.7722 17.6205 70.7426 17.8275C70.713 18.0938 70.6982 18.3156 70.6982 18.4931C70.6982 18.6854 70.7574 18.8702 70.8757 19.0477C70.994 19.2252 71.1567 19.3731 71.3638 19.4914C71.5561 19.5949 71.6818 19.7059 71.7409 19.8242C71.8001 19.9425 71.8297 20.0756 71.8297 20.2235C71.8297 20.3714 71.7336 20.5563 71.5413 20.7781C71.3638 20.9852 71.1863 21.0887 71.0088 21.0887ZM66.5718 16.8514C65.995 16.8514 65.4848 16.9623 65.0411 17.1842C64.5974 17.406 64.3755 17.798 64.3755 18.36C64.3755 18.641 64.4716 18.8776 64.6639 19.0699C64.871 19.2622 65.0928 19.3583 65.3295 19.3583C65.9654 19.3583 66.4979 19.2917 66.9268 19.1586C67.3557 19.0255 67.8733 18.7815 68.4797 18.4265C68.5537 18.1899 68.5981 17.8571 68.6129 17.4282C68.6129 17.2655 68.6202 17.1398 68.635 17.0511C67.8364 16.9179 67.1486 16.8514 66.5718 16.8514ZM87.4965 20.2235C87.2747 19.8094 87.1342 19.3509 87.075 18.848C87.0158 18.3304 86.9863 17.6205 86.9863 16.7183C86.9863 15.8605 86.8679 15.1136 86.6313 14.4776C86.3947 13.8416 85.9066 13.5236 85.1671 13.5236C84.8861 13.5236 84.6051 13.6124 84.324 13.7898C84.0578 13.9525 83.8582 14.1596 83.7251 14.411C83.518 14.8104 83.3775 15.2467 83.3035 15.72C83.2296 16.1784 83.1926 16.7109 83.1926 17.3173C83.1926 17.7018 83.2148 18.0938 83.2592 18.4931C83.2592 18.6114 83.2666 18.8037 83.2813 19.0699C83.3109 19.3213 83.3257 19.5506 83.3257 19.7576C83.3257 20.645 83.0151 21.0887 82.3939 21.0887C81.5805 21.0887 81.1516 20.6598 81.1072 19.802C81.1072 19.1956 81.1146 18.8702 81.1294 18.8259V17.8719C81.1294 17.3395 81.1072 16.8218 81.0628 16.3189C81.0185 15.8161 80.9667 15.4389 80.9075 15.1875C80.7744 14.6994 80.597 14.3223 80.3751 14.0561C80.168 13.7898 79.8353 13.6567 79.3768 13.6567C78.726 13.6567 78.201 13.9377 77.8016 14.4998C77.5206 14.9435 77.3357 15.4833 77.247 16.1193C77.1583 16.9327 77.0917 17.5761 77.0473 18.0494C77.0178 18.5079 77.003 19.0403 77.003 19.6467C77.003 20.0756 76.929 20.4232 76.7811 20.6894C76.648 20.9556 76.3892 21.0887 76.0046 21.0887C75.7236 21.0887 75.4278 21.0148 75.1172 20.8669C74.8214 20.7042 74.6735 20.4897 74.6735 20.2235C74.6735 19.9425 74.7031 19.6615 74.7623 19.3805C74.8954 18.5375 74.9619 17.0289 74.9619 14.8547C74.9619 14.4998 74.8732 14.1596 74.6957 13.8342C74.533 13.494 74.3334 13.324 74.0967 13.324C74.0376 13.324 73.9266 13.3535 73.7639 13.4127C73.616 13.4719 73.5051 13.5014 73.4312 13.5014C73.2389 13.5014 73.0614 13.4127 72.8987 13.2352C72.7508 13.0577 72.6769 12.9098 72.6769 12.7915C72.6769 12.4218 72.8544 12.1112 73.2093 11.8597C73.5791 11.5935 73.9636 11.4604 74.3629 11.4604C74.9102 11.4604 75.3761 11.6305 75.7606 11.9707C76.1451 12.3108 76.4409 12.7841 76.648 13.3905C76.9882 12.7989 77.4467 12.3256 78.0235 11.9707C78.6003 11.6009 79.2437 11.416 79.9536 11.416C80.3973 11.416 80.7522 11.4752 81.0185 11.5935C81.2995 11.6971 81.5287 11.8524 81.7062 12.0594C81.8837 12.2517 82.1129 12.5475 82.3939 12.9468C82.7637 12.4735 83.237 12.1038 83.8138 11.8376C84.4054 11.5713 85.0118 11.4382 85.633 11.4382C86.3725 11.4382 87.038 11.7414 87.6296 12.3478C88.2212 12.9394 88.6206 13.6272 88.8276 14.411C88.9312 14.8104 88.9829 15.5794 88.9829 16.7183L89.0717 18.005C89.1456 18.7741 89.397 19.24 89.8259 19.4027C90.3288 19.5506 90.5802 19.7059 90.5802 19.8686C90.5802 20.2235 90.4915 20.4823 90.314 20.645C90.1809 20.7338 89.996 20.8299 89.7594 20.9334C89.5228 21.037 89.3379 21.0887 89.2048 21.0887C88.4061 21.0887 87.8367 20.8003 87.4965 20.2235ZM98.5986 21.0666C98.2584 21.0666 97.9996 20.9778 97.8221 20.8003C97.6446 20.6081 97.5559 20.4158 97.5559 20.2235C97.6446 19.6911 97.6964 19.1217 97.7112 18.5153C97.726 17.9089 97.7334 17.5465 97.7334 17.4282V16.6295C97.7334 16.0231 97.726 15.4907 97.7112 15.0322C97.6964 14.5589 97.6816 14.1596 97.6668 13.8342C97.6077 12.5327 97.5781 11.5196 97.5781 10.7949V10.1071C97.6077 9.3972 97.6446 8.77602 97.689 8.24358C97.7038 8.03652 97.8295 7.81467 98.0661 7.57803C98.3176 7.34138 98.6577 7.19348 99.0867 7.13432C100.492 6.98642 102.237 6.91247 104.322 6.91247H105.032C105.55 6.91247 106.06 7.00861 106.563 7.20088C107.081 7.39315 107.34 7.71853 107.34 8.17702C107.34 8.48761 107.266 8.73904 107.118 8.93132C106.97 9.1088 106.681 9.19754 106.252 9.19754C106.06 9.19754 105.838 9.18275 105.587 9.15317C105.335 9.12359 105.158 9.1014 105.054 9.08661C104.492 8.99787 104.056 8.9535 103.746 8.9535C102.03 8.9535 100.728 9.07182 99.841 9.30846V10.5286V13.0799C100.847 13.0799 101.897 13.0356 102.991 12.9468C103.79 12.8877 104.308 12.8581 104.544 12.8581C104.884 12.8581 105.173 12.9394 105.409 13.1021C105.661 13.25 105.787 13.4793 105.787 13.7898C105.787 14.5589 105.262 14.9435 104.211 14.9435C103.96 14.9435 103.583 14.9731 103.08 15.0322C102.518 15.0914 102.082 15.121 101.771 15.121C101.579 15.121 101.305 15.1062 100.95 15.0766C100.492 15.047 100.181 15.0396 100.018 15.0544C100.004 15.4389 100.011 16.0379 100.041 16.8514L100.063 18.3378C100.063 18.8407 100.055 19.2178 100.041 19.4692C100.026 19.7059 99.9815 19.9647 99.9075 20.2457C99.8631 20.4823 99.73 20.682 99.5082 20.8447C99.2863 20.9926 98.9831 21.0666 98.5986 21.0666ZM118.689 19.9351C118.689 20.2605 118.511 20.5341 118.156 20.756C117.802 20.9778 117.476 21.0887 117.18 21.0887C116.633 21.0887 116.189 21.0222 115.849 20.8891C115.524 20.7412 115.213 20.475 114.917 20.0904C114.548 20.4306 114.03 20.6894 113.364 20.8669C112.699 21.0296 112.085 21.1109 111.523 21.1109C110.606 21.1109 109.844 20.8669 109.238 20.3788C108.646 19.876 108.351 19.1438 108.351 18.1825C108.351 17.7684 108.476 17.3543 108.728 16.9401C108.979 16.5112 109.29 16.171 109.66 15.9196C110.059 15.6534 110.51 15.4759 111.013 15.3872C111.516 15.2836 112.1 15.2319 112.765 15.2319C113.076 15.2319 113.446 15.291 113.875 15.4094C114.304 15.5277 114.644 15.6534 114.895 15.7865V15.4315C114.895 14.6329 114.696 14.0856 114.296 13.7898C113.912 13.4793 113.291 13.324 112.433 13.324C112.167 13.324 111.922 13.3683 111.701 13.4571C111.494 13.531 111.25 13.6419 110.969 13.7898C110.702 13.9377 110.451 14.0117 110.214 14.0117C110.007 14.0117 109.807 13.9304 109.615 13.7677C109.423 13.5902 109.327 13.4053 109.327 13.213C109.327 12.5919 109.711 12.1408 110.48 11.8597C111.264 11.5639 112.063 11.416 112.876 11.416C113.291 11.416 113.764 11.5048 114.296 11.6823C114.829 11.845 115.28 12.0742 115.65 12.37C116.093 12.7398 116.433 13.1835 116.67 13.7011C116.922 14.2188 117.047 14.7808 117.047 15.3872C117.047 15.5794 117.032 15.8679 117.003 16.2524C116.973 16.6665 116.958 17.0215 116.958 17.3173L116.936 17.9163C116.907 18.2417 116.892 18.5005 116.892 18.6928C116.892 18.8702 116.951 19.0255 117.069 19.1586C117.203 19.277 117.358 19.3361 117.535 19.3361L118.156 19.3139C118.319 19.3139 118.445 19.3805 118.534 19.5136C118.637 19.6319 118.689 19.7724 118.689 19.9351ZM111.523 19.3583C112.159 19.3583 112.692 19.2917 113.12 19.1586C113.549 19.0255 114.067 18.7815 114.673 18.4265C114.733 18.1751 114.77 17.8423 114.784 17.4282C113.971 17.0437 113.298 16.8514 112.765 16.8514C112.263 16.8514 111.856 16.8736 111.545 16.9179C111.235 16.9475 110.954 17.0732 110.702 17.2951C110.451 17.5169 110.325 17.8719 110.325 18.36C110.325 18.641 110.458 18.8776 110.724 19.0699C111.005 19.2622 111.272 19.3583 111.523 19.3583ZM120.654 17.0067C120.654 16.1784 120.661 15.5499 120.676 15.121L120.698 13.0134C120.698 12.1555 120.676 11.2164 120.631 10.1959C120.617 9.88527 120.565 9.45636 120.476 8.90913C120.358 8.08089 120.299 7.45971 120.299 7.04558C120.299 6.36524 120.639 6.02507 121.319 6.02507C121.748 6.02507 122.051 6.14339 122.229 6.38003C122.421 6.60188 122.554 6.95684 122.628 7.44492C122.776 8.46543 122.85 9.66342 122.85 11.0389C122.85 11.453 122.835 12.0742 122.805 12.9024C123.086 12.4587 123.449 12.1112 123.893 11.8597C124.351 11.6083 124.802 11.4826 125.246 11.4826C126.533 11.4826 127.642 12.015 128.574 13.0799C128.825 13.4497 129.047 13.8934 129.239 14.411C129.446 14.9139 129.55 15.3502 129.55 15.72C129.55 16.3707 129.476 16.9697 129.328 17.5169C129.195 18.0642 128.951 18.5966 128.596 19.1143C128.241 19.6319 127.79 20.0534 127.242 20.3788C126.71 20.7042 126.089 20.8669 125.379 20.8669C124.758 20.8669 124.196 20.7412 123.693 20.4897C123.205 20.2383 122.813 19.9055 122.517 19.4914C122.443 19.8612 122.28 20.2309 122.029 20.6007C121.778 20.9556 121.489 21.1331 121.164 21.1331C120.898 21.1331 120.676 21.0666 120.498 20.9334C120.321 20.7855 120.232 20.5711 120.232 20.2901C120.232 20.083 120.276 19.8242 120.365 19.5136C120.454 19.0847 120.52 18.6928 120.565 18.3378C120.624 17.968 120.654 17.5243 120.654 17.0067ZM124.824 19.0255C125.549 19.0255 126.155 18.7741 126.643 18.2712C127.132 17.7536 127.376 17.0585 127.376 16.1858C127.376 15.3872 127.161 14.6994 126.732 14.1226C126.584 13.9304 126.37 13.7751 126.089 13.6567C125.823 13.5384 125.556 13.4793 125.29 13.4793C124.669 13.4793 124.144 13.6641 123.715 14.0339C123.286 14.3888 123.042 14.8843 122.983 15.5203C122.924 16.3781 122.894 17.1176 122.894 17.7388C123.072 18.079 123.338 18.3822 123.693 18.6484C124.063 18.8998 124.44 19.0255 124.824 19.0255Z" fill="#13181A"/>
</svg>
