<svg width="85" height="56" viewBox="0 0 85 56" fill="none" xmlns="http://www.w3.org/2000/svg">
<path d="M48.2637 41.1416V53.0096C50.2114 53.9987 52.515 54.7404 55.1743 55.2349C57.8335 55.7295 60.6363 55.9766 63.583 55.9766C66.4542 55.9766 69.1824 55.7046 71.7666 55.1606C74.3508 54.6166 76.6172 53.7203 78.5645 52.472C80.5122 51.2234 82.0541 49.5914 83.1905 47.5762C84.3265 45.5614 84.8945 43.0705 84.8945 40.1035C84.8945 37.9525 84.5698 36.067 83.9207 34.4475C83.2787 32.839 82.3242 31.371 81.1114 30.127C79.8883 28.8659 78.421 27.7349 76.7109 26.7333C75.0004 25.7321 73.0713 24.7864 70.9237 23.8965C69.3506 23.2533 67.9402 22.6294 66.6914 22.0235C65.4431 21.4177 64.3816 20.7998 63.508 20.169C62.6338 19.5386 61.9596 18.8709 61.4852 18.1662C61.0109 17.4615 60.7737 16.6645 60.7737 15.7741C60.7737 14.9582 60.9857 14.223 61.4102 13.5677C61.8347 12.9124 62.4344 12.35 63.2083 11.8803C63.9823 11.4102 64.931 11.0459 66.0549 10.7859C67.1783 10.5264 68.4271 10.3966 69.8003 10.3966C70.7993 10.3966 71.8542 10.4709 72.9651 10.6192C74.0764 10.7674 75.1937 10.996 76.3176 11.3054C77.4379 11.6132 78.5333 12.0037 79.5947 12.4737C80.6239 12.9257 81.6082 13.4719 82.5349 14.1052V3.01629C80.7121 2.32406 78.7206 1.81102 76.5609 1.47715C74.4011 1.14328 71.9227 0.976562 69.126 0.976562C66.2795 0.976562 63.583 1.27949 61.036 1.88535C58.4891 2.49078 56.2479 3.43652 54.3127 4.72215C52.3776 6.0082 50.8483 7.64617 49.7244 9.63648C48.601 11.6268 48.0391 14.0064 48.0391 16.7757C48.0391 20.3112 49.0688 23.3276 51.1293 25.825C53.1893 28.3219 56.3164 30.4359 60.5114 32.1667C62.06 32.7917 63.596 33.4471 65.1183 34.1325C66.5418 34.7753 67.7715 35.4427 68.8078 36.1349C69.8441 36.8271 70.6618 37.5812 71.261 38.3972C71.8603 39.2132 72.1599 40.1404 72.1599 41.179C72.1649 41.9264 71.971 42.6619 71.5979 43.3115C71.2238 43.9664 70.6553 44.5353 69.8939 45.0174C69.1325 45.4995 68.1834 45.8763 67.0474 46.1483C65.9114 46.4203 64.5815 46.5565 63.0583 46.5565C60.4615 46.5565 57.8899 46.1053 55.3429 45.2026C52.7956 44.3002 50.436 42.9467 48.2637 41.1416ZM28.3027 11.6079H43.7031V1.83594H0.777344V11.6079H16.1027V55.1172H28.3027V11.6079Z" fill="white"/>
</svg>
